<?xml version="1.0" encoding="UTF-8" standalone="no"?>
<!-- Created with Inkscape (http://www.inkscape.org/) -->

<svg
   version="1.1"
   id="svg1"
   width="81.449203"
   height="165.69592"
   viewBox="-42.1234 0 165.696 165.696"
   xmlns="http://www.w3.org/2000/svg"
   xmlns:svg="http://www.w3.org/2000/svg">
  <defs
     id="defs1" />
  <g
     id="g1"
     transform="translate(-26.69878,-24.147267)">
    <path
       style="fill:currentColor"
       d="m 54.657391,189.29012 c -6.158037,-0.65465 -14.825647,-2.92468 -18.017994,-4.71888 -4.760595,-2.6756 -4.593491,-1.44587 -5.875437,-43.2379 C 30.353434,127.95 29.71749,112.35 29.350751,106.66667 c -0.36674,-5.68333 -1.007413,-21.133335 -1.42372,-34.333335 -0.416307,-13.2 -0.902425,-27.546359 -1.080263,-31.880798 -0.303453,-7.396045 -0.234671,-7.975182 1.118203,-9.415251 3.230329,-3.438528 11.545353,-5.443025 26.71625,-6.44047 20.356346,-1.338373 41.294003,0.396897 49.131819,4.071945 4.4697,2.095777 4.70596,3.09957 4.0793,17.33124 -0.87242,19.813126 -1.75793,42.797809 -2.51705,65.333339 -0.38907,11.55 -1.01207,25.8 -1.38445,31.66666 -0.37238,5.86667 -0.68806,14.71667 -0.70151,19.66667 -0.0135,4.95 -0.25506,11.07746 -0.5369,13.61658 -0.46633,4.20118 -0.73108,4.80559 -2.942384,6.7171 -1.33647,1.15529 -4.165469,2.64511 -6.286664,3.31072 -2.121196,0.66561 -4.606719,1.46753 -5.523385,1.78205 -4.840657,1.66089 -22.885351,2.3087 -33.342606,1.197 z m 28.241861,-4.99293 c 7.561801,-1.32271 12.714939,-3.26307 14.418902,-5.42931 0.97298,-1.23695 1.348509,-2.7104 1.348509,-5.29111 0,-1.96722 -0.136677,-3.57677 -0.303727,-3.57677 -0.16705,0 -1.375892,0.72759 -2.686315,1.61687 -2.52124,1.71096 -5.926584,2.71167 -13.009957,3.82317 -5.59975,0.87869 -33.199364,0.43929 -34.999999,-0.55722 -0.733333,-0.40584 -3.048111,-1.23261 -5.143951,-1.83726 -2.095839,-0.60465 -3.988545,-1.38726 -4.206011,-1.73913 -0.217467,-0.35187 -0.752689,-0.64017 -1.189382,-0.64067 -1.146888,-0.001 -0.596766,7.37372 0.654784,8.77815 1.377589,1.54586 6.956551,3.59767 12.88456,4.73863 7.033584,1.35374 24.787739,1.41689 32.232587,0.11465 z m -34.232587,-2.53427 c -5.283956,-0.94612 -8.91833,-2.93223 -9.22311,-5.04023 -0.326634,-2.25915 0.770306,-3.0594 3.019353,-2.2027 1.028733,0.39187 2.995424,0.89877 4.370424,1.12646 3.19683,0.52936 3.224569,1.54522 0.04951,1.81331 -2.385803,0.20145 -2.4078,0.22756 -0.833333,0.98932 0.889434,0.43032 3.335726,1.29436 5.436205,1.9201 2.100479,0.62573 3.657774,1.39865 3.460655,1.71759 -0.426479,0.69006 -0.694291,0.67625 -6.279707,-0.32385 z m 33.892311,-0.63316 c 0.485859,-0.58542 2.231953,-1.26664 3.880208,-1.51381 2.742639,-0.41128 2.963123,-0.58369 2.599452,-2.03267 C 88.710944,176.27764 88.897319,176 90.101468,176 c 0.803114,0 1.989926,-0.47938 2.637359,-1.0653 0.647434,-0.58592 1.496056,-0.86822 1.885827,-0.62733 0.808883,0.49992 0.928752,2.98691 0.198467,4.11771 -0.797812,1.23535 -5.117372,2.76579 -9.271017,3.28475 -3.504077,0.4378 -3.791638,0.38208 -2.993128,-0.58007 z m 2.027496,-9.07121 c 5.447313,-0.90627 11.1596,-3.18795 12.840609,-5.12896 1.166486,-1.3469 1.26278,-3.0719 3.605939,-64.59625 0.53065,-13.933338 1.24589,-31.783338 1.58941,-39.666672 0.97536,-22.382983 0.93966,-24.236518 -0.45577,-23.663937 -0.64166,0.263293 -3.716664,1.098529 -6.83333,1.856081 -5.136382,1.248473 -7.725421,1.378278 -27.666666,1.387105 -22.53726,0.01 -25.294209,-0.247367 -34.759673,-3.244586 -1.423674,-0.450803 -1.425774,-0.432524 -1.122936,9.773511 0.378929,12.770348 1.296233,37.08849 2.573522,68.225158 0.541491,13.2 1.172909,29.72656 1.403151,36.72569 l 0.418624,12.72569 2.937495,1.77431 C 40.732469,169.20156 42.477999,170 42.995802,170 c 0.517802,0 1.630575,0.312 2.472828,0.69332 5.386789,2.43884 27.934687,3.22577 39.117842,1.36523 z m -42.464158,-5.89188 c 0.151549,-0.80337 1.360452,-1.43786 3.882216,-2.03758 l 3.662135,-0.87091 -0.184814,-9.46242 c -0.223785,-11.45769 0.911304,-11.25188 1.680937,0.30479 l 0.503877,7.56612 7.894417,-0.23585 c 4.341929,-0.12972 9.591929,0.0155 11.666666,0.32274 3.48891,0.51662 3.121282,0.58915 -4.894417,0.96562 -12.025276,0.56479 -19.611589,1.71463 -21.806338,3.30513 -2.22433,1.61194 -2.68707,1.63934 -2.404679,0.14236 z m 48.166571,-0.77973 c -0.342222,-0.32497 -1.222222,-0.73517 -1.955555,-0.91156 l -1.333333,-0.32071 1.333333,-0.0671 c 1.48417,-0.0747 3.494168,0.97384 2.936249,1.53176 -0.197159,0.19716 -0.638471,0.0926 -0.980694,-0.23237 z m -48.33809,-3.5536 C 41.886576,161.61581 40.85263,129.45095 40.027441,102 38.557525,53.101412 38.450309,46.212406 39.152444,45.778462 40.201007,45.130415 40.607834,50.743961 41.72919,81.333335 42.287007,96.550002 43.007573,116.2 43.330448,125 c 0.322874,8.8 0.605608,20.725 0.628297,26.5 0.035,8.90723 -0.11044,10.5 -0.958747,10.5 -0.55,0 -1.022141,-0.075 -1.049203,-0.16666 z M 89.716274,138 c 0.27157,-13.21448 1.261684,-48.587634 2.135117,-76.279906 0.366891,-11.632317 0.689465,-15.348576 1.351276,-15.567558 0.706871,-0.233891 0.79397,3.057759 0.466055,17.613242 -0.704852,31.28697 -2.652083,75.832992 -3.623831,82.900892 -0.432794,3.14788 -0.522692,0.77698 -0.328617,-8.66667 z M 85.33333,38.011853 c 11.128144,-1.297373 18,-3.055134 18,-4.604246 0,-0.593082 -5.76219,-2.330705 -11.323783,-3.414755 -7.276608,-1.418335 -24.368652,-2.075003 -35.230975,-1.353557 -13.594981,0.902942 -24.778573,3.046952 -24.778573,4.750309 0,1.323682 10.090076,4.030213 17.999999,4.828265 4.938005,0.498208 30.575049,0.348727 35.333332,-0.206016 z"
       id="path1" />
  </g>
</svg>
