<?xml version="1.0" encoding="UTF-8" standalone="no"?>
<!-- Created with Inkscape (http://www.inkscape.org/) -->

<svg
   version="1.1"
   id="svg1"
   width="126.86596"
   height="154.8056"
   viewBox="-13.9698 0 154.806 154.806"
   xmlns="http://www.w3.org/2000/svg"
   xmlns:svg="http://www.w3.org/2000/svg">
  <defs
     id="defs1" />
  <g
     id="g1"
     transform="translate(-37.966968,-26.294519)">
    <path
       style="fill:currentColor"
       d="m 80.666669,180.6781 c -2.016667,-0.30563 -6.066667,-0.90649 -9,-1.33523 -10.752837,-1.57168 -21.824005,-5.88809 -24.664147,-9.61603 -1.721085,-2.25908 -2.350123,-8.10384 -3.665694,-34.06017 -0.334515,-6.6 -0.91591,-16.5 -1.29199,-22 C 41.668758,108.16667 40.903929,95.266667 40.345218,85 39.786507,74.733333 39.025873,61.533333 38.654921,55.666667 37.528525,37.852569 37.588905,37.102599 40.331499,34.841921 54.446322,23.207291 150.82728,23.546439 162.55961,35.27202 l 2.27332,2.27202 -0.44095,5.434547 c -0.49032,6.042924 -1.30833,21.216981 -2.33719,43.354746 -0.3749,8.066667 -1.00852,19.316667 -1.40805,24.999997 -0.39952,5.68334 -1.00663,16.03334 -1.34912,23 -1.98151,40.30546 -1.4666,39.3211 -22.96428,43.90175 -2.56667,0.5469 -6.31667,1.35948 -8.33334,1.80575 -4.37372,0.96786 -41.824954,1.47208 -47.333331,0.63727 z M 123,175.60751 c 23.98217,-2.92119 29.30476,-5.77851 29.94081,-16.07311 0.22205,-3.59392 0.53887,-8.39815 0.70404,-10.67608 l 0.30032,-4.14167 -2.63925,1.37565 c -1.45159,0.75661 -2.65823,1.42037 -2.68142,1.47501 -0.86551,2.03931 -0.9111,14.99519 -0.0562,15.97825 3.35517,3.85823 -7.87215,8.25067 -24.48824,9.58048 -5.64228,0.45156 -6.77518,-1.11073 -1.36007,-1.87557 5.06172,-0.71491 10.91069,-2.08764 11.78003,-2.76471 1.29894,-1.01164 1.18097,-17.42848 -0.12165,-16.92862 -0.52524,0.20156 -2.77937,0.57287 -5.00917,0.82514 -4.67824,0.52929 -4.41036,0.0244 -5.01972,9.46088 -0.44869,6.94836 -0.75796,8.15684 -2.08745,8.15684 -0.74219,0 -0.92867,-1.60641 -0.92867,-8 v -8 l -4.16667,0.0102 c -5.64046,0.0138 -5.5,-0.23562 -5.5,9.76757 0,8.01246 -0.35239,10.42539 -1.37343,9.40435 -0.20538,-0.20539 -0.66069,-3.48039 -1.01178,-7.27778 -0.35109,-3.79739 -0.79664,-7.87935 -0.99011,-9.07102 l -0.35176,-2.16666 h -6.56455 -6.564545 L 94.37789,161.5 c -0.237933,3.75833 -0.596663,7.95833 -0.797178,9.33333 l -0.364573,2.5 H 86.26756 c -17.270777,0 -37.730799,-5.83822 -32.008445,-9.13354 1.92724,-1.10983 0.584688,-16.15912 -1.521321,-17.05319 -0.955786,-0.40576 -2.229287,-1.14591 -2.830001,-1.64478 -1.487221,-1.23508 -0.955103,18.60988 0.561408,20.93731 1.122165,1.72221 6.698477,4.59253 10.864134,5.59214 1.65,0.39595 4.8,1.16144 7,1.7011 13.641353,3.34624 36.228685,4.12102 54.666665,1.87514 z m -31.046535,-5.76978 c -0.341071,-1.18924 -0.620129,-5.23924 -0.620129,-9 V 154 h -5.333334 -5.333333 v 8 c 0,4.4 -0.0099,8.225 -0.02208,8.5 -0.02757,0.62433 3.932281,1.28094 8.475542,1.4054 L 92.573595,172 Z m -14.444924,-9.47205 -0.508539,-7.30098 -4,-0.76437 c -2.2,-0.4204 -4.45,-0.88496 -5,-1.03235 -0.852311,-0.2284 -0.964074,0.73573 -0.756746,6.52813 0.40333,11.2684 0.313059,11.08284 5.781371,11.88397 5.531933,0.81044 5.232473,1.43251 4.483914,-9.3144 z m -6.554079,-3.10603 c -0.534516,-0.86487 -0.301033,-1.0746 1.515241,-1.36113 0.808336,-0.12752 1.505586,0.0533 1.549445,0.40181 0.116831,0.92837 -2.564988,1.76785 -3.064686,0.95932 z M 64.436142,162.5 c -0.235482,-3.025 -0.429947,-6.93442 -0.432144,-8.68759 -0.0025,-1.99007 -0.317066,-3.26698 -0.83733,-3.39892 -0.458333,-0.11624 -1.808333,-0.53076 -3,-0.92117 l -2.166666,-0.70983 v 8.17209 c 0,8.69361 0.371133,9.76308 3.666666,10.56593 3.239131,0.78911 3.223878,0.81676 2.769474,-5.02051 z m 76.974948,4.39111 c 2.59565,-1.03858 2.69162,-1.16815 1.51349,-2.04323 -1.22096,-0.90689 -1.21385,-0.97047 0.24209,-2.16464 1.363,-1.11793 1.5,-1.80588 1.5,-7.53205 v -6.30175 l -2.95377,0.97242 -2.95377,0.97242 -0.35486,4.10286 c -1.29777,15.00469 -1.59131,13.83377 3.00682,11.99397 z M 89.99751,150.16667 c -0.0014,-0.275 -0.60137,-1.48225 -1.333333,-2.68278 -1.569981,-2.57501 -1.609149,-2.81722 -0.455569,-2.81722 1.003462,0 4.14379,3.18168 4.592571,4.65305 0.214461,0.70312 0.656101,0.41596 1.537935,-1 0.680393,-1.09251 1.973039,-2.79518 2.872546,-3.78371 1.292677,-1.42061 1.783553,-2.99259 2.341993,-7.5 0.38859,-3.13647 0.947987,-5.70268 1.243107,-5.70268 0.65679,0 0.52491,-0.66467 1.13747,5.73273 0.45142,4.7145 0.77667,5.68698 2.56411,7.66667 1.12592,1.247 2.65879,3.01727 3.40639,3.93394 l 1.35928,1.66666 1.17248,-1.66666 c 4.25612,-6.05001 6.46369,-6.56968 9.98959,-2.35158 l 2.49245,2.98176 1.58348,-2.22552 c 1.11574,-1.56813 1.65863,-3.38428 1.83792,-6.14842 0.13994,-2.1576 0.56304,-9.17291 0.94022,-15.58958 0.81326,-13.83528 1.33175,-18 2.24095,-18 1.25406,0 0.0814,33.81233 -1.24533,35.90613 -0.61354,0.9683 -0.71658,1.38554 -0.22898,0.92721 1.05501,-0.99169 4.61988,-1.12029 4.61988,-0.16667 0,0.36667 -0.39387,0.66667 -0.87527,0.66667 -0.4814,0 -1.71442,0.87588 -2.74005,1.9464 l -1.86477,1.94641 2.90671,-0.33463 c 4.18233,-0.48148 4.51022,-0.6557 4.11054,-2.18407 -0.27479,-1.0508 -0.0444,-1.37411 0.97937,-1.37411 2.46029,0 5.00829,-10.97892 2.85662,-12.30873 -0.38751,-0.23949 -0.36696,-1.13293 0.0538,-2.33996 0.37437,-1.0739 1.18145,-9.09227 1.79352,-17.8186 1.85835,-26.494672 3.34229,-19.480552 2.21633,10.47596 -0.55584,14.78839 -0.50776,16.51267 0.5109,18.32248 2.85718,5.07625 5.38562,1.15805 5.38562,-8.34584 0,-3.66307 0.29516,-6.75571 0.66667,-6.98531 0.42919,-0.26526 0.67067,2.27355 0.6779,7.12732 l 0.0112,7.53934 1.48877,-2.33084 c 0.81882,-1.28197 1.99703,-2.84023 2.61825,-3.46282 1.51316,-1.51649 1.66668,-2.88176 2.497,-22.20634 0.96227,-22.395503 1.80796,-38.026254 2.68715,-49.666663 1.65537,-21.91668 2.47601,-19.293208 -5.31363,-16.986886 -22.42549,6.639635 -92.41981,5.751377 -108.318763,-1.374611 -2.618398,-1.173578 -2.486521,-2.075847 -1.671855,11.438399 2.21918,36.813306 2.663714,44.504101 3.309467,57.256431 1.304715,25.76553 1.180305,24.8368 3.694576,27.58034 2.606562,2.84425 3.355404,2.52295 2.372218,-1.01783 -0.900174,-3.24182 -0.937506,-12.6821 -0.05232,-13.22918 0.366667,-0.22661 0.667625,-0.16931 0.668797,0.12733 0.0057,1.44361 2.130809,12.46886 2.683624,13.92288 0.611478,1.60831 0.681722,1.62483 2.326519,0.54711 2.111213,-1.38332 2.608963,-0.9586 1.564104,1.33462 -0.916244,2.01093 -0.456804,2.68841 2.256956,3.32803 1.526293,0.35973 1.833334,0.21193 1.833334,-0.88256 0,-1.4729 -1.33442,-4.71155 -1.940344,-4.70924 -0.216144,8.3e-4 -0.280575,-2.17417 -0.143179,-4.83333 0.137396,-2.65916 -0.128781,-12.59168 -0.591504,-22.07227 -0.714364,-14.636383 -0.701761,-17.324143 0.08352,-17.812035 1.32659,-0.824203 1.641069,1.269054 2.539488,16.903525 0.824046,14.34021 1.743352,20.88682 3.042468,21.6662 0.439815,0.26386 1.33139,1.30474 1.981279,2.31308 1.625814,2.52253 -0.281796,2.58741 -2.256678,0.0768 -1.612751,-2.05028 -1.589746,-2.11385 -1.660515,4.58837 -0.06081,5.75883 0.510133,6.33831 2.784924,2.82661 1.832509,-2.82893 2.078017,-2.84669 4.493871,-0.32508 3.005162,3.13672 3.500514,2.67545 2.787043,-2.59528 -0.792984,-5.85812 0.07475,-25.19989 1.0201,-22.73805 0.352001,0.91667 0.908361,7.94563 1.236355,15.61993 0.652876,15.27577 0.954628,16.3397 3.706669,13.06908 1.0039,-1.19307 2.188444,-2.53238 2.63232,-2.97626 0.443876,-0.44387 0.938447,-1.38583 1.099047,-2.09323 0.256918,-1.13166 0.396999,-1.06934 1.165945,0.51869 0.806905,1.66643 0.713311,1.98783 -1.2201,4.18987 -2.630813,2.99633 -2.620913,3.52206 0.07262,3.85632 3.958457,0.49124 5.16669,0.48709 5.164174,-0.0177 z m 24.66916,-9.79399 c 0,-1.39182 1.38304,-2.03371 2.06433,-0.95809 0.90378,1.4269 0.7164,1.91874 -0.731,1.91874 -0.73333,0 -1.33333,-0.43229 -1.33333,-0.96065 z m 34,-17.70601 c 0,-0.36667 0.3,-0.66667 0.66667,-0.66667 0.36666,0 0.66666,0.3 0.66666,0.66667 0,0.36666 -0.3,0.66666 -0.66666,0.66666 -0.36667,0 -0.66667,-0.3 -0.66667,-0.66666 z m -93.775864,-8 c 0,-2.75 0.117678,-3.875 0.261508,-2.5 0.143829,1.375 0.143829,3.625 0,5 -0.14383,1.375 -0.261508,0.25 -0.261508,-2.5 z M 128.66667,102.03934 C 128.66667,99.790893 128.96224,98 129.33334,98 129.7,98 130,99.632295 130,101.62732 c 0,1.99503 -0.3,3.81273 -0.66666,4.03935 -0.41643,0.25736 -0.66667,-1.10419 -0.66667,-3.62733 z m -74.846476,0.16973 C 53.235463,101.30779 52.33612,92.742723 51.34821,78.666667 50.975067,73.35 50.34305,65.15102 49.943729,60.446711 c -0.746595,-8.795466 -0.668906,-9.534306 0.937713,-8.917789 0.676519,0.259605 1.057028,2.192471 1.361442,6.915692 2.581685,40.056932 2.782244,45.621686 1.57731,43.764456 z m 93.290916,-2.653514 c -0.62407,-0.624077 -0.55301,-7.616686 0.19938,-19.618749 0.3541,-5.648577 0.8343,-14.09514 1.06713,-18.77014 0.72092,-14.47601 1.84797,-10.382745 1.3767,5 -0.81749,26.684103 -1.44326,34.588833 -2.64321,33.388889 z m -43.59995,48.308544 -2.80257,-2.80257 -1.748841,1.6359 c -3.792841,3.5479 -3.562105,3.96924 2.173661,3.96924 h 5.18032 z m 16.45466,1.69773 c 0.16453,-0.14918 -0.68091,-1.23662 -1.87875,-2.41653 l -2.1779,-2.1453 -1.95458,2.30815 c -1.07502,1.26948 -1.95459,2.56607 -1.95459,2.8813 0,0.53744 7.31667,-0.039 7.96582,-0.62762 z M 74.513523,147.8739 c -0.750131,-2.2504 -3.745719,-3.50541 -5.208114,-2.18196 -1.315786,1.19077 -1.328215,1.30927 -0.222166,2.11803 1.507395,1.10224 5.793201,1.15269 5.43028,0.0639 z m 67.134047,-2.11083 c 1.37173,-1.00303 0.99991,-3.0964 -0.54997,-3.0964 -0.8271,0 -3.0976,2.67043 -3.0976,3.64321 0,0.70409 2.43635,0.33886 3.64757,-0.54681 z m 9.68577,-4.0964 c 0.67971,-0.81901 0.63415,-1 -0.25171,-1 -0.59489,0 -1.08163,0.45 -1.08163,1 0,0.55 0.11327,1 0.25171,1 0.13843,0 0.62517,-0.45 1.08163,-1 z M 124,45.326514 c 16.86953,-1.115777 30.92251,-3.568852 34.71452,-6.059735 3.12366,-2.051864 -7.52115,-5.101023 -23.04785,-6.601955 C 132,32.310376 126,31.714084 122.33334,31.339731 c -18.48266,-1.887008 -61.837061,0.547256 -72.983923,4.097903 -7.110734,2.265005 -7.664595,3.09632 -3.182749,4.77713 12.590764,4.721867 48.285116,7.066115 77.833332,5.11175 z"
       id="path15" />
  </g>
</svg>
