<?xml version="1.0" encoding="UTF-8" standalone="no"?>
<!-- Created with Inkscape (http://www.inkscape.org/) -->

<svg
   version="1.1"
   id="svg1"
   width="100.3783"
   height="164.14122"
   viewBox="-31.8815 0 164.141 164.141"
   xmlns="http://www.w3.org/2000/svg"
   xmlns:svg="http://www.w3.org/2000/svg">
  <defs
     id="defs1" />
  <g
     id="g1"
     transform="translate(-26.683818,-12.327713)">
    <path
       style="fill:currentColor"
       d="m 61.666665,176.03337 c -9.568656,-1.21902 -14.965948,-2.88105 -18.833333,-5.79952 -1.790607,-1.35125 -2.166667,-2.08357 -2.166667,-4.21925 0,-4.75629 4.930505,-7.42049 18,-9.72628 8.287694,-1.46216 7.779267,-1.26102 8.960253,-3.5448 2.932383,-5.6706 3.97312,-32.58301 2.035782,-52.64329 -0.981545,-10.163469 -1.971666,-14.486633 -4.112681,-17.95719 -1.365677,-2.213746 -7.633867,-8.809709 -8.371928,-8.809709 -1.023895,0 -10.868503,-6.253429 -14.071341,-8.938308 C 36.845341,59.146202 30.601676,49.010601 28.695103,40.999999 26.482781,31.704771 26.038723,23.193188 27.646359,20.897967 c 5.084177,-7.25868 46.225788,-10.9264431 77.624721,-6.920222 11.43328,1.458783 20.01058,4.678567 21.40015,8.033275 1.05515,2.547362 -0.16439,15.208856 -2.00491,20.815363 -4.40354,13.413854 -12.99581,22.957318 -27.04196,30.035615 -5.552558,2.798107 -9.706884,8.408723 -12.196038,16.471333 -1.799304,5.828121 -2.670389,37.114779 -1.445608,51.921719 0.466762,5.64289 1.019466,8.37759 2.155818,10.66666 1.47468,2.97061 1.656387,3.09496 5.194798,3.55504 12.91958,1.67987 20.84096,4.76458 21.82497,8.49899 1.40455,5.33036 -2.577,8.40091 -14.071962,10.85222 -6.684577,1.42549 -29.837679,2.17132 -37.419673,1.20541 z m 34.333332,-5.0201 c 7.353163,-1.47131 13.333333,-3.9268 13.333333,-5.47475 0,-1.56481 -6.36438,-3.99497 -12,-4.58206 l -3.666666,-0.38198 1.833333,1.2005 c 2.057412,1.34724 2.575221,3.33581 0.666666,2.56024 -0.641666,-0.26075 -2.066666,-0.73833 -3.166666,-1.06129 -1.1,-0.32296 -2.655937,-0.93221 -3.457638,-1.35388 -1.17638,-0.61875 -1.667953,-0.55637 -2.547619,0.3233 -1.364138,1.36414 -2.994743,1.41313 -2.994743,0.09 0,-0.55 0.432295,-1 0.960656,-1 1.889051,0 1.822981,-1.48301 -0.158497,-3.5576 -1.10792,-1.15999 -2.469569,-3.21787 -3.025888,-4.57307 -1.809012,-4.40679 -2.715969,-15.02507 -2.722111,-31.86933 -0.006,-16.57744 0.853126,-27.594822 2.720291,-34.883081 1.178068,-4.59845 1.816853,-5.898155 4.433317,-9.020261 1.03094,-1.230172 1.772805,-2.338306 1.64859,-2.462521 -0.124214,-0.124214 -1.56771,0.08618 -3.207768,0.467538 -3.185238,0.740659 -16.099341,0.387098 -18.310225,-0.501295 -1.04472,-0.419797 -0.863812,0.05272 0.847376,2.213269 5.76079,7.273591 6.830982,13.231968 7.277793,40.519681 0.385139,23.52123 -0.173232,29.58957 -3.413699,37.09989 -0.702589,1.62836 3.517687,2.84036 8.039731,2.30888 2.886987,-0.33931 3.577101,-0.23219 3.577101,0.5552 0,2.25224 -10.128082,2.19851 -11.869293,-0.063 -0.650205,-0.84448 -1.046812,-0.97783 -1.255704,-0.42219 -0.568212,1.51141 -6.520754,5.30696 -10.131936,6.46048 -4.772897,1.5246 -6.132044,0.39345 -1.863652,-1.55103 1.67185,-0.76162 3.244123,-1.71548 3.493941,-2.11969 0.319445,-0.51687 0.08418,-0.54451 -0.792904,-0.0932 -0.685915,0.35298 -2.579776,0.84568 -4.20858,1.09488 -4.159718,0.63643 -9.520763,2.40663 -10.705204,3.53481 -0.883413,0.84146 -0.78552,1.12559 0.839662,2.43712 2.103762,1.69775 5.620303,2.81715 14.160337,4.50761 4.877513,0.96547 8.307334,1.13244 18.333333,0.89245 7.044142,-0.16862 14.4776,-0.72427 17.333333,-1.29568 z m -36.333332,-2.03199 c -6.639082,-1.1039 -8.973489,-1.79235 -8.978706,-2.64795 -0.0066,-1.08682 5.83781,-0.69884 13.083428,0.86854 3.724264,0.80564 7.624264,1.46939 8.666666,1.475 1.468685,0.008 1.670196,0.15567 0.895278,0.65646 -1.352753,0.87421 -7.197118,0.72367 -13.666666,-0.35205 z m 24.046146,0.42672 c -0.201231,-0.3256 0.456064,-0.73343 1.460655,-0.9063 1.004592,-0.17286 4.946882,-0.97138 8.760643,-1.77449 6.986401,-1.47121 9.334421,-1.57937 9.592291,-0.44185 0.17714,0.78137 -2.35435,1.50597 -9.526403,2.72679 -6.536382,1.11261 -9.767364,1.23694 -10.287186,0.39585 z M 71.472845,80.956015 c -0.810066,-0.567392 -1.472847,-1.314611 -1.472847,-1.660486 0,-0.930847 1.563393,-0.76302 3.039246,0.326255 1.923978,1.42002 0.40423,2.714513 -1.566399,1.334231 z m 7.860486,-0.156017 c 0,-0.942117 1.563471,-2.133333 2.8,-2.133333 1.388461,0 1.543438,0.723228 0.4,1.866666 -0.897428,0.897428 -3.2,1.089309 -3.2,0.266667 z M 92.314493,69.694859 c 9.946877,-3.327654 18.369217,-9.790613 23.069737,-17.70277 3.3851,-5.697964 6.38098,-14.124046 6.96683,-19.594576 l 0.45377,-4.237216 -3.90242,1.321878 c -8.75693,2.966266 -20.364972,4.073985 -42.569079,4.062234 -17.986375,-0.0095 -21.814702,-0.198112 -29.518719,-1.45417 -4.868629,-0.793778 -10.343629,-2.009988 -12.166666,-2.702687 -1.823038,-0.6927 -3.346402,-1.063277 -3.385255,-0.823504 -0.4623,2.85299 1.726985,12.823762 3.890996,17.720965 5.019955,11.360261 15.711808,20.460939 28.179644,23.985914 5.312862,1.502081 6.796945,1.635408 15.666666,1.407457 6.524258,-0.167672 8.980354,-0.533569 13.314496,-1.983525 z M 64.666665,67.535741 c -5.903596,-1.0013 -14.973863,-6.356632 -19.321244,-11.407787 -3.281489,-3.812712 -6.380614,-9.978157 -7.269115,-14.461288 -0.90835,-4.58328 0.05544,-5.093335 1.576933,-0.834538 3.918898,10.969387 13.222327,20.358935 23.888635,24.109768 2.268635,0.797771 4.72479,1.803082 5.458124,2.234025 1.222743,0.718544 1.167448,0.777684 -0.666667,0.713017 -1.1,-0.03878 -2.75,-0.197722 -3.666666,-0.353197 z m 40.007895,-12.04258 c -0.004,-0.462093 1.0421,-2.334017 2.32544,-4.159829 1.28333,-1.825812 2.33333,-3.622736 2.33333,-3.993163 0,-0.370427 0.3,-0.673504 0.66667,-0.673504 0.36666,0 0.66666,-0.379442 0.66666,-0.843206 0,-0.463763 0.6,-1.962676 1.33334,-3.330917 0.73333,-1.368241 1.33333,-2.938798 1.33333,-3.490127 0,-0.551329 0.3395,-1.002416 0.75445,-1.002416 1.19967,0 0.27349,4.753751 -1.68645,8.655906 -1.79376,3.571292 -7.71264,10.340829 -7.72677,8.837256 z m -0.008,-27.114341 c 8.23804,-1.336021 15.3644,-3.052319 16.84789,-4.057615 0.93566,-0.634055 1.00495,-0.946177 0.33333,-1.501415 -5.96737,-4.933299 -42.497231,-7.988922 -65.847882,-5.507996 -13.229914,1.405632 -24.666666,4.14654 -24.666666,5.91156 0,2.18466 16.410599,5.749244 29.333333,6.371562 11.064736,0.532842 37.766429,-0.205154 43.999995,-1.216096 z"
       id="path1" />
  </g>
</svg>
