<?xml version="1.0" encoding="UTF-8" standalone="no"?>
<!-- Created with Inkscape (http://www.inkscape.org/) -->

<svg
   version="1.1"
   id="svg1"
   width="232"
   height="192"
   viewBox="0 -20 232 232"
   xmlns="http://www.w3.org/2000/svg"
   xmlns:svg="http://www.w3.org/2000/svg">
  <defs
     id="defs1" />
  <g
     id="g1">
    <path
       style="fill:currentColor"
       d="m 106,180.38213 c -17.579338,-1.28881 -29.927976,-4.55319 -33.75,-8.92185 -2.955733,-3.37848 -2.838585,-5.02554 0.602165,-8.46629 3.197877,-3.19788 10.212578,-5.54098 21.908645,-7.31809 L 102.5,154.5 l 2.5,-5 c 2.44444,-4.88889 2.5,-5.5 2.5,-27.5 0,-26.798297 -0.95871,-31.512039 -7.80017,-38.351686 C 96.190242,80.139657 94.1217,79.071969 87.113628,77.151879 63.586684,70.705907 49.939567,59.631334 44.076666,42.227581 41.458172,34.4547 41.307449,25.928184 43.75,23.74783 47.601173,20.310065 58.189414,17.894812 82,15.022734 c 10.984964,-1.325028 55.70155,-1.323684 67.43228,0.002 22.21301,2.510331 33.29937,5.213292 37.52338,9.148562 2.0487,1.908654 2.2069,2.710295 1.62234,8.220782 -2.24061,21.121422 -16.61215,35.775118 -43.43442,44.287145 -16.789,5.327978 -20.41909,10.138008 -22.2794,29.521227 -1.20091,12.51269 -0.56239,35.1915 1.15753,41.11245 1.72763,5.94752 3.73149,7.27269 13.06018,8.63672 9.11632,1.33298 17.0747,3.9751 20.03032,6.6499 2.40139,2.17323 2.47978,7.59861 0.13779,9.53659 -3.63803,3.01046 -9.78414,5.05451 -20.25,6.73469 -7.36123,1.18176 -24.2512,2.00409 -31,1.5093 z m 23.78941,-5.41477 c 11.15894,-1.18666 22.33439,-4.20668 24.29107,-6.56433 1.14759,-1.38277 1.05724,-1.8293 -0.61823,-3.05528 -2.04678,-1.49768 -9.45481,-3.76405 -15.46225,-4.73042 l -3.5,-0.56302 3,1.63777 c 1.81046,0.98837 2.48308,1.81077 1.69633,2.07407 -2.39119,0.80026 -7.95287,-0.79033 -11.73285,-3.3555 -2.63925,-1.79104 -4.05004,-2.22409 -4.80058,-1.47355 -1.45368,1.45368 -13.23668,1.34603 -15.62053,-0.14271 -1.57218,-0.98184 -2.27248,-0.89612 -3.77303,0.46186 C 100.72038,161.56303 94.605079,164 91.365452,164 c -3.190927,0 -2.451808,-1.02777 1.956318,-2.72032 l 3.17823,-1.22032 -4,0.5521 c -6.039374,0.83357 -13.759025,3.12413 -15.962253,4.73629 -2.720802,1.99087 -0.850648,4.05544 5.620539,6.20482 11.9414,3.9663 30.161494,5.27254 47.631124,3.41479 z M 94,172.03702 c -8.07269,-1.24813 -13,-3.02293 -13,-4.68255 0,-1.098 0.524901,-1.35515 1.75,-0.85731 3.789264,1.53982 7.792549,2.47274 15.357357,3.57887 4.340953,0.63473 7.892643,1.55228 7.892643,2.03901 0,0.99675 -5.27023,0.96248 -12,-0.078 z m 30.54247,0.0317 c -0.39517,-0.63941 0.26705,-1.07401 1.64851,-1.08187 1.26996,-0.007 6.57536,-0.89338 11.78979,-1.96923 10.48332,-2.16295 14.91435,-1.15647 5.90254,1.34072 -7.5002,2.07832 -18.5116,3.0521 -19.34084,1.71038 z M 120,164.94569 c 1.925,-0.55872 4.52159,-1.53098 5.77021,-2.16057 1.71169,-0.86309 2.55635,-0.85856 3.43333,0.0184 1.83658,1.83658 0.22487,2.54975 -6.47459,2.86494 -5.60179,0.26356 -5.87655,0.19078 -2.72895,-0.72279 z m 1.32246,-8.51594 c 1.28465,-0.49296 1.29876,-0.93123 0.10414,-3.23387 -2.94702,-5.68038 -3.64427,-13.39052 -3.17608,-35.12059 0.50494,-23.436079 1.34002,-28.049765 6.23968,-34.473561 L 127.23738,80 h -12.29301 -12.293 l 2.12547,2.262457 c 1.16901,1.244351 3.10063,4.466964 4.29249,7.161363 4.94446,11.17778 4.98704,51.87832 0.0659,63.00335 L 107.11246,157 h 6.36198 c 3.49909,0 7.0307,-0.25661 7.84802,-0.57025 z M 109.75,84.919901 c -2.86382,-1.668024 -1.99415,-2.900975 1.24881,-1.77047 1.64935,0.574966 2.74779,1.451557 2.44099,1.94798 -0.70439,1.139728 -1.49341,1.101769 -3.6898,-0.17751 z m 7.84037,0.226327 c -0.58322,-0.943683 4.36139,-3.527797 5.18136,-2.707835 C 123.54834,83.215005 120.94042,86 119.43657,86 c -0.72519,0 -1.55598,-0.384197 -1.8462,-0.853772 z M 133.5,74.561242 C 159.34307,69.922335 177.17293,56.984116 182.41174,39.068499 183.28528,36.081173 184,33.312714 184,32.916367 c 0,-0.396347 -2.07505,-0.09613 -4.61122,0.667141 -27.33455,8.22649 -101.669358,8.15837 -129.170879,-0.118371 l -4.342025,-1.306757 0.644814,3.17081 c 3.195332,15.712728 17.736879,29.801354 37.320883,36.158462 13.674921,4.438977 34.776037,5.745023 49.658427,3.07359 z m -8.99211,-3.515241 c 23.07079,-3.580731 38.55286,-11.318051 45.66126,-22.819687 1.21705,-1.969229 2.38909,-3.051582 2.60454,-2.40523 0.61316,1.839462 -3.4704,7.74198 -8.29302,11.987019 C 154.42805,66.656767 140.99817,71.361405 123,72.339238 l -10.5,0.570461 z M 100,71.01913 c 0,-0.590756 1.88918,-0.733587 4.75,-0.359122 C 111.21151,71.505782 111.36518,72 105.16667,72 102.325,72 100,71.558609 100,71.01913 Z M 83.971723,68.123041 C 75.15374,65.30072 66.18313,60.014353 61.826457,55.07287 57.544831,50.216507 54,44.087002 54,41.539838 54,38.794802 55.653929,39.906145 57.42989,43.844523 61.903933,53.766179 73.798147,62.046492 94,69.303284 98.024051,70.74878 88.774245,69.660157 83.971723,68.123041 Z M 157.402,33.520432 c 19.39659,-2.311376 28.435,-5.091065 24.58964,-7.562336 -8.31761,-5.34542 -53.71377,-9.066819 -86.576224,-7.097179 -29.067103,1.742163 -49.194768,5.290742 -48.134925,8.486359 0.855063,2.578169 23.259252,6.358838 47.719509,8.052588 11.19598,0.775265 49.90882,-0.390693 62.402,-1.879432 z"
       id="path1" />
  </g>
</svg>
