<?xml version="1.0" encoding="UTF-8" standalone="no"?>
<!-- Created with Inkscape (http://www.inkscape.org/) -->

<svg
   version="1.1"
   id="svg1"
   width="65.097717"
   height="209.58723"
   viewBox="-72.2448 0 209.587 209.587"
   xmlns="http://www.w3.org/2000/svg"
   xmlns:svg="http://www.w3.org/2000/svg">
  <defs
     id="defs1" />
  <g
     id="g1"
     transform="translate(-36.666668,-16.261736)">
    <path
       style="fill:currentColor"
       d="m 56.666667,224.68933 c -15.519517,-2.31791 -20,-4.57541 -20,-10.07706 0,-4.86914 3.341266,-6.51752 19.973591,-9.85373 3.226348,-0.64716 4.633258,-3.40562 5.747532,-11.2689 1.794298,-12.66213 0.624953,-44.68582 -1.973161,-54.03698 -0.542073,-1.95104 -2.282122,-5.64325 -3.866775,-8.20492 C 46.864722,115.59447 43.761856,105.93738 41.259833,83.666665 40.314818,75.255007 40.879959,33.9308 42.04606,26.17617 c 0.961684,-6.395239 1.321164,-6.765469 8.339001,-8.588346 6.808292,-1.768449 30.563684,-1.768015 37.407413,6.84e-4 7.156928,1.849642 7.487108,2.383079 8.358699,13.504297 0.987876,12.604972 0.977534,51.146847 -0.01554,57.907193 -1.910165,13.003452 -2.727571,16.476662 -5.962103,25.333332 -2.040824,5.58811 -4.072147,9.728 -6.542272,13.33333 -3.781328,5.51914 -6.200298,11.34187 -7.348359,17.68833 -0.912395,5.04369 -1.147462,10.46349 -1.170103,26.97834 -0.0291,21.22987 0.387124,25.67789 2.793133,29.8488 1.105144,1.91581 1.234129,1.96444 10.912677,4.11383 9.017515,2.0026 13.755164,5.32718 12.832144,9.00478 -1.28417,5.11655 -7.638746,7.75979 -23.317418,9.69909 -9.652118,1.19386 -11.80032,1.16308 -21.666665,-0.3105 z m 31,-5.37569 c 9.262479,-2.43896 11.815099,-4.86212 7.193702,-6.82887 -3.836656,-1.63279 -10.282711,-3.28918 -10.765359,-2.76629 -0.235589,0.25523 -0.09589,0.5838 0.31045,0.73016 0.406336,0.14636 1.306336,0.69575 2,1.22086 1.21992,0.9235 1.214117,0.95545 -0.177269,0.97596 -0.791162,0.0117 -2.891162,-0.74238 -4.666667,-1.67565 -8.151226,-4.28459 -9.30784,-7.02124 -10.30262,-24.37695 -0.782113,-13.64536 0.100084,-40.23252 1.534954,-46.25953 0.436468,-1.83333 1.636404,-4.91509 2.666526,-6.84836 1.030122,-1.93326 1.872949,-3.62592 1.872949,-3.76147 0,-0.13554 -1.113432,0.32122 -2.474294,1.01503 -2.703832,1.37849 -7.240219,1.63266 -10.819286,0.6062 -2.790908,-0.80042 -3.176504,-0.50435 -1.911646,1.4678 3.28425,5.12075 4.60031,14.98761 5.004592,37.5208 0.526916,29.36835 -1.984058,37.92213 -12.14475,41.37177 -3.775698,1.28188 -6.417964,0.91923 -3.154616,-0.43297 2.457767,-1.01841 2.945645,-2.28383 0.666667,-1.72916 -0.825,0.2008 -2.85,0.6963 -4.5,1.10113 -6.825773,1.67471 -8.884515,3.65969 -5.833333,5.62434 2.475215,1.59378 10.273323,3.83941 15.377578,4.42829 8.181066,0.94386 24.052948,0.21509 30.122422,-1.38309 z M 49.5,217.15855 c -1.756255,-0.42233 -2.833333,-1.05786 -2.833333,-1.67181 0,-0.78661 0.563985,-0.9003 2.739963,-0.55235 3.748504,0.59941 7.926703,1.94946 7.926703,2.56126 0,0.6848 -4.364825,0.49696 -7.833333,-0.3371 z m 30.166667,0.17478 c 0.226612,-0.36667 1.069317,-0.67103 1.872678,-0.67637 0.80336,-0.005 2.755583,-0.46073 4.338272,-1.01198 C 88.589805,214.70033 90,214.78793 90,215.90107 90,216.60063 84.411499,218 81.617755,218 c -1.405645,0 -2.196171,-0.27012 -1.951088,-0.66667 z m -16.907843,-5.74382 c -2.199894,-1.54087 -0.849357,-2.73158 1.836417,-1.6191 1.930122,0.79948 5.777684,0.67876 10.571426,-0.33171 1.637447,-0.34515 2.166666,-0.22668 2.166666,0.48504 0,2.41795 -11.555833,3.58013 -14.574509,1.46577 z m 3.68562,-72.03396 C 66.2,139.31111 66,138.56861 66,137.90555 c 0,-1.00027 0.368947,-1.13532 2.166667,-0.79313 2.752059,0.52386 2.867785,0.64114 1.846704,1.87147 -0.869647,1.04786 -2.785805,1.35478 -3.568927,0.57166 z m 9.044046,-11.74182 c 4.533536,-1.37898 8.978056,-8.38997 12.138015,-19.14707 C 88.218912,106.65 88.981866,104.1 89.321957,103 c 0.671434,-2.1717 1.707892,-7.974625 2.738681,-15.333335 0.742565,-5.3011 0.802547,-45.565717 0.08144,-54.666666 C 91.604149,26.210976 92.180133,26.612582 85,28.020178 78.163641,29.360381 63.775595,29.54618 55.990393,28.394791 52.145677,27.826178 48.4,27.279736 47.666667,27.180475 c -1.163036,-0.157425 -1.39302,0.330418 -1.800647,3.819524 -0.958147,8.201326 -1.364827,43.173687 -0.585307,50.333333 1.525622,14.012355 3.495113,23.915568 6.032507,30.333328 2.35025,5.94443 3.23539,7.77772 5.27131,10.91789 3.928266,6.0589 10.342776,7.83327 18.90396,5.22918 z m -14.558821,-4.84252 c -1.225272,-1.29917 -2.659267,-3.32417 -3.186656,-4.5 -1.652234,-3.68372 -3.743895,-10.41136 -3.722741,-11.97387 0.01976,-1.45984 0.0399,-1.46395 0.803805,-0.16401 0.430943,0.73333 1.418448,3.13333 2.194456,5.33333 1.775635,5.03397 4.3833,9.18451 6.973524,11.09955 2.364546,1.74818 2.551697,2.56712 0.586661,2.56712 -0.781705,0 -2.423777,-1.06295 -3.649049,-2.36212 z M 79.333333,116.8 c 0,-0.66 0.238383,-1.485 0.52974,-1.83334 0.291356,-0.34833 1.03589,-2.28333 1.654519,-4.3 2.649803,-8.63808 4.228329,-18.163243 5.413577,-32.666662 0.590741,-7.228667 0.932312,-8.999999 1.735498,-8.999999 1.503192,0 1.631365,7.599086 0.309228,18.333333 -1.474295,11.969588 -4.414005,22.711618 -7.773649,28.405798 -1.514751,2.56731 -1.868913,2.76834 -1.868913,1.06087 z m 8.29425,-50.328121 c -0.753242,-1.962917 -0.01303,-5.451089 1.20575,-5.68197 C 89.784875,60.609652 90,61.054575 90,63.202819 c 0,2.861054 -1.654263,5.140538 -2.372417,3.26906 z M 48.666667,64.666665 c 0,-1.1 0.3,-2 0.666666,-2 C 49.7,62.666665 50,63.092129 50,63.61214 c 0,0.520012 0.182097,1.420012 0.404659,2 0.265541,0.691989 0.03635,1.054525 -0.666666,1.054525 -0.745918,0 -1.071326,-0.607487 -1.071326,-2 z m 0,-5.333333 c 0,-0.733333 0.3,-1.333333 0.666666,-1.333333 0.366667,0 0.666667,0.6 0.666667,1.333333 0,0.733333 -0.3,1.333333 -0.666667,1.333333 -0.366666,0 -0.666666,-0.6 -0.666666,-1.333333 z m 0.118372,-14.5 c 0.283318,-11.814481 0.779248,-14.59333 2.423097,-13.577376 0.671621,0.415085 0.706489,1.448074 0.162122,4.803096 -0.381435,2.350854 -0.695785,7.474744 -0.698555,11.386422 -0.0052,7.311336 -0.314276,9.221191 -1.492395,9.221191 -0.4448,0 -0.580425,-4.070554 -0.394269,-11.833333 z m 34.49317,-20.049069 c 3.819681,-0.614678 7.055268,-1.449357 7.190192,-1.854842 0.529274,-1.590608 -7.914665,-2.596088 -21.801734,-2.596088 -13.786432,0 -21.67367,0.974549 -21.13086,2.610933 0.131797,0.39732 2.765157,1.21127 5.851911,1.808777 7.460591,1.444157 21.022321,1.458322 29.890491,0.03122 z"
       id="path1" />
  </g>
</svg>
