<?xml version="1.0" encoding="UTF-8" standalone="no"?>
<!-- Created with Inkscape (http://www.inkscape.org/) -->

<svg
   version="1.1"
   id="svg1"
   width="112.12045"
   height="131.01065"
   viewBox="-9.4451 0 131.011 131.011"
   xmlns="http://www.w3.org/2000/svg"
   xmlns:svg="http://www.w3.org/2000/svg">
  <defs
     id="defs1" />
  <g
     id="g1"
     transform="translate(-57.079503,-35.342885)">
    <path
       style="fill:currentColor"
       d="m 100.33333,166.04775 c -8.838176,-0.81593 -15.268622,-2.00683 -21.665754,-4.01244 -6.756651,-2.11832 -10.713533,-4.51547 -12.591243,-7.628 C 64.761758,152.22825 64.712015,151.81757 62.998865,129 62.448277,121.66666 61.548787,109.81666 61,102.66666 58.36593,68.348084 57.872933,61.794746 57.390168,54.681601 c -0.285625,-4.208452 -0.394234,-8.130053 -0.241353,-8.714669 0.392054,-1.499217 5.240307,-4.496142 9.184518,-5.677368 8.395731,-2.514381 32.185867,-4.969247 47.936807,-4.946522 14.82941,0.0214 36.0962,2.299877 45.39653,4.863693 8.40346,2.316579 10.01672,4.309776 9.4227,11.641885 -0.62116,7.667257 -2.30146,31.095062 -3.0471,42.484711 -0.36006,5.5 -0.97234,13.749999 -1.36061,18.333329 -0.38826,4.58334 -1.03181,13.13334 -1.43009,19 -1.40764,20.73432 -1.49844,21.45133 -2.96991,23.45178 -2.8921,3.93177 -12.14245,7.49571 -25.61499,9.86886 -6.5777,1.15864 -26.57827,1.7764 -34.33334,1.06045 z m 22,-4.71965 c 16.47285,-1.17628 29.28652,-4.37653 33.20238,-8.29238 0.54744,-0.54745 1.19745,-2.87944 1.44446,-5.18221 0.24701,-2.30277 0.59774,-4.71185 0.77939,-5.35351 0.39537,-1.39656 -0.76427,-1.50395 -3.09639,-0.28675 -3.2478,1.69511 -19.41362,5.09197 -24.56781,5.16234 -2.76438,0.0377 -2.91715,0.11477 -1.42869,0.72039 1.13889,0.46339 3.47539,0.45001 7.37848,-0.0423 3.1415,-0.39621 7.3565,-0.72039 9.36667,-0.72039 2.01016,0 3.98871,-0.33386 4.39676,-0.74191 1.21143,-1.21144 2.19142,-0.0197 2.19142,2.66504 0,4.23063 -3.58668,6.24275 -14.33333,8.04096 -2.56667,0.42947 -5.36681,0.92527 -6.22253,1.10177 -0.85572,0.1765 -1.38528,0.0449 -1.17679,-0.29242 0.39851,-0.64482 5.24212,-2.33067 8.87074,-3.08753 2.86456,-0.59749 7.52858,-2.89059 7.52858,-3.70147 0,-0.38862 -3.32588,-0.65111 -8.25,-0.65111 -9.50043,0 -12.64422,-0.44544 -12.15431,-1.72212 0.26907,-0.70116 -2.13166,-0.88112 -12.13012,-0.90929 -11.98482,-0.0338 -17.440978,-0.44347 -26.798907,-2.01236 -5.720569,-0.95908 -14.271068,-3.0976 -15.925562,-3.98306 -2.254146,-1.20638 -2.743241,-0.81931 -2.687453,2.12683 0.09693,5.11895 1.407084,8.65327 3.804272,10.26256 5.876717,3.94517 18.31725,6.3408 38.80874,7.47325 0.91667,0.0507 5.86667,-0.20781 11,-0.57437 z M 87,157.01927 c -5.06387,-0.90833 -8.482875,-2.02544 -10.833333,-3.53964 -1.250223,-0.8054 -1.5,-1.56411 -1.5,-4.55631 0,-3.85049 0.655807,-4.41394 3.039247,-2.61119 0.728727,0.55118 2.750349,0.98525 4.627419,0.99357 5.676972,0.0251 16.374917,1.56932 16.123255,2.32727 -0.143246,0.43142 -3.731529,0.77158 -9.344564,0.88584 C 82.252079,150.65845 80,150.91508 80,151.55718 c 0,1.14176 3.904881,2.77258 10,4.17637 9.025349,2.07866 6.781564,3.04028 -3,1.28572 z m 47,-14.37885 c 2.75,-0.41696 6.95,-1.16218 9.33333,-1.65604 2.38334,-0.49385 5.3049,-1.09045 6.49236,-1.32578 1.18746,-0.23532 2.33017,-0.70477 2.53934,-1.04323 0.20918,-0.33845 0.88762,-0.62204 1.50765,-0.6302 0.62003,-0.008 1.83292,-0.55752 2.69531,-1.22082 1.4074,-1.08248 1.62976,-1.98563 2.17114,-8.81851 1.98491,-25.05197 2.70187,-34.752915 3.27254,-44.279176 0.35145,-5.866666 0.94175,-13.216666 1.31178,-16.333333 0.37004,-3.116666 0.67364,-7.685234 0.67467,-10.152373 0.002,-4.375736 -0.0349,-4.471804 -1.49812,-3.918596 -3.64025,1.376289 -6.49318,2.078591 -11.07757,2.726951 -2.70099,0.381997 -5.11021,0.817721 -5.35381,0.968275 -1.02725,0.634875 -34.77073,2.463862 -38.73529,2.099556 C 104.95,58.838139 98.258941,58.366565 92.464312,58.009203 79.976863,57.239086 68.802713,55.318335 64.167671,53.145228 c -0.824447,-0.386537 -1.651163,-0.550627 -1.837145,-0.364644 -0.365882,0.365881 0.558366,16.381239 1.628545,28.219414 0.364616,4.033333 1.12821,13.483333 1.696876,21.000002 0.568665,7.51666 1.331607,16.51666 1.695426,20 0.363819,3.48333 0.658595,7.74664 0.655058,9.47403 -0.0094,4.58143 1.365107,5.56663 12.660236,9.07453 2.37105,0.73637 9.623,1.82699 18.666666,2.80729 6.504297,0.70504 28.259377,0.25607 34.666667,-0.71543 z m -46.666667,-3.1146 c -2.70865,-0.47553 -11.715645,-3.74951 -12.592512,-4.57729 -0.142549,-0.13457 -0.624894,-3.92804 -1.071878,-8.42994 -0.674392,-6.79227 -0.659458,-8.35058 0.08775,-9.15669 1.550329,-1.67253 2.137305,-0.0179 2.828248,7.97236 0.364671,4.21717 0.864339,8.19217 1.110374,8.83333 C 78.23366,135.57049 80,135.72767 80,134.37267 c 0,-1.78733 1.323126,-1.79223 2.855648,-0.0106 0.997815,1.16003 3.474954,2.43077 7.167885,3.67703 l 5.643134,1.90441 -3.333334,-0.0626 c -1.833333,-0.0344 -4.083333,-0.19423 -5,-0.35516 z m 47.999997,-0.50089 c 0.91667,-0.53773 2.23677,-0.98832 2.93356,-1.00131 1.56015,-0.0291 8.07548,-3.16292 9.07188,-4.36351 0.40059,-0.48268 0.98511,-4.08553 1.29893,-8.00633 0.5675,-7.09028 1.18837,-8.91865 2.70936,-7.97863 0.53872,0.33295 0.64659,1.38235 0.33322,3.24191 -0.25485,1.51228 -0.69292,5.39464 -0.97349,8.62746 -0.31301,3.60662 -0.87895,6.24669 -1.46462,6.83235 -1.1164,1.11641 -6.69293,2.61977 -11.90884,3.21049 -3.44534,0.39019 -3.56606,0.35624 -2,-0.56243 z M 93.333333,118.98929 c -15.835841,-1.71042 -24.666666,-4.69927 -24.666666,-8.3486 0,-1.70136 0.400666,-1.64971 2.788477,0.3595 1.089524,0.91678 2.782831,1.84011 3.762904,2.05187 0.980074,0.21175 2.381952,0.64294 3.115285,0.95821 5.923917,2.54672 36.828517,4.17027 51.999997,2.73178 16.08118,-1.52475 22.49567,-3.36515 24.21233,-6.94683 0.72299,-1.50847 1.07811,-1.71744 1.84169,-1.08373 2.17191,1.80253 0.25154,4.78273 -4.38735,6.80866 -8.74222,3.81797 -38.9169,5.60229 -58.666667,3.46914 z m 56.939497,-9.2399 c -0.56481,-1.47187 0.18661,-2.22329 1.20495,-1.20495 0.60127,0.60127 0.60382,0.97395 0.0107,1.56704 -0.59308,0.59308 -0.8822,0.50696 -1.21569,-0.36209 z m -71.369871,-1.59238 c 0.638636,-1.03333 6.317814,-2.51069 13.763708,-3.58044 C 105.39146,102.74841 142,103.95507 142,106.20266 c 0,0.34412 -0.95498,0.41263 -2.16667,0.15544 -1.19166,-0.25294 -11.31666,-0.61248 -22.5,-0.79897 -18.178205,-0.30314 -21.181248,-0.1986 -28.33333,0.98628 -4.4,0.72894 -8.574213,1.55541 -9.27603,1.83659 -0.862118,0.34541 -1.128433,0.27243 -0.821011,-0.22499 z m -6.514905,-2.32368 c -0.343117,-1.69292 -0.686427,-5.77737 -2.08732,-24.833332 -0.539107,-7.333333 -1.164465,-15.058333 -1.389685,-17.166666 -0.341849,-3.200142 -0.238093,-3.833334 0.628139,-3.833334 1.514859,0 1.705907,1.074924 2.852594,16.049972 1.771433,23.133869 2.198344,30.20119 1.857643,30.75246 -0.624664,1.01073 -1.558662,0.52445 -1.861371,-0.9691 z m 78.467086,-7.999999 c 0.44839,-9.43955 1.78508,-29.253593 2.22625,-32.999999 0.1835,-1.558334 0.61623,-2.833334 0.96162,-2.833334 0.7415,0 0.18111,19.438316 -0.75324,26.127701 -0.34271,2.45357 -0.6231,6.854033 -0.6231,9.778808 0,5.595893 -0.36697,7.426823 -1.48855,7.426823 -0.44206,0 -0.55484,-2.61884 -0.32298,-7.499999 z M 142.30462,52.964572 C 155.28934,51.404003 164,49.16698 164,47.392885 c 0,-5.058715 -41.97841,-9.028392 -71,-6.714096 -16.979271,1.353994 -31,4.341105 -31,6.604538 0,1.350572 10.510641,4.26014 19.666667,5.444148 15.754311,2.037264 44.717383,2.15051 60.637953,0.237097 z"
       id="path1" />
  </g>
</svg>
