<?xml version="1.0" encoding="UTF-8" standalone="no"?>
<!-- Created with Inkscape (http://www.inkscape.org/) -->

<svg
   version="1.1"
   id="svg1"
   width="82.178444"
   height="148.90312"
   viewBox="-33.3623 0 148.903 148.903"
   xmlns="http://www.w3.org/2000/svg"
   xmlns:svg="http://www.w3.org/2000/svg">
  <defs
     id="defs1" />
  <g
     id="g1"
     transform="translate(-25.434023,-23.474287)">
    <path
       style="fill:currentColor"
       d="m 50,171.36386 c -10.421859,-1.52209 -13.083383,-2.22025 -17.444303,-4.57593 -5.931518,-3.20409 -6.19824,-3.88347 -6.279507,-15.99475 -0.0386,-5.75291 -0.306076,-13.6897 -0.594388,-17.6373 -0.440745,-6.03473 -0.335785,-7.77648 0.659252,-10.93996 1.014238,-3.22453 1.074463,-4.35402 0.4212,-7.89941 -0.948952,-5.15015 -0.984963,-14.866884 -0.07337,-19.798128 0.549833,-2.97432 0.464925,-4.711161 -0.420656,-8.604761 -0.856485,-3.765679 -0.987277,-6.098664 -0.573476,-10.229273 0.294833,-2.943057 0.483503,-7.001013 0.419266,-9.017679 -0.346991,-10.8935 0.05666,-32.56855 0.634518,-34.072147 C 27.912199,29.566651 30.307639,28.352254 41,25.369571 c 1.466667,-0.409133 8.138329,-1.088266 14.825916,-1.509184 23.722892,-1.493122 44.997174,1.455648 49.946804,6.922991 1.081,1.194061 1.2783,3.075666 1.65532,15.786134 0.23542,7.936769 0.24701,14.72944 0.0258,15.094823 -0.38482,0.635492 -0.8379,23.715294 -0.60207,30.669001 0.0622,1.833333 0.07,7.683334 0.0173,13.000004 -0.0526,5.31666 -0.0794,11.16666 -0.0594,13 0.02,1.83333 0.0709,12.18333 0.11333,23 0.0752,19.19273 0.0421,19.71568 -1.3739,21.70067 -1.67897,2.35369 -6.62357,5.22378 -10.908356,6.33175 -11.729284,3.033 -31.496586,3.91777 -44.640704,1.9981 z m 36.666667,-5.12242 c 9.860718,-1.78536 13.471253,-3.28517 14.993103,-6.22809 0.99752,-1.92899 1.49402,-12.68001 0.58559,-12.68001 -0.23172,0 -1.43172,0.62447 -2.666671,1.3877 -2.140127,1.32268 -2.245356,1.57262 -2.245356,5.33334 0,3.50118 0.15019,3.94562 1.333334,3.94562 C 99.4,158 100,158.44309 100,158.98464 c 0,2.37549 -7.130011,4.6826 -16.666667,5.39295 -3.483333,0.25946 -6.483333,0.66449 -6.666666,0.90007 -0.593359,0.76244 -30.0305,-0.37482 -30.847429,-1.19175 -0.413914,-0.41392 -1.529087,-0.75257 -2.478163,-0.75257 -1.675043,0 -7.519467,-1.83066 -9.145292,-2.8646 C 33.209045,159.84123 33.816023,158 35.009626,158 c 0.579577,0 0.942677,-1.22307 1.095341,-3.68957 0.223787,-3.61558 0.178519,-3.72253 -2.25734,-5.33333 -1.367139,-0.90407 -2.642139,-1.64376 -2.833333,-1.64376 -0.191195,0 -0.347627,2.48325 -0.347627,5.51833 0,8.69954 1.620573,10.192 14,12.8932 10.566477,2.30562 30.694153,2.54359 42,0.49657 z m -13.260669,-3.49092 c 0.2233,-0.22945 0.265025,-2.41589 0.09272,-4.85876 -0.270061,-3.82889 -0.508407,-4.49262 -1.727834,-4.8115 -1.904364,-0.49801 -0.639658,-1.75267 1.955648,-1.94012 1.92744,-0.13922 1.944732,-0.1073 2.643285,4.87956 0.386734,2.76083 0.883007,5.31083 1.10283,5.66666 0.219822,0.35584 1.921592,0.54348 3.781711,0.41699 l 3.382034,-0.22999 -0.151531,-5.88209 -0.151531,-5.88208 -2,-0.32866 c -1.1,-0.18077 -4.1,-0.9466 -6.666666,-1.70185 -7.302355,-2.14875 -13.19494,-1.76605 -24.666667,1.60197 -1.200792,0.35255 -1.333333,0.96639 -1.333333,6.17514 v 5.78368 l 2.666666,0.47518 c 5.242079,0.9341 5.451931,0.84723 5.913299,-2.44798 0.231019,-1.65 0.6108,-4.36552 0.843958,-6.0345 0.363687,-2.60331 0.624189,-3.00586 1.833333,-2.83301 1.006031,0.14382 1.336792,0.583 1.155681,1.5345 -0.139551,0.73316 -0.387571,3.48853 -0.551155,6.12305 l -0.297426,4.79004 2.551155,0.264 c 3.012696,0.31177 9.04425,-0.1647 9.62382,-0.76023 z m -27.149259,-3.91718 c 0.647174,-4.32677 0.757558,-7.8397 0.240903,-7.66667 -0.273703,0.0917 -2.147642,0.16667 -4.164309,0.16667 h -3.666666 v 3.62732 c 0,3.80208 0.247964,4.17131 3.666666,5.4598 3.1805,1.19872 3.527724,1.05826 3.923406,-1.58712 z m 45.409928,1.32807 c 2.34264,-0.62194 3.000245,-1.59186 2.989791,-4.4097 -0.014,-3.77328 -0.491587,-4.26878 -4.32509,-4.48734 L 87,151.07443 l 0.133369,2.96279 c 0.248519,5.52087 0.827017,7.45747 2.07396,6.94287 0.619302,-0.25558 1.726004,-0.62398 2.459338,-0.81868 z M 48,146.78216 c 1.283333,-0.384 4.283333,-1.19396 6.666667,-1.79991 2.383333,-0.60596 5.254632,-1.37485 6.380665,-1.70866 3.45673,-1.02473 8.317831,-0.66854 15.286001,1.12005 15.285418,3.92347 14.672075,3.83738 18.167845,2.54991 6.874002,-2.53166 8.808672,-6.11417 8.790032,-16.27688 -0.0107,-5.85533 -0.25363,-7.48974 -1.48536,-9.99488 -2.045181,-4.15959 -5.98211,-6.65755 -11.588503,-7.35284 -5.286392,-0.6556 -6.394343,-1.4744 -3.575188,-2.64213 1.958735,-0.81133 5.730198,-0.66388 8.166288,0.31927 1.024694,0.41354 1.161423,-0.21209 1.333333,-6.10098 0.176715,-6.053478 0.294837,-6.561774 1.524887,-6.561774 1.249632,0 1.3351,0.453825 1.361475,7.229314 0.02436,6.2568 0.189944,7.31985 1.230918,7.90241 2.24902,1.25862 2.74094,-0.38039 2.74094,-9.13243 0,-4.794304 -0.28905,-8.555243 -0.68818,-8.954288 -0.47304,-0.472942 -1.60748,-0.233189 -3.628915,0.766935 -1.617407,0.800229 -4.682727,1.580967 -6.811822,1.734971 -4.00013,0.289344 -5.074122,1.368607 -2.704416,2.717692 0.981355,0.55869 1.031227,0.85515 0.313978,1.86646 -0.468979,0.66125 -1.028968,1.72727 -1.244421,2.36894 C 88.020771,105.475 87.627635,106 87.362589,106 c -0.265046,0 -0.806161,0.71167 -1.202477,1.58149 -0.868253,1.90561 -6.28635,4.67989 -8.047842,4.12081 -0.735291,-0.23337 -1.60714,0.0224 -2.099778,0.61598 -0.717946,0.86508 -0.584097,1.01506 0.905878,1.01506 2.289904,0 2.240135,1.18822 -0.08504,2.03025 -1.008333,0.36516 -2.553749,1.03274 -3.434258,1.4835 -0.88188,0.45147 -4.055415,0.81958 -7.065742,0.81958 -4.949102,0 -6.170075,-0.27181 -10.293654,-2.29156 -1.711115,-0.83811 -1.570751,-2.04177 0.238099,-2.04177 C 57.225,113.33334 58,113.07084 58,112.75 c 0,-0.60538 -3.161385,-1.41666 -5.520406,-1.41666 -2.08455,0 -5.738132,-3.15154 -6.981946,-6.02256 -0.821308,-1.89577 -1.568803,-2.6358 -2.808422,-2.7804 -2.58461,-0.30149 -2.12342,-2.13481 0.636538,-2.53038 1.393268,-0.199683 2.40578,-0.752063 2.525332,-1.377703 0.16703,-0.874102 -0.429534,-1.001831 -3.659098,-0.783439 -3.152771,0.213199 -4.462473,-0.04891 -7.159295,-1.432775 -1.815346,-0.93154 -3.465346,-1.52986 -3.666666,-1.3296 -0.689059,0.68543 -0.825517,17.730707 -0.147374,18.408847 0.437003,0.43701 1.318618,0.27267 2.600932,-0.48481 1.923119,-1.13601 1.934946,-1.18119 1.37153,-5.23987 -0.661327,-4.764 -0.123538,-9.093981 1.129481,-9.093981 1.318607,0 1.679394,1.596791 1.679394,7.432781 0,4.75634 0.124342,5.28721 1.166667,4.98102 3.459895,-1.01636 6.266863,-1.13054 8.443478,-0.34347 1.31442,0.47531 2.389855,1.0837 2.389855,1.352 0,0.89289 -2.69031,1.35754 -5.303675,0.91601 -2.044592,-0.34543 -3.349483,-0.0596 -6.280713,1.37567 -4.5833,2.24422 -6.874458,4.74695 -7.726423,8.4399 -0.796554,3.45276 -0.837533,12.44485 -0.0747,16.39151 1.317553,6.81661 8.887622,10.1128 17.385509,7.57007 z M 36.910606,142.1991 c -0.415833,-0.29284 -1.390833,-1.66655 -2.166667,-3.05271 -2.087323,-3.72934 -2.031964,-12.68299 0.09819,-15.88113 1.96683,-2.95293 5.877953,-4.82941 10.123871,-4.85723 4.683922,-0.0307 12.011609,1.29728 16.367331,2.96621 2.016667,0.7727 4.152701,1.5544 4.746742,1.73711 0.594041,0.18271 2.65167,-0.46418 4.572509,-1.43754 2.470163,-1.25173 5.241877,-1.95075 9.469135,-2.3881 3.287185,-0.34008 6.716733,-0.80408 7.621218,-1.03109 2.723101,-0.68345 7.31202,1.00823 9.622522,3.5473 l 2.108015,2.31655 -0.24351,7.67098 c -0.23897,7.52797 -0.279951,7.70233 -2.198205,9.35234 -1.813758,1.56013 -2.317981,1.65684 -6.993227,1.34125 -3.442204,-0.23236 -6.411436,-0.93033 -9.371865,-2.20302 C 76.620825,138.5407 75.714121,138.41566 67,138.3954 c -8.81613,-0.0205 -9.573463,0.0832 -13.666667,1.87155 -3.306304,1.44454 -5.67637,1.96095 -10,2.17891 -3.116666,0.15711 -6.006894,0.0461 -6.422727,-0.24676 z m 50.796748,-4.15414 c -1.09723,-1.21242 -3.040687,-1.22521 -3.040687,-0.02 0,0.47162 1.087051,0.83894 3.603325,1.21759 0.331828,0.0499 0.07864,-0.48898 -0.562638,-1.19759 z M 54.9312,136.40737 c 6.334133,-2.39803 15.148498,-2.44624 23.156995,-0.12665 3.064925,0.88773 5.691413,1.49523 5.83664,1.35 0.451454,-0.45145 -2.867814,-2.91847 -3.958168,-2.94187 -0.568334,-0.0122 -1.348718,-0.33756 -1.734188,-0.72303 -1.147744,-1.14775 -7.632545,-2.61645 -11.565812,-2.61948 -4.038009,-0.003 -9.62015,1.54173 -15.487253,4.28602 -7.515676,3.5154 -4.90896,4.05387 3.751786,0.77501 z m -13.982119,0.41973 c 0.520398,-1.63963 0.265003,-14.16043 -0.288839,-14.16043 -0.249476,0 -1.025088,0.63134 -1.723584,1.40297 -1.015803,1.12218 -1.269991,2.42315 -1.269991,6.50001 0,2.80336 0.215584,5.62202 0.479076,6.26369 0.619149,1.50777 2.324013,1.50398 2.803338,-0.006 z M 95.2,137.2 c 0.486262,-0.48626 0.8,-2.85117 0.8,-6.0303 0,-4.82424 -0.142333,-5.37028 -1.833333,-7.03333 l -1.833334,-1.80303 -0.191331,6.95493 c -0.105232,3.82521 -0.03965,7.35021 0.145744,7.83333 0.420586,1.09603 1.855983,1.13467 2.912254,0.0784 z m -47.10494,-2.91582 c 2.533992,-1.31038 2.220576,-1.69309 -0.963401,-1.1764 -1.447191,0.23485 -2.464992,0.7769 -2.464992,1.31279 0,1.19021 0.934959,1.15301 3.428393,-0.13639 z M 89.170004,134.5 C 88.852217,133.53505 86,132.94348 86,133.84253 c 0,0.95203 0.783029,1.49081 2.166667,1.49081 0.724146,0 1.158869,-0.36107 1.003337,-0.83334 z m -6.503337,-2.42867 c 0,-0.68796 -1.623528,-1.40466 -3.181945,-1.40466 -0.885645,0 -0.847041,0.17083 0.221192,0.9788 1.460156,1.10441 2.960753,1.32024 2.960753,0.42586 z m -27.333334,-1.14908 c 0,-0.14057 -0.767705,-0.25558 -1.706011,-0.25558 -0.938306,0 -1.538007,0.27184 -1.332669,0.60408 0.341556,0.55265 3.03868,0.24332 3.03868,-0.3485 z M 48.9566,129.34984 c 2.425642,-0.92223 2.122452,-1.74964 -0.924519,-2.52305 -2.981068,-0.75667 -3.365414,-0.57193 -3.365414,1.61766 0,1.72729 1.368511,2.01611 4.289933,0.90539 z M 88.834452,129.61 c 0.549834,-0.54984 -0.833357,-4.27666 -1.587259,-4.27666 -0.342305,0 -0.795054,0.45 -1.006109,1 -0.249721,0.65076 -1.285689,1 -2.966375,1 -2.266749,0 -2.636238,-0.22424 -3.020847,-1.83334 -0.241013,-1.00833 -0.541142,-2.02064 -0.666951,-2.24958 -0.226043,-0.41133 -5.651008,0.39915 -7.586911,1.13348 -1.500247,0.56907 3.938272,2.86929 9.55094,4.03957 2.613763,0.54498 4.884068,1.12265 5.045122,1.28371 0.420066,0.42006 1.780195,0.36101 2.23839,-0.0972 z m -15.015008,-0.67944 c -0.221527,-0.22153 -0.796527,-0.24521 -1.277777,-0.0526 -0.531822,0.21282 -0.373851,0.37079 0.402777,0.40278 0.702778,0.0289 1.096528,-0.12862 0.875,-0.35015 z m -18.728982,-1.25978 c 1.050246,-0.54774 2.377199,-0.99774 2.948785,-1 0.571586,-0.002 1.592033,-0.40832 2.26766,-0.90235 2.143545,-1.5674 0.326194,-2.10773 -11.806907,-3.51044 -3.287618,-0.38008 -3.833333,-0.28763 -3.833333,0.64942 0,0.89158 0.739766,1.09259 4.020923,1.09259 3.035807,0 4.11915,0.25598 4.421855,1.04482 0.220512,0.57464 0.0611,1.38464 -0.354257,1.8 -1.863249,1.86324 -0.546567,2.32894 2.335274,0.82596 z m 32.218635,-3.30824 c 1.337464,-1.61155 0.136806,-2.41108 -3.191197,-2.12507 -3.523618,0.30282 -3.85878,0.79388 -1.451233,2.12626 2.170508,1.20119 3.644852,1.20082 4.64243,-0.001 z m -18.463076,-8.79983 c -0.451355,-0.18261 -1.351355,-0.19373 -2,-0.0247 -0.648645,0.16903 -0.279354,0.31844 0.820646,0.33203 1.1,0.0136 1.630709,-0.12471 1.179354,-0.30733 z M 65,114.66667 C 64.773388,114.3 64.155682,114 63.627322,114 c -0.52836,0 -0.960655,0.3 -0.960655,0.66667 0,0.36667 0.617705,0.66667 1.372678,0.66667 0.754973,0 1.187267,-0.3 0.960655,-0.66667 z m 5.86644,-3.74796 c 1.173458,-0.59471 3.501683,-2.54471 5.173834,-4.33333 1.847124,-1.97579 3.61314,-3.25204 4.5,-3.25204 1.738382,0 1.877675,1.09985 0.352702,2.78492 -0.608863,0.67279 -0.88407,1.4462 -0.61157,1.7187 0.919803,0.91981 4.385261,-3.7417 4.385261,-5.89876 0,-2.987924 -3.346389,-6.187695 -5.887526,-5.629568 -1.720811,0.377954 -1.994543,0.165072 -3.146882,-2.447333 -0.694169,-1.573713 -1.526915,-3.048476 -1.850547,-3.277251 -0.323633,-0.228774 -0.749015,-2.478774 -0.945293,-5 -0.335101,-4.304411 -0.520602,-4.73655 -3.040905,-7.084046 -1.476218,-1.375 -2.859117,-2.494817 -3.073107,-2.488482 -0.213991,0.0063 -1.125005,0.786926 -2.024476,1.734647 C 63.79846,78.693888 62.37346,79.73128 61.531265,80.051482 60.2114,80.553294 60,81.101181 60,84.020078 60,88.89207 57.948981,92.939527 54.163611,95.537539 50.013373,98.38597 48,100.57284 48,102.23228 c 0,1.79658 3.879987,5.76865 5.630778,5.76441 1.208383,-0.003 1.134288,-0.19285 -0.630778,-1.61691 -1.50944,-1.21781 -1.812969,-1.80465 -1.23748,-2.39254 1.294143,-1.32202 3.036501,-0.44766 5.182495,2.60071 3.549341,5.04181 9.106998,6.77072 13.921425,4.33076 z m -11.461127,-5.83198 c -0.570347,-0.68722 -0.6706,-2.49216 -0.344089,-6.194918 0.524407,-5.94697 1.279143,-8.505497 2.319375,-7.862598 0.791121,0.48894 0.17333,13.564946 -0.685024,14.499046 -0.266979,0.29054 -0.847597,0.0918 -1.290262,-0.44153 z m 13.008805,-3.21733 c -0.203231,-2.311503 -0.558502,-5.777731 -0.78949,-7.702731 -0.352312,-2.936077 -0.248492,-3.5 0.644363,-3.5 0.778439,0 1.064342,0.647515 1.064342,2.410524 0,1.325789 0.514134,3.8581 1.142519,5.627359 0.845152,2.379578 0.975288,3.690058 0.5,5.034998 -1.174554,3.32369 -2.168906,2.59778 -2.561734,-1.87015 z M 50.445867,92.985171 c 3.928852,-1.957829 5.275223,-3.28385 5.907798,-5.818502 0.450215,-1.80396 -0.474006,-2.589985 -1.359908,-1.156566 -1.201054,1.943348 -8.875685,3.622582 -13.432962,2.939176 -3.820941,-0.572986 -7.773555,-4.164846 -9.461066,-8.59756 l -1.261985,-3.314951 -0.487041,2.217486 c -0.84756,3.858915 0.183911,9.096177 2.191137,11.125428 4.449309,4.498129 11.923342,5.585791 17.904027,2.605489 z m -13.7792,-2.985168 c 0,-0.366667 0.432295,-0.666667 0.960655,-0.666667 0.52836,0 1.146066,0.3 1.372678,0.666667 0.226612,0.366666 -0.205682,0.666666 -0.960655,0.666666 -0.754973,0 -1.372678,-0.3 -1.372678,-0.666666 z m 59.487517,3.410125 c 3.113462,-1.334585 6.269036,-4.541372 6.885396,-6.997138 0.20489,-0.816337 0.2798,-3.118215 0.16647,-5.115285 -0.18066,-3.18354 -0.39091,-3.657291 -1.70605,-3.84407 -1.23403,-0.17526 -1.5,0.102402 -1.5,1.565914 0,2.783175 -1.791682,5.81291 -4.620806,7.813787 -2.226486,1.574665 -3.244693,1.833333 -7.216619,1.833333 -4.223934,0 -6.306545,-0.546785 -10.320196,-2.709547 -1.736293,-0.935605 -1.907396,-0.791309 -1.434254,1.209547 1.456027,6.157361 12.097436,9.522042 19.746059,6.243459 z m -2.820851,-2.764382 c 0,-0.378174 0.525,-0.872878 1.166667,-1.099342 0.641667,-0.226463 1.84564,-1.023074 2.675496,-1.770247 0.947472,-0.85307 1.743248,-1.124077 2.138906,-0.728419 0.867058,0.867062 0.07498,1.900072 -2.447962,3.192576 -2.457968,1.259216 -3.533107,1.38259 -3.533107,0.405432 z M 51.437587,84.279424 c 2.02708,-1.048244 2.386291,-2.188877 1.095746,-3.479422 C 51.439628,79.706297 50,79.792455 50,80.951615 c 0,1.326275 -3.209417,3.715054 -4.991317,3.715054 -1.856671,0 -5.931912,-2.69618 -6.203018,-4.103916 -0.246148,-1.278145 1.96988,-1.974308 4.606223,-1.44704 1.034168,0.206834 2.380398,0.184158 2.991622,-0.05039 2.015428,-0.773392 -0.723972,-2.84762 -4.405855,-3.336039 -4.784487,-0.634685 -6.664322,-0.0016 -6.664322,2.244402 0,2.643054 2.668578,6.22423 5.356419,7.188203 2.708132,0.97125 8.004004,0.536426 10.747835,-0.882465 z m 42.319522,-0.797356 c 2.171513,-1.885803 3.25179,-5.182966 2.236419,-6.825872 -0.790835,-1.279598 -7.049309,-1.128702 -9.603644,0.23155 l -1.94345,1.034939 3.541454,0.205325 c 4.32038,0.250486 5.789176,1.763356 3.669525,3.779638 -2.094424,1.992285 -5.421401,2.328366 -7.038737,0.71103 -0.871493,-0.871493 -1.206688,-1.816255 -0.941186,-2.652777 0.619314,-1.951286 -0.484841,-1.572051 -3.010823,1.034101 -1.931881,1.993196 -2.072423,2.336777 -0.964112,2.356957 0.713595,0.01299 2.047445,0.452363 2.964112,0.976377 0.916666,0.524014 3.316666,0.955313 5.333333,0.958442 3.039691,0.0047 4.024118,-0.304731 5.757109,-1.80971 z M 55.941087,77.500002 c -1.06179,-2.810678 -3.992545,-5.620553 -4.994783,-4.78877 -0.568994,0.472224 -0.9626,0.468414 -1.25963,-0.01219 -0.237617,-0.384471 -0.12374,-0.699039 0.253058,-0.699039 2.987081,0 -5.978971,-5.723787 -9.582704,-6.117448 -1.541208,-0.168357 -2.032866,0.07766 -2.23322,1.117448 -0.357928,1.857571 -2.780376,4.333333 -4.240017,4.333333 -1.547661,0 -1.529288,-0.392842 0.116209,-2.484753 1.993171,-2.533907 1.756247,-4.181914 -0.601209,-4.181914 -1.870588,0 -1.950046,0.133588 -2.403539,4.040906 -0.257948,2.222498 -0.302718,4.207184 -0.09949,4.410414 0.20323,0.203229 1.329589,0.03482 2.503021,-0.374239 5.434153,-1.894356 16.361014,0.713021 20.552169,4.904176 2.185813,2.185813 2.853015,2.136221 1.990134,-0.147923 z m 31.011006,-4.411174 c 4.047903,-1.341519 6.965098,-1.363639 11.714574,-0.08883 2.016663,0.541296 3.741663,0.987736 3.833333,0.992087 0.33545,0.01593 0.15476,-5.218288 -0.25,-7.242087 -0.28311,-1.415557 -0.80472,-2.083334 -1.62732,-2.083334 -1.818716,0 -2.105017,1.019543 -1.017323,3.622761 0.562673,1.346678 0.719763,2.509639 0.368319,2.726842 -1.106183,0.683659 -3.29125,-1.021378 -4.250213,-3.316497 -0.880414,-2.107129 -1.084239,-2.21948 -3.165567,-1.744905 -5.154093,1.175214 -10.535604,4.816067 -14.178963,9.592757 -2.71458,3.558998 -2.005474,4.046667 1.787734,1.229466 1.925,-1.42969 4.978441,-3.089409 6.785426,-3.688264 z M 84.152778,71.208335 C 84.564827,69.972187 86,69.767162 86,70.944446 c 0,0.580556 -0.475,1.055556 -1.055556,1.055556 -0.580555,0 -0.936805,-0.35625 -0.791666,-0.791667 z M 61.688531,76.642509 C 62.788913,75.4266 62.82479,75.026789 62.032517,72.809176 60.625998,68.87226 57.45734,64.945482 53.412051,62.126215 46.984336,57.646574 43.801335,56.546466 36.166667,56.165873 l -6.833334,-0.340646 v 2.339091 c 0,1.2865 0.375,2.640245 0.833334,3.008323 0.458333,0.368078 3.383333,0.803151 6.5,0.966829 4.324597,0.227116 6.535064,0.714285 9.333333,2.056991 4.921333,2.361427 10.429434,7.313381 12.108889,10.886269 0.754204,1.6045 1.591746,2.917272 1.861204,2.917272 0.269458,0 1.042755,-0.610872 1.718438,-1.357493 z m 13.69527,-2.621578 c 4.18621,-6.803458 12.38925,-11.308854 21.774146,-11.959122 6.262133,-0.433895 7.379903,-1.161419 6.594183,-4.291956 -0.42953,-1.711416 -0.60351,-1.769851 -5.269233,-1.769851 -2.653768,0 -5.873052,0.316449 -7.153965,0.703222 -1.280913,0.386772 -2.842294,0.817305 -3.469736,0.95674 -2.047083,0.45492 -7.111298,3.72999 -10.554334,6.825575 -5.003584,4.498652 -7.321279,9.898046 -5.171529,12.047796 0.44,0.44 0.892773,0.8 1.006163,0.8 0.113389,0 1.123326,-1.490581 2.244305,-3.312404 z M 69.37891,69.833335 c 4.703437,-7.535592 9.807144,-11.538968 18.912269,-14.834889 4.645606,-1.681641 7.547681,-2.331778 10.408563,-2.331778 h 3.966928 v -7.411052 -7.411051 l -1.83334,0.443609 C 88.545422,41.261463 71.267743,42.762468 58.333333,41.980378 47.73602,41.339602 37.305714,39.801645 33.166667,38.269532 l -2.5,-0.925402 v 7.661269 7.661269 l 4.166666,0.0086 c 6.834484,0.01411 15.305298,3.177705 21.166667,7.90512 3.762774,3.034819 5.831184,5.446278 8.180152,9.536841 1.01575,1.768858 2.109477,3.216105 2.430503,3.216105 0.321026,0 1.566741,-1.575 2.768255,-3.5 z M 63.245729,59.128566 C 61.547547,57.191864 59.534264,54.23783 58.771768,52.564046 58.009271,50.890263 56.603617,49.008553 55.648091,48.382468 54.201116,47.434373 54.05072,47.075505 54.748173,46.235125 55.308594,45.55986 56.150258,45.370058 57.292788,45.661296 58.231754,45.900643 60.35,46.299767 62,46.548237 c 3.649085,0.549509 4.208388,2.335254 0.833333,2.66067 -1.191666,0.114898 -2.166666,0.354796 -2.166666,0.533107 0,1.539597 5.602488,9.591321 6.673759,9.591321 0.631438,0 4.27623,-6.222188 4.944664,-8.441258 0.364361,-1.209608 0.102785,-1.514035 -1.627456,-1.894059 -3.04386,-0.668544 -2.037451,-1.966979 1.710885,-2.207326 1.795361,-0.115121 3.633769,-0.515948 4.085351,-0.890727 0.451581,-0.374779 1.134198,-0.487885 1.516927,-0.251346 1.103464,0.681979 0.813816,2.189558 -0.689818,3.590406 -0.762128,0.710031 -2.187128,2.776681 -3.166667,4.592555 -1.932822,3.583078 -6.208172,8.840216 -7.178264,8.826676 -0.331493,-0.0046 -1.992137,-1.592987 -3.690319,-3.52969 z M 50.428571,52.333335 c -0.55,-0.55 -1.227093,-1 -1.504651,-1 -0.277558,0 -1.123987,-0.554353 -1.880953,-1.231895 -1.326571,-1.187383 -6.379851,-3.434772 -7.723125,-3.434772 -0.359246,0 -0.653175,0.9 -0.653175,2 0,1.279608 -0.339667,2 -0.943004,2 -1.080499,0 -4.39033,-5.562176 -4.39033,-7.377957 0,-1.656564 1.177721,-2.247784 2.421452,-1.215578 1.397227,1.159595 7.488436,3.260202 9.453732,3.260202 1.724411,0 8.124816,5.616661 8.124816,7.129913 0,1.176034 -1.673668,1.101181 -2.904762,-0.129913 z m 30.238096,-0.02346 c 0,-2.76784 4.300819,-6.363304 8.751021,-7.315811 1.236938,-0.26475 2.548979,-0.690294 2.915645,-0.945654 0.366667,-0.25536 2.267359,-0.855027 4.22376,-1.332592 4.706497,-1.148877 5.844397,-0.199469 2.879297,2.402358 -1.156681,1.01497 -2.103057,2.341862 -2.103057,2.948648 0,1.38027 -1.707505,2.859301 -2.637463,2.284555 C 94.313141,50.114844 94,49.189017 94,48.29399 c 0,-1.863229 -0.726758,-2.017671 -3.230472,-0.686505 -0.97324,0.517449 -2.729904,1.297788 -3.903696,1.734085 -1.173792,0.436298 -2.605708,1.512931 -3.182035,2.392517 -1.174272,1.792165 -3.01713,2.143858 -3.01713,0.575792 z M 79,37.146395 c -1.698977,-1.036029 -23.117433,-1.021217 -26,0.01798 -1.546089,0.557383 1.328678,0.729426 12.666667,0.758052 C 77.477538,37.952246 80.073716,37.801142 79,37.146395 Z M 41.7,36.115921 c 2.27355,-1.977078 7.013275,-2.448565 24.3,-2.41726 14.378852,0.02604 18.384555,0.237541 21.524153,1.136476 3.691897,1.057069 5.80918,0.986045 5.80918,-0.19487 0,-0.610886 -1.124533,-0.986797 -4.809947,-1.607875 -1.362137,-0.229552 -2.683374,-0.751913 -2.936082,-1.160803 -0.581364,-0.940667 7.654972,-0.188245 10.091464,0.921895 1.776625,0.809484 2.17573,2.181745 0.821232,2.82368 -0.458333,0.217217 0.340775,0.253109 1.775795,0.07976 5.373765,-0.649145 4.704905,-2.789696 -1.411745,-4.518001 -7.895734,-2.230998 -16.710787,-3.178922 -29.561838,-3.178922 -12.888756,0 -17.665545,0.464649 -28.417154,2.764203 -8.266173,1.767968 -10.066084,4.110722 -3.82752,4.98188 1.858961,0.259587 2.333937,0.171398 1.651997,-0.306728 -2.318983,-1.625894 2.300279,-3.593932 10.134332,-4.317733 3.081762,-0.284729 4.601494,0.318429 3.115825,1.236623 -0.400798,0.247707 -2.666529,0.690697 -5.034957,0.984422 -4.277113,0.530435 -6.57807,1.600215 -5.87805,2.732871 0.459115,0.742864 1.821646,0.763601 2.653315,0.04038 z"
       id="path1" />
  </g>
</svg>
