<svg xmlns="http://www.w3.org/2000/svg" width="359.505" height="307.639" viewBox="0 0 359.505 307.639"><path d="M202.585 320.044c2.567-1.378 10.967-7.668 18.667-13.979s17.997-14.74 22.883-18.733c14.432-11.793 39.065-34.376 60.216-55.202 47.76-47.027 65.028-73.763 70.865-109.718 5.25-32.338-7.66-68.658-30.962-87.108-26.386-20.892-65.073-26.393-98.129-13.95-16.9 6.36-38.644 23.908-46.635 37.636-1.598 2.744-3.205 4.981-3.572 4.971-.366-.01-3.066-3.38-6-7.49-13.061-18.295-34.015-32.367-56.554-37.979-16.008-3.985-40.603-3.113-54.112 1.92-15.954 5.943-24.81 11.535-36.149 22.822-8.63 8.591-11.918 13.055-16.28 22.1-14.341 29.738-13.171 61.993 3.458 95.333 8.434 16.908 23.256 36.32 45.563 59.67 29 30.357 99.07 91.45 114.167 99.542 6.243 3.346 6.638 3.351 12.574.165m-22.878-26.183c-24.413-20.313-28.067-23.511-51.784-45.335-26.665-24.534-53.284-51.566-64.2-65.193-38.548-48.121-42.376-98.021-10.015-130.568 16.396-16.49 33.298-23.65 56.21-23.813 15.49-.109 23.99 2 39.508 9.803 17.049 8.571 36.44 29.396 43.271 46.47 1.198 2.993 2.862 5.422 3.7 5.398.837-.025 4.15-5.575 7.363-12.334 9.56-20.113 29.168-37.764 51.918-46.737 14.22-5.609 39.408-5.57 54.907.086 16.424 5.993 32.99 19.5 40.51 33.029 16.306 29.332 14.404 62.325-5.482 95.12-14.134 23.308-31.037 42.059-78.385 86.951-29.624 28.088-66.88 58.293-72.188 58.527-.85.038-7.75-5.094-15.333-11.404m17.545-7.194c1.585-1.025 1.309-1.298-1.334-1.318-3.788-.03-10.075-3.546-18.333-10.256-7.523-6.113-7.258-3.516.385 3.768 9.247 8.813 14.459 10.923 19.282 7.806m23.059-13.519c14.485-9.575 27.607-20.334 27.607-22.636 0-1.51-4.222 1.107-17.333 10.745-8.505 6.253-15.927 11.307-28.873 19.665-2.268 1.464-2.2 1.594.873 1.664 1.992.046 9.127-3.753 17.726-9.438m112.786-115.55c8.765-15.008 13.784-31.698 14.518-48.281.67-15.172-1.877-29.498-5.926-33.317-1.903-1.795-2.043-1.727-1.368.667.413 1.466 1.685 5.966 2.825 10 5.077 17.95-.188 45.194-13.37 69.188-6.736 12.263-3.742 13.836 3.32 1.744M70.58 161.746c-.003-.593-1.274-3.16-2.826-5.706-1.551-2.545-3.65-7.423-4.666-10.84-1.014-3.417-2.743-6.958-3.84-7.87-1.098-.91-1.996-2.482-1.996-3.492 0-2.143-3.448-2.477-4.697-.455-1.117 1.807 4.075 11.701 8.369 15.951 1.852 1.834 4.175 5.243 5.16 7.576 1.725 4.08 4.506 7.072 4.496 4.836M52.383 121C49.2 97.554 52.082 83.901 63.94 66.237c6.592-9.821 7.456-12.59 2.538-8.14-7.781 7.042-16.358 23.53-18.387 35.346-1.995 11.622-1.905 15.611.6 26.627 2.69 11.824 5.258 12.471 3.692.93m281.136-57.667c-1.639-3.163-8.664-9.844-14.267-13.569-4.697-3.122-22.055-10.154-22.923-9.286-.328.329 5.295 3.384 12.496 6.789 8.56 4.048 15.34 8.363 19.584 12.462 3.57 3.45 5.87 5.071 5.11 3.604m-29.194-23.46c-2.036-2.036-10.027-3.608-13.014-2.56-3.276 1.149-.4 3.186 2.983 2.113 1.294-.41 4.398-.16 6.898.557 3.203.919 4.129.886 3.133-.11" style="fill:currentColor" transform="translate(-16.873 -14.772)"/></svg>