<?xml version="1.0" encoding="UTF-8" standalone="no"?>
<svg
   version="1.1"
   viewBox="0 -1.89906 101.999 101.999"
   xmlns="http://www.w3.org/2000/svg">
  <g transform="translate(-25.999689,-12.024693)">
    <path
       style="fill:currentColor"
       d="M 73.619436,109.93832 C 70.005868,109.27966 57.880676,105.17565 52.333333,102.73363 51.6,102.4108 48.3,101.18263 45,100.00435 39.359795,97.990486 37.480943,97.304005 32.163599,95.314275 30.970244,94.867726 29.095244,93.478898 27.996932,92.227989 L 26,89.953609 V 60.125143 c 0,-32.629158 -0.112442,-31.665182 3.937859,-33.759674 1.885728,-0.975148 14.01858,-5.058753 26.728808,-8.996227 3.85,-1.192684 7.9,-2.462236 9,-2.821228 7.935217,-2.589707 12.80102,-3.136523 16.619334,-1.867671 12.220923,4.061099 20.551839,6.652991 21.384199,6.652991 0.55801,0 1.53549,0.276461 2.17218,0.614358 0.63669,0.337897 4.30762,1.586174 8.15762,2.773948 3.85,1.187775 8.07917,2.694032 9.39816,3.347238 4.75703,2.355834 4.60212,1.219437 4.59935,33.741002 -0.002,27.952277 -0.0587,29.282272 -1.32737,31.363101 -1.48019,2.4277 -4.08513,3.756801 -16.00347,8.165348 -4.21667,1.559731 -8.61201,3.246671 -9.76742,3.748771 -1.155417,0.5021 -2.396125,0.9129 -2.757131,0.9129 -0.361007,0 -1.515669,0.44816 -2.565914,0.9959 -1.050246,0.54774 -2.374538,0.99774 -2.942872,1 -0.568333,0.002 -1.318333,0.25647 -1.666666,0.56491 -0.985383,0.87253 -8.999776,3.27723 -11.966667,3.59056 -1.466667,0.1549 -3.88792,0.059 -5.380564,-0.21305 z m 12.015413,-5.35105 c 3.3175,-1.14367 6.316818,-2.34367 6.665151,-2.66666 0.348333,-0.323 1.052995,-0.58727 1.565914,-0.58727 0.512919,0 1.877919,-0.42333 3.033333,-0.94073 2.205968,-0.987848 7.088083,-2.906661 17.301833,-6.80012 3.37274,-1.285681 6.95725,-3.126079 7.96559,-4.089772 L 124,87.750549 V 59.669362 c 0,-21.474104 -0.19607,-28.322238 -0.83333,-29.105692 -0.96524,-1.18667 -2.03721,-1.596164 -12.83334,-4.902349 -4.4,-1.347448 -8.6,-2.70131 -9.33333,-3.008582 -0.73333,-0.307272 -3.583333,-1.212929 -6.333333,-2.012572 -2.75,-0.799643 -7.241678,-2.170807 -9.981505,-3.047031 -5.791366,-1.852137 -9.166871,-1.992142 -13.733069,-0.569606 -1.806985,0.562941 -4.185426,1.279659 -5.285426,1.592707 -5.14169,1.463267 -12.129034,3.602884 -13.333334,4.082842 C 51.6,22.99134 46.95,24.50562 42,26.064146 c -6.514747,2.051193 -9.506255,3.339885 -10.833333,4.666821 l -1.833334,1.833137 v 27.155023 27.155022 l 1.617063,2.120078 c 0.958141,1.256188 2.927629,2.606611 4.833333,3.314081 C 37.552678,92.96501 39.9,93.888391 41,94.360266 c 1.1,0.471876 8.3,3.162056 16,5.978174 7.7,2.81613 14.6,5.37172 15.333333,5.67911 2.682328,1.12433 7.345841,0.62287 13.301516,-1.43028 z m -9.219378,-2.28028 C 76.186962,101.7115 76,90.665551 76,77.760429 V 54.296571 l 2.044566,-3.940711 c 1.124512,-2.16739 2.549512,-4.325769 3.166667,-4.796398 0.617155,-0.470628 3.8221,-1.746051 7.1221,-2.834273 8.633978,-2.847177 20.555237,-7.040758 21.333567,-7.504583 0.36654,-0.218428 1.71643,-0.617063 2.99977,-0.885855 1.28333,-0.268792 2.63689,-0.731518 3.00792,-1.028279 1.16072,-0.9284 4.50052,-1.025526 4.811,-0.139911 0.37911,1.081375 -2.67977,2.357787 -17.81892,7.435487 C 95.883333,42.87719 89.733333,45.003615 89,45.327436 c -0.733333,0.323821 -2.083333,0.796979 -3,1.051463 -2.535418,0.703879 -5.338605,2.909303 -6.185056,4.866129 -0.49934,1.154375 -0.882762,10.291912 -1.120374,26.700233 -0.255164,17.620403 -0.581816,25.018549 -1.112432,25.194839 -0.413157,0.13728 -0.938157,-0.23763 -1.166667,-0.83311 z m 6.917862,-2.811333 c 0,-0.537419 4.741239,-2.181231 6.156168,-2.134376 0.464108,0.01537 -0.206168,0.602795 -1.489501,1.30539 -2.403286,1.315743 -4.666667,1.717809 -4.666667,0.828986 z M 50,93.11753 c -2.383333,-0.805567 -4.633333,-1.651281 -5,-1.879365 -0.366667,-0.228084 -1.638226,-0.623058 -2.825688,-0.877721 -2.115209,-0.453626 -3.321503,-1.435472 -2.622461,-2.134513 0.37971,-0.37971 12.205962,3.900025 15.051462,5.446888 C 57.147546,95.055907 54.950878,94.790927 50,93.11753 Z m 56.35166,-2.027726 c 0.72325,-0.50061 2.06501,-1.137327 2.98167,-1.414926 4.62868,-1.401727 4.34009,-3.133017 -0.83333,-4.999411 -2.29167,-0.826754 -6.86667,-2.537732 -10.166667,-3.802172 -3.3,-1.264439 -6.834619,-2.618582 -7.854709,-3.009204 -3.885634,-1.487924 -1.070084,-1.18796 3.942802,0.420059 2.884882,0.925405 7.645244,2.421903 10.578574,3.325551 7.03337,2.166712 11.66667,4.259597 11.66667,5.269896 0,0.946234 -3.03527,2.638581 -7.33334,4.08878 -3.73649,1.26072 -4.68336,1.299281 -2.98167,0.121427 z M 36.351852,85.43643 C 37.494266,84.367502 46.463585,80.75879 50.333333,79.811128 51.066667,79.631542 52.266667,79.257981 53,78.980992 c 1.185712,-0.447858 1.222617,-0.392655 0.333333,0.498602 -1.228443,1.231169 -15.374517,7.187076 -17.070265,7.187076 -1.158189,0 -1.153276,-0.06807 0.08878,-1.23024 z m 81.529378,-3.909165 c -0.28265,-1.169589 1.09261,-22.204557 1.49462,-22.860596 0.3846,-0.627621 0.958,18.996514 0.62174,21.278582 -0.36879,2.502869 -1.66047,3.468423 -2.11636,1.582014 z M 83.088148,63.263529 c -0.575794,-6.29104 0.206826,-10.850331 1.979251,-11.530475 1.899278,-0.728821 2.315659,0.324623 0.909082,2.299977 -1.053368,1.47932 -1.497509,3.484728 -1.872143,8.453197 l -0.491154,6.513775 z M 71.166005,66.66667 c -0.234221,-0.55 -0.517499,-3.653526 -0.629508,-6.896723 -0.192629,-5.577565 -0.306778,-5.978952 -2.109002,-7.415996 -2.167237,-1.728094 -1.420813,-2.77795 1.144155,-1.609272 2.737039,1.247078 3.360295,3.784293 2.647108,10.776119 -0.344794,3.38023 -0.818532,5.695872 -1.052753,5.145872 z M 34.497227,56.000002 c -0.726394,-8.413609 -0.609384,-14.287844 0.302773,-15.2 0.794016,-0.794017 3.2,-1.127254 3.2,-0.443211 0,0.196233 -0.493358,1.109747 -1.09635,2.03003 -0.810465,1.236927 -1.203371,3.968797 -1.506769,10.476545 l -0.410419,8.803303 z m 38.836106,-8.668029 c -0.55,-0.275176 -2.8,-1.023208 -5,-1.662295 -6.588595,-1.913947 -10.5888,-3.153948 -12,-3.719812 -0.733333,-0.294052 -3.433333,-1.191532 -6,-1.9944 -12.004059,-3.754937 -17.293089,-5.676202 -17.31236,-6.288798 -0.03035,-0.964847 2.813705,-1.220105 4.875657,-0.437596 0.97352,0.36945 4.020037,1.315212 6.770037,2.101693 2.75,0.786481 5.6,1.691686 6.333333,2.011568 0.733333,0.319881 5.901492,2.022739 11.484796,3.784129 5.583305,1.76139 10.634665,3.555852 11.225244,3.987694 1.356519,0.991911 1.028847,2.921042 -0.376707,2.217817 z m 39.337547,-4.485936 c 0.004,-0.42534 2.94312,-2.48613 4.82912,-3.385405 0.84475,-0.40279 0.55303,1.667674 -0.33333,2.365815 -1.13263,0.892106 -4.50102,1.656017 -4.49579,1.01959 z M 75.5,40.189165 c 1.008333,-0.152749 2.658333,-0.152749 3.666667,0 1.008333,0.15275 0.183333,0.277727 -1.833334,0.277727 -2.016666,0 -2.841666,-0.124977 -1.833333,-0.277727 z m 21.788012,-6.511712 c 2.358407,-0.939216 4.608408,-1.599227 4.999998,-1.466691 1.21276,0.410463 -3.324024,2.397265 -6.384695,2.796062 -2.821212,0.367596 -2.782054,0.330003 1.384697,-1.329371 z M 44.666667,30.044926 c 0,-0.341957 0.525,-0.770882 1.166666,-0.953165 2.445597,-0.69474 15.293767,-4.615167 18.023298,-5.49954 3.810076,-1.234471 5.743909,-1.135252 2.810036,0.144174 -3.396358,1.48111 -20.331084,6.930273 -21.537671,6.930273 -0.254281,0 -0.462329,-0.279784 -0.462329,-0.621742 z M 104.33333,29.341189 C 102.5,28.685316 98.766159,27.441233 96.03591,26.576561 c -2.73025,-0.864672 -4.422595,-1.676414 -3.760766,-1.80387 0.661829,-0.127457 2.445669,0.214252 3.96409,0.759352 1.518421,0.545101 5.221446,1.675202 8.228946,2.511336 3.0075,0.836135 5.3148,1.768429 5.12732,2.071767 -0.46447,0.751538 -1.37051,0.618278 -5.26217,-0.773957 z M 76.42632,22.204099 C 75.675531,21.45331 75.96906,20.666668 77,20.666668 c 0.55,0 1,0.282294 1,0.627322 0,0.840651 -1.041059,1.442729 -1.57368,0.910109 z"
       />
  </g>
  <line
     x1="6" y1="6" x2="96" y2="96"
     stroke="currentColor"
     stroke-width="10"
     stroke-linecap="round" />
</svg>
