<?xml version="1.0" encoding="UTF-8" standalone="no"?>
<!-- Created with Inkscape (http://www.inkscape.org/) -->

<svg
   version="1.1"
   id="svg1"
   width="153.87305"
   height="90.042236"
   viewBox="0 -31.9154 153.873 153.873"
   xmlns="http://www.w3.org/2000/svg"
   xmlns:svg="http://www.w3.org/2000/svg">
  <defs
     id="defs1" />
  <g
     id="g1"
     style="display:inline"
     transform="translate(-33.469085,-26.624432)">
    <path
       style="fill:currentColor"
       d="m 106.086,115.49409 c -1.60271,-0.55245 -4.26563,-2.29954 -5.91762,-3.88242 -2.528113,-2.42236 -3.309074,-2.81686 -4.933198,-2.49204 -1.061276,0.21226 -2.091055,0.64717 -2.288397,0.96648 -0.197343,0.31931 -1.385029,0.58056 -2.639303,0.58056 -1.254274,0 -3.489268,0.48365 -4.966653,1.07478 -1.477385,0.59114 -3.508456,0.91583 -4.513491,0.72154 -7.48699,-1.44732 -11.284365,-3.83262 -11.618566,-7.29814 -0.205887,-2.13495 -0.268611,-2.17221 -4.542104,-2.69818 -2.383333,-0.29333 -4.997778,-0.96833 -5.809878,-1.5 -1.97604,-1.293683 -2.618352,-1.227244 -5.079767,0.52544 -1.838992,1.30948 -2.824353,1.47534 -8.050473,1.35509 -7.086234,-0.16305 -9.995715,-1.30173 -11.526094,-4.510967 -0.979966,-2.055011 -0.978069,-2.42258 0.02339,-4.533005 1.172114,-2.470048 4.129503,-5.003501 7.609485,-6.51868 2.003794,-0.872448 2.166667,-1.179164 2.166667,-4.080165 0,-2.677574 0.3172,-3.43437 2.166667,-5.169372 1.191666,-1.117913 3.136031,-2.354524 4.32081,-2.748025 L 52.641621,74.57153 52.230515,69.708152 C 51.887827,65.654155 52.027642,64.492264 53.070633,62.726622 54.570636,60.187318 58.04746,58 60.583774,58 c 3.477969,0 8.749561,-1.953871 8.749561,-3.242951 0,-0.655213 0.740202,-1.886681 1.644893,-2.736594 0.904692,-0.849913 2.112711,-2.953763 2.684488,-4.675222 2.015637,-6.068515 6.685252,-8.423112 13.367635,-6.740469 2.955244,0.744139 3.129381,0.705317 4.467644,-0.996009 C 93.098794,37.57367 96.443533,36 99.168185,36 c 1.368315,0 2.189925,-0.5286 3.028745,-1.9486 0.63308,-1.07173 2.69356,-3.0809 4.57884,-4.464822 4.19247,-3.077552 9.44554,-3.826511 13.46399,-1.919632 2.62303,1.244709 8.53615,8.041819 9.12343,10.48735 0.33887,1.411116 0.73979,1.520508 5.98831,1.633917 8.08007,0.174592 9.70704,0.606219 11.5832,3.072946 2.19549,2.886582 4.39864,8.662393 4.39864,11.531534 0,1.956924 0.30231,2.44876 1.83333,2.982685 1.00833,0.351643 2.43333,1.535175 3.16667,2.63007 1.08708,1.62306 1.799,1.991072 3.85474,1.992635 5.63724,0.0043 10.47859,4.01483 10.47859,8.680389 0,1.416895 0.3,2.761582 0.66667,2.988195 C 171.7,73.893279 172,75.825995 172,77.96159 c 0,3.1039 0.23407,3.961717 1.16667,4.275752 1.49501,0.503412 4.32797,2.193593 8.38367,5.001817 5.94997,4.119834 7.50544,9.192978 3.77983,12.327872 -2.45328,2.064299 -6.42705,2.731089 -13.41971,2.251799 -4.68704,-0.32126 -5.24379,-0.23552 -5.24379,0.80755 0,0.64183 -0.525,1.62906 -1.16667,2.19384 -1.89678,1.6695 -6.93341,3.84334 -9.71427,4.19274 -2.59571,0.32614 -6.45239,2.53714 -6.45239,3.6991 0,0.3417 1.33229,0.62127 2.96065,0.62127 2.75389,0 3.95977,-0.69312 4.05944,-2.33333 0.0516,-0.8485 1.71804,-0.50053 2.83774,0.59252 1.9625,1.91582 -1.75287,5.07415 -5.9691,5.07415 -2.99322,0 -7.77472,-1.92387 -8.21292,-3.30452 -0.43407,-1.36765 -5.33895,-4.69548 -6.92064,-4.69548 -0.61884,0 -1.80747,0.4779 -2.6414,1.06201 -1.52192,1.066 -5.31936,1.03595 -9.61377,-0.076 C 124.46695,109.29881 124,109.42062 124,110.13089 c 0,1.37566 -3.26333,4.29657 -6.14525,5.50041 -3.02717,1.26452 -7.8659,1.20811 -11.76875,-0.13721 z m 11.92725,-4.50245 c 2.25789,-1.42534 2.65342,-2.01823 2.65342,-3.97739 0,-3.53885 -1.94502,-7.036587 -4.15915,-7.479414 -1.02773,-0.205545 -2.03006,-0.63497 -2.2274,-0.954277 -0.65883,-1.066008 -3.65915,-0.597999 -7.3451,1.145734 -4.66374,2.206297 -5.94212,4.048917 -5.15389,7.428657 0.52037,2.23123 0.93679,2.62884 3.72892,3.56053 1.72873,0.57685 3.34617,1.25185 3.59432,1.5 1.1124,1.1124 6.34721,0.39327 8.90888,-1.22384 z m -6.23547,-0.76942 c -1.09995,-1.09995 -0.21802,-2.67902 2.29935,-4.11689 3.8715,-2.21133 4.73416,-0.95779 1.46988,2.13589 -2.65525,2.51646 -3.03446,2.71577 -3.76923,1.981 z M 149.71111,107 c 2.06923,-2.06922 2.72699,-2.33362 5.81112,-2.33583 6.49744,-0.005 9.61338,-3.52648 6.55737,-7.411555 -1.52824,-1.942845 -6.21979,-3.832031 -6.60991,-2.661669 -0.33646,1.009369 -4.47605,2.728931 -6.71777,2.790519 -2.31054,0.06348 -5.11696,3.488715 -5.6959,6.951865 -0.40512,2.42339 -0.27596,2.77149 1.41576,3.8156 2.49714,1.5412 2.56383,1.52657 5.23933,-1.14893 z m 5.72522,-7.958436 c 0.12669,-0.611596 0.53034,-1.096146 0.89701,-1.076778 0.98952,0.05227 0.80773,1.543746 -0.23034,1.88977 -0.56075,0.186914 -0.81066,-0.117847 -0.66667,-0.812992 z m -67.720839,8.319616 c 2.226852,-0.29481 4.626852,-0.83668 5.333333,-1.20415 0.706481,-0.36748 2.140023,-1.07016 3.185647,-1.56152 1.715083,-0.80596 1.867632,-1.14318 1.558786,-3.4458 -0.348046,-2.594876 -4.368271,-7.672408 -8.637405,-10.909016 -1.766443,-1.339214 -2.06932,-1.36926 -4.978115,-0.493841 -3.996719,1.202835 -5.921355,2.492905 -7.100519,4.759425 -0.522792,1.004881 -1.729035,2.55435 -2.68054,3.443265 -1.331499,1.243912 -1.73001,2.261697 -1.73001,4.418367 0,3.12548 0.802234,4.09254 3.910745,4.71424 1.164351,0.23287 2.297143,0.71487 2.517315,1.07112 0.22227,0.35964 1.328003,0.44674 2.486127,0.19583 1.147198,-0.24854 3.907784,-0.6931 6.134636,-0.98792 z M 83.58667,104.36526 C 83.084369,103.05628 83.826267,102 85.247953,102 c 0.643093,0 2.044241,-0.91328 3.113662,-2.029517 1.279249,-1.335249 2.469292,-1.962406 3.478787,-1.833333 2.187325,0.279667 1.984714,1.28627 -0.530406,2.63514 -1.193892,0.64029 -2.968467,1.92847 -3.9435,2.86261 -1.99973,1.91586 -3.23343,2.15424 -3.779826,0.73036 z m -5.142224,-1.47637 c -0.845194,-0.8452 -0.439273,-1.55556 0.888889,-1.55556 0.740741,0 1.333334,0.44445 1.333334,1 0,1.01494 -1.41027,1.36751 -2.222223,0.55556 z m 56.895654,2.50216 c 2.77608,-0.97763 3.72712,-1.66773 4.07116,-2.95415 0.2469,-0.92319 0.93037,-2.36592 1.51883,-3.206053 C 141.51854,98.39071 142,96.581763 142,95.210966 c 0,-2.981389 -1.478,-4.575866 -5.75605,-6.209669 -2.93945,-1.122588 -3.04689,-1.114958 -6.0249,0.427867 -1.66765,0.86396 -4.34961,3.173891 -5.9599,5.13318 l -2.92782,3.562344 1.25649,1.770989 c 0.69108,0.974043 1.37045,2.370023 1.50972,3.102173 0.26953,1.41687 3.99978,3.5835 6.26139,3.6368 0.74741,0.0176 2.98893,-0.54201 4.98117,-1.2436 z m -8.17343,-4.11112 C 126.525,100.9062 126,100.01532 126,99.300207 c 0,-1.514557 1.74997,-1.700641 3.5,-0.372176 1.44985,1.100589 1.49343,2.137259 0.11214,2.667309 -1.2606,0.48374 -1.02019,0.51475 -2.44547,-0.31541 z m 6.25408,-0.1746 c -0.9335,-1.124798 -0.31611,-1.771997 1.69036,-1.771997 1.76354,0 2.12642,1.638287 0.50103,2.262007 -1.38471,0.53136 -1.33438,0.54262 -2.19139,-0.49001 z M 53.902365,97.830381 c 2.831102,-1.352517 2.560255,-3.23414 -0.928416,-6.449885 -2.562856,-2.362358 -3.391384,-2.772268 -4.864776,-2.406825 -0.976711,0.242253 -2.56858,0.601596 -3.537486,0.798539 -2.336113,0.474848 -6.769406,5.041715 -6.459255,6.653871 0.183299,0.952784 1.058681,1.340919 3.773389,1.673078 1.944096,0.237871 3.740099,0.641513 3.991117,0.896983 0.621048,0.632061 5.853024,-0.127928 8.025427,-1.165761 z M 44.000001,95.8 c 0,-0.960631 1.302518,-2.466667 2.133333,-2.466667 0.99069,0 0.542112,2.520647 -0.521191,2.928674 C 44.14435,96.825252 44.000001,96.783885 44.000001,95.8 Z m 25.866667,2.733333 c 0.44,-0.44 0.8,-1.34 0.8,-2 0,-0.66 0.249791,-1.2 0.555091,-1.2 0.305299,0 1.490082,-1.163472 2.63285,-2.585494 1.726165,-2.147981 1.940974,-2.772559 1.269423,-3.69096 -1.252055,-1.712287 -5.756534,-3.035335 -7.765993,-2.281015 -4.785155,1.796274 -8.606412,6.341097 -7.70897,9.168685 0.834624,2.62967 8.28823,4.518151 10.217599,2.588784 z M 180.32616,97.451438 c 3.20392,-0.56829 3.69279,-1.949426 1.68706,-4.766212 -1.42884,-2.006615 -4.12116,-3.545525 -7.5368,-4.307964 -1.12856,-0.251919 -2.0999,-1.053622 -2.47642,-2.043929 -0.86578,-2.277177 -3.28974,-2.697688 -6.65566,-1.154629 -2.65226,1.215893 -2.81545,1.455214 -3.00085,4.400716 -0.15128,2.403441 0.0805,3.308649 1.01502,3.963176 0.6661,0.466553 1.58108,1.660331 2.0333,2.652841 0.80315,1.762713 0.95501,1.803672 6.54854,1.766143 3.14948,-0.02113 6.92309,-0.250695 8.38581,-0.510142 z m -6.67183,-3.471402 c -0.25931,-0.419584 -0.16949,-1.064873 0.19962,-1.433978 0.94707,-0.94707 3.14605,-0.39041 3.14605,0.796405 0,1.198555 -2.68297,1.70984 -3.34567,0.637573 z m -67.27186,2.259796 c 1.32994,-0.871408 2.73464,-1.020454 6.91618,-0.733845 5.10254,0.349736 5.2973,0.307458 7.06023,-1.532652 1.64678,-1.718868 1.7768,-2.216816 1.41857,-5.432822 -0.6609,-5.933225 -1.36661,-8.219972 -3.2078,-10.394389 -1.63755,-1.933919 -1.90992,-2.027685 -3.80843,-1.311079 -1.76744,0.667136 -2.41607,0.563105 -4.78286,-0.767106 -3.3222,-1.867182 -5.74293,-1.411865 -13.145305,2.472514 -2.506289,1.315169 -6.166386,5.680818 -6.166386,7.355071 0,1.023926 6.675113,6.879345 7.522732,6.598951 0.519474,-0.171842 0.880807,-2.119833 1.006078,-5.423903 0.185295,-4.88723 0.272099,-5.144857 1.666671,-4.946497 1.19978,0.170654 1.43376,0.57822 1.26831,2.209258 -0.85346,8.413799 -0.86452,9.961728 -0.0816,11.424589 0.9935,1.85637 2.05567,1.974486 4.33363,0.48191 z m 1.4092,-4.670388 c -0.9159,-0.915894 -0.44083,-2.330504 0.70833,-2.109197 0.64167,0.123574 1.16667,0.645571 1.16667,1.159994 0,1.052569 -1.1762,1.648008 -1.875,0.949203 z m 44.78509,1.763889 c 5.22957,0 7.95256,-4.684376 4.57013,-7.862008 -1.64854,-1.54872 -4.27389,-1.967357 -7.582,-1.209022 -2.07006,0.474531 -2.10074,0.445061 -2.03276,-1.953045 0.0891,-3.142558 -1.93251,-4.753282 -6.72453,-5.357845 -2.76719,-0.349109 -3.7825,-0.212442 -4.71916,0.635222 -1.79312,1.622744 -5.00945,1.340892 -7.37062,-0.645897 -1.12813,-0.949261 -2.05115,-2.149261 -2.05115,-2.666667 0,-1.176451 1.95461,-1.185877 3.49433,-0.01685 1.51921,1.153452 7.75057,0.615515 9.3763,-0.809431 1.01123,-0.886348 1.42572,-0.916776 2.58934,-0.190083 3.04599,1.902252 3.09855,-2.93107 0.0803,-7.385381 -1.91822,-2.830909 -4.13402,-3.560648 -8.76843,-2.887747 -2.48238,0.360432 -3.74032,1.070731 -6.27185,3.541414 C 125.21242,68.433272 124,70.20044 124,71.141605 c 0,1.235648 -0.36405,1.525062 -1.91837,1.525062 -1.0551,0 -2.28672,0.443842 -2.73694,0.986315 -0.67889,0.818012 -0.1809,1.639422 2.91837,4.813732 C 125.66398,81.94997 126,82.559955 126,85.25039 c 0,2.821749 0.0555,2.906058 1.21916,1.852935 C 127.8897,86.496496 128.84537,86 129.34286,86 c 0.4975,0 1.57057,-0.625703 2.38461,-1.390452 1.2137,-1.140209 1.73135,-1.255969 2.8763,-0.643211 1.12243,0.600707 1.39623,0.55535 1.39623,-0.231289 0,-1.038526 2.47483,-2.149109 3.19167,-1.432267 0.23349,0.233488 0.0363,1.046249 -0.4383,1.806136 -1.33239,2.133482 -0.0447,2.95596 3.13592,2.003019 3.47645,-1.041571 3.43493,-1.061299 2.57286,1.222604 -0.66781,1.769233 -0.58691,2.119206 0.69796,3.019162 0.79933,0.559875 1.64342,2.031218 1.87575,3.269652 0.4155,2.214802 0.44325,2.230874 1.69328,0.980839 0.81164,-0.811635 2.20198,-1.27086 3.84762,-1.27086 z M 59.385739,88.375502 c 1.106418,-1.26014 2.672252,-2.38514 3.479632,-2.5 1.140219,-0.16221 1.467964,-0.655366 1.467964,-2.208835 0,-1.774334 -0.338499,-2.115456 -3,-3.023245 -1.65,-0.562785 -3.692596,-1.407757 -4.539101,-1.877716 -2.04957,-1.137869 -4.945461,-0.432659 -7.109411,1.731291 -2.494529,2.494529 -1.984411,4.188739 1.801399,5.982823 1.734088,0.821779 3.531252,2.100002 3.993698,2.840495 1.137506,1.821436 1.568575,1.717161 3.905819,-0.944813 z m 24.141927,-2.126486 c 2.513865,-0.344563 3.181179,-0.741362 3.813318,-2.267482 0.421424,-1.017407 1.492104,-2.531759 2.379289,-3.365225 2.135504,-2.006202 2.044096,-2.857102 -0.720271,-6.704899 -1.42545,-1.984123 -2.333333,-4.025414 -2.333333,-5.246286 0,-1.944832 -0.08656,-1.998457 -3.225917,-1.998457 -2.636641,0 -3.664046,0.37424 -5.6244,2.048732 -1.319166,1.126803 -2.590537,2.923147 -2.825269,3.991876 -0.234733,1.068729 -1.153753,2.514976 -2.042267,3.213881 -3.159566,2.485315 -1.304152,7.814387 3.344038,9.604658 3.229674,1.243923 3.348834,1.255835 7.234812,0.723202 z m -1.102082,-2.582349 c 0.40492,-1.055204 3.574418,-1.419722 3.574418,-0.411088 0,0.323902 -0.675,0.769806 -1.5,0.990897 -2.224062,0.596026 -2.496416,0.519901 -2.074418,-0.579809 z m -1.631138,-6.383334 c 0.131389,-0.394166 0.523889,-0.716666 0.872223,-0.716666 0.348333,0 0.740833,0.3225 0.872222,0.716666 C 82.67028,77.6775 82.27778,78 81.666669,78 81.055558,78 80.663058,77.6775 80.794446,77.283333 Z m -11.461111,6.05 c 0,-0.74074 -0.444444,-1.333333 -1,-1.333333 -1.014941,0 -1.367508,1.410269 -0.555556,2.222222 0.845194,0.845194 1.555556,0.439273 1.555556,-0.888889 z m 96.949075,-2.361266 c 2.19692,-1.439477 2.55471,-2.722223 1.45029,-5.199556 -0.51635,-1.158214 -1.11059,-3.30486 -1.32053,-4.770324 -0.49712,-3.470004 -1.81512,-4.33552 -6.60207,-4.33552 -5.22993,0 -10.48454,2.937258 -11.59362,6.480678 -0.60655,1.937893 -0.54512,2.535371 0.35928,3.494891 0.6,0.636561 1.61297,1.80247 2.25105,2.590907 0.82719,1.022115 1.9039,1.433524 3.75171,1.433524 1.56698,0 2.94307,0.423546 3.48067,1.071315 1.07988,1.30117 5.72937,0.868113 8.22322,-0.765915 z m -9.07407,-2.76081 c 0.48125,-0.19258 1.05625,-0.168896 1.27777,0.05263 0.22153,0.221528 -0.17222,0.379093 -0.875,0.350146 -0.77662,-0.03199 -0.93459,-0.18996 -0.40277,-0.402778 z m 3.23611,0.01096 C 160.2,77.977778 160,77.06288 160,76.189116 c 0,-0.873765 -0.46049,-2.479154 -1.02331,-3.567533 -0.93065,-1.799684 -0.92478,-2.016682 0.0649,-2.396455 0.71846,-0.275695 1.62432,0.238051 2.66601,1.511977 1.84173,2.252332 2.05347,4.406605 0.57813,5.881943 -1.19313,1.19313 -1.23696,1.207487 -1.84127,0.603174 z M 67.333335,77.665926 c 0,-0.550407 1.132898,-2.125407 2.517551,-3.5 C 71.23554,72.791333 72.733362,70.916667 73.179381,70 c 0.446019,-0.916667 1.182281,-2.184842 1.636139,-2.818167 0.708397,-0.988517 0.404533,-1.580124 -2.146843,-4.179787 -1.969223,-2.006492 -3.314512,-2.882098 -3.987024,-2.595029 -0.558241,0.238291 -2.514985,0.684303 -4.348318,0.991136 -5.644864,0.944747 -6.276427,1.224682 -7.321208,3.245065 -0.556669,1.076479 -1.012126,3.48577 -1.012126,5.353978 0,2.71753 0.327208,3.723951 1.636364,5.033107 0.9,0.9 2.065708,1.636364 2.590462,1.636364 0.524754,0 1.813391,0.448151 2.863637,0.995893 2.447894,1.276664 4.242871,1.278089 4.242871,0.0034 z m -5.60967,-6.083228 c -2.035017,-3.64104 -2.166963,-4.916031 -0.508752,-4.916031 1.607211,0 4.948815,5.100569 4.424298,6.753175 -0.661504,2.084215 -2.101468,1.408594 -3.915546,-1.837144 z m 37.619736,1.974668 c 4.654059,-1.293943 5.067619,-2.449917 2.323269,-6.493941 -1.795564,-2.645909 -2.130612,-4.698002 -0.89203,-5.463486 0.97834,-0.604652 2.70312,1.501729 4.68896,5.726394 0.93232,1.983415 2.1917,3.540977 3.20307,3.961468 0.91667,0.381116 2.15336,1.046574 2.74821,1.478796 0.8785,0.638326 1.72518,0.389822 4.51001,-1.323703 1.88566,-1.160258 3.70077,-2.109561 4.03358,-2.109561 0.33281,0 1.9783,-1.607344 3.65665,-3.571875 3.44891,-4.036986 3.75613,-5.811907 1.76501,-10.197033 -1.46951,-3.236378 -2.06181,-3.488104 -8.75708,-3.72175 -5.94122,-0.207332 -9.04233,1.074816 -10.62305,4.392075 -0.93881,1.970176 -1.19072,2.085323 -4.11697,1.881863 -3.64751,-0.253609 -5.204668,0.463275 -9.038683,4.161225 -2.166505,2.089619 -2.824881,3.223558 -2.833334,4.87993 -0.01187,2.325197 3.063415,7.44053 4.499055,7.483598 0.463869,0.01391 2.638869,-0.473885 4.833333,-1.084 z m 9.947769,-6.608176 c -0.72276,-0.870863 -0.70819,-1.154525 0.085,-1.656458 1.35076,-0.854724 1.75722,-0.775292 2.22131,0.434096 0.81807,2.13186 -0.82764,3.004088 -2.30634,1.222362 z m 7.47657,-3.539283 c -1.51007,-0.956971 -0.61385,-3.054545 1.40463,-3.287522 1.41494,-0.163314 1.82763,0.07002 1.82763,1.033333 0,1.175218 -1.16659,2.856349 -1.96666,2.834073 -0.20167,-0.0056 -0.77119,-0.266562 -1.2656,-0.579884 z m 34.73348,2.652996 c 3.37451,-1.282984 1.87897,-5.40342 -1.95739,-5.392925 -0.66577,0.0018 -2.0996,0.714699 -3.18629,1.584172 l -1.97579,1.58086 1.63032,2.379305 c 1.41214,2.060875 1.76595,2.25657 2.64368,1.46223 0.55735,-0.504391 1.83781,-1.23053 2.84547,-1.613642 z M 90.773319,60.021454 c 2.915994,-2.840342 3.226683,-3.432399 3.226683,-6.148853 0,-5.708953 -4.574351,-9.856434 -10.884615,-9.868883 -2.247264,-0.0044 -5.782052,3.221238 -5.782052,5.276413 0,0.760482 -1.036055,2.529484 -2.302344,3.931115 -2.851784,3.156583 -2.622952,4.838458 1.108792,8.149423 2.573278,2.283125 2.804328,2.351522 7.033765,2.082212 4.16328,-0.265098 4.527895,-0.429248 7.599771,-3.421427 z m -5.193616,-4.897896 c -1.554067,-1.594106 -2.913034,-3.963864 -2.913034,-5.07973 0,-1.532775 2.564032,-0.587851 4.662587,1.718304 1.66949,1.834646 2.050985,2.681138 1.55949,3.460321 -0.970382,1.538374 -1.735179,1.515517 -3.309043,-0.09889 z m 59.804917,3.594391 c 1.42744,-1.427443 1.94872,-2.586595 1.94872,-4.333334 0,-1.311538 -0.28767,-2.384615 -0.63925,-2.384615 -0.35159,0 -1.1663,-1.483938 -1.81047,-3.297641 -1.54807,-4.358694 -3.02185,-5.085575 -9.82136,-4.84398 -5.71968,0.203228 -5.76436,0.226929 -8.88301,4.712536 -1.03026,1.481833 -1.01368,1.633053 0.29231,2.666667 1.49811,1.185667 3.10123,4.090429 3.74489,6.785529 0.39306,1.645824 0.52698,1.682803 5.14855,1.421661 2.9574,-0.167108 5.02566,0.01255 5.49,0.476889 1.20393,1.203936 2.45423,0.87168 4.52962,-1.203712 z m -6.74219,-3.688746 c 0.44313,-0.533938 0.58046,-1.335229 0.30518,-1.780646 -0.34403,-0.556654 -0.67333,-0.342688 -1.05326,0.684372 -0.3904,1.05533 -0.99455,1.431489 -2.05688,1.280646 -2.24879,-0.31931 -1.94538,-2.652486 0.49587,-3.813173 1.1,-0.522994 2.39201,-1.502036 2.87113,-2.17565 C 140.84633,46.916425 142,47.731581 142,51.2 c 0,3.4235 -0.82636,4.8 -2.88163,4.8 -1.0465,0 -1.13382,-0.178101 -0.47594,-0.970797 z M 102.43096,54 c 0.51203,0 1.26263,-0.727938 1.66801,-1.617641 0.60675,-1.331666 0.48076,-2.032322 -0.71267,-3.963321 -0.79734,-1.290124 -1.82193,-3.637186 -2.27687,-5.215693 -1.02931,-3.571403 -3.249778,-4.165551 -6.172416,-1.651604 -2.063868,1.775265 -2.151297,1.191325 1.065262,7.114926 0.69686,1.283333 1.281427,3.195833 1.299039,4.25 0.02985,1.786848 0.173127,1.888445 2.115354,1.5 C 100.5625,54.1875 101.91893,54 102.43096,54 Z m 8.35687,-5.062657 c 1.36029,-0.703432 2.8703,-0.926113 4.4669,-0.658734 5.25363,0.879815 7.81954,-0.09334 9.54397,-3.619674 1.9194,-3.925005 1.55331,-5.439366 -2.2987,-9.508768 -5.25144,-5.547821 -9.11797,-5.935648 -14.36869,-1.44123 -4.34057,3.715363 -4.93904,5.298852 -3.5217,9.317995 C 106.21873,47.589925 107.43897,50 108.14012,50 c 0.32602,0 1.51749,-0.478196 2.64771,-1.062657 z m 6.94103,-6.38419 c -1.41764,-2.023967 -1.46387,-7.886486 -0.0622,-7.886486 0.55,0 1,0.460555 1,1.023455 0,0.562901 0.4718,1.74351 1.04844,2.623577 1.15407,1.761337 1.06117,5.104876 -0.15291,5.503046 -0.42413,0.139097 -1.24913,-0.42952 -1.83334,-1.263592 z M 53.333335,114.86038 c -3.629496,-1.33455 -4.323153,-4.67338 -1.512145,-7.27853 1.434676,-1.32962 2.24823,-1.59912 3.833334,-1.26987 1.106679,0.22988 3.062144,0.58459 4.345477,0.78824 2.578253,0.40914 4.628995,2.46223 4.651843,4.65715 0.02691,2.58524 -7.2792,4.58823 -11.318509,3.10301 z m 7.028524,-3.5732 c 0.528823,-0.85565 -2.223306,-2.06034 -4.176747,-1.82828 -2.253098,0.26766 -2.730844,1.71552 -0.801558,2.42921 1.642822,0.60772 4.439996,0.27007 4.978305,-0.60093 z m 113.471481,0.3315 c -2.511,-1.36223 -2.54557,-4.34553 -0.0657,-5.67269 2.91485,-1.55999 7.82739,-1.22557 9.84536,0.67022 2.12378,1.99519 2.13086,2.36724 0.084,4.41409 -1.29352,1.29353 -2.30617,1.63077 -4.83333,1.60967 -1.75833,-0.0147 -4.02197,-0.47426 -5.0303,-1.02129 z m 6.5,-3.28535 c 0,-0.36666 -0.975,-0.76067 -2.16667,-0.87557 -2.11453,-0.20388 -2.99503,0.75128 -1.33333,1.44639 1.28262,0.53653 3.5,0.1749 3.5,-0.57082 z"
       id="path1" />
  </g>
</svg>
