<?xml version="1.0" encoding="UTF-8" standalone="no"?>
<!-- Created with Inkscape (http://www.inkscape.org/) -->

<svg
   version="1.1"
   id="svg1"
   width="220.81807"
   height="296.71204"
   viewBox="-37.947 0 296.712 296.712"
   xmlns="http://www.w3.org/2000/svg"
   xmlns:svg="http://www.w3.org/2000/svg">
  <defs
     id="defs1" />
  <g
     id="g1"
     transform="translate(-35.434467,-34.149971)">
    <path
       style="fill:currentColor"
       d="M 139,330.58946 C 119.93756,329.57545 99.988719,328.39921 82.333333,322 74.26077,318.73815 63.766918,313.24453 64.061341,302.66089 59.53714,231.07197 55.902629,159.38456 50.056262,87.887351 52.96847,73.934534 28.530169,67.615204 37.373727,55.322539 50.889739,45.796469 67.887154,42.819298 83.689557,38.925664 124.31641,32.697704 165.79835,33.246116 206.66667,36.67148 c 16.90388,2.277122 35.82696,3.400703 49.39854,14.815547 0.95487,16.813844 -2.05619,33.874602 -1.96506,50.811543 -2.86331,24.22766 -2.95016,48.83108 -4.69919,73.221 -0.26035,15.09218 -2.43379,29.95937 -2.45378,45.05126 -1.35543,11.47607 -1.38035,23.20054 -2.28051,34.7625 -1.04807,12.10524 -0.76518,24.35936 -2.49069,36.39896 -0.20544,10.15357 -0.10888,23.39281 -11.6629,26.93438 -6.35021,2.95054 -12.54488,5.96583 -19.72975,6.86249 -11.17925,3.64925 -23.55173,3.22279 -35.29979,4.9986 -12.15384,0.42519 -24.32824,0.4436 -36.48354,0.0617 z m 40.33333,-5.92279 c 11.6819,-0.63428 23.12928,-2.63007 34.45209,-4.8625 5.11552,-2.0923 10.95815,-3.15715 15.21458,-6.47084 10.6537,-5.12154 7.09992,-19.59756 8.67324,-29.50922 4.27913,-73.55457 8.57137,-147.13368 13.54603,-220.628211 -6.22038,-0.277067 -12.24132,4.677695 -18.92563,5.244309 -20.3287,3.812946 -41.09888,5.915551 -61.93114,5.649012 -30.08121,0.151845 -60.49719,0.778269 -90.123155,-4.755887 -11.700291,-1.876855 -23.463053,-6.709742 -35.634726,-4.443211 4.822296,7.759225 11.201324,15.431582 11.197477,25.505268 3.077875,36.38381 4.437308,72.91336 7.577794,109.27535 5.363186,4.40352 12.657164,15.68934 18.937242,15.04697 0.268517,-12.04148 -9.326426,-20.56892 -15.569034,-29.58487 8.7898,-6.60905 11.785723,-20.16402 15.981817,-27.6667 10.673953,7.91071 19.701175,17.73121 30.103325,25.93766 10.74325,-2.99845 18.4799,-15.59802 27.92699,-22.51247 7.07182,-10.71825 16.77829,-11.68503 23.90846,-0.22879 9.24813,7.30483 17.22073,19.40029 27.86992,22.74549 12.69593,-9.5331 23.55558,-21.41487 35.85975,-31.39118 4.15031,10.37611 10.63195,-10.07642 13.0764,-4.66224 -3.42305,6.09093 -5.80759,15.1514 -0.80809,20.97872 -4.36086,2.53716 -11.81343,-15.69608 -14,-9 0.0165,8.72475 4.40058,15.8937 9.38279,22.5 6.85998,5.65428 -5.7724,10.53194 -7.38279,17.5 -7.74759,3.72444 -6.49202,26.02093 2.51379,13.1374 3.20774,-6.58699 12.53243,-10.99964 5.52284,-1.32268 -8.70633,5.49994 -8.64003,12.15035 -0.0741,17.73886 3.07232,9.85685 -13.43818,-14.45384 -11.96249,0.74264 -1.2021,9.56611 9.06251,15.73282 10.01638,23.57222 -4.92439,6.64425 -11.43814,12.77322 -12.66659,20.95459 -0.49466,18.49118 16.41842,-17.59031 11.78771,-2.54803 -6.60336,6.14988 -7.29445,14.69328 -0.70893,19.39167 -3.8925,-2.32409 -15.67163,-4.78144 -12.6244,3.47084 7.12992,-5.67126 4.68762,2.48887 -1.80417,2.86249 -6.23565,3.30916 -14.09999,2.77134 -19.58594,7.60833 -6.2496,2.42909 -11.72881,14.56462 -1.08073,9.72501 7.74208,-1.73332 16.73696,-1.74262 22.41717,-7.41545 -7.57367,-6.17543 15.45532,-3.76954 3.80763,2.8595 -5.54925,3.28802 -11.82172,4.97461 -18.2248,6.55595 -24.9049,5.3406 -51.1065,4.31856 -76.60814,3.58497 -12.80361,-0.83332 -25.25806,-3.03984 -37.675834,-5.91301 -4.857152,-1.11955 -21.059919,-9.69027 -7.088704,-9.0053 4.614598,0.32838 19.509818,-4.5609 17.600888,2.53623 -6.362878,-0.66103 -17.646971,0.52168 -6.20946,3.93461 5.63859,0.98534 25.51642,6.15164 12.66084,-2.48579 -6.86016,-11.54268 7.88343,9.48979 10.87772,-0.6123 7.99222,-3.42685 -3.91713,13.32294 5.10936,3.96059 5.63574,-3.4605 11.95729,-10.5795 -0.0128,-8.84682 -8.13275,-3.44898 -25.30907,1.94702 -26.879006,-8.65318 8.872626,3.39478 18.520826,5.06192 28.185806,6.16666 8.75543,3.38099 15.24297,-1.23002 21.02862,-7.68803 1.86255,-9.76393 -15.54294,-17.56008 -21.71722,-26.24145 -6.00468,-7.97951 -11.62264,-5.93516 -4.35994,1.54636 6.41208,5.61174 16.50425,13.5207 20.00411,18.96389 -11.13801,-1.34095 -18.56004,-24.8849 -29.8012,-15.05807 -3.81249,5.00875 -13.717079,10.1959 -4.20747,2.02013 8.67527,-2.63559 12.32953,-22.9925 1.72221,-12.20947 -7.63395,6.23995 -14.636758,13.31416 -22.286908,19.18247 -4.256306,5.1719 17.931628,18.98115 3.845779,15.65858 -5.600203,0.17023 -12.770626,-6.55377 -3.847235,-5.08724 2.994588,-14.44992 -18.79405,7.27857 -10.341406,-5.08717 5.873076,-4.87192 -5.074656,-14.81398 -7.625224,-17.13668 -0.780369,12.41438 -0.975508,27.14289 3.740829,39.03487 4.788511,5.93467 11.956426,7.03927 18.551062,9.43515 9.170503,3.13641 19.155963,4.20916 29.000003,5.33333 19.13818,2.26574 38.63872,1.21739 57.91912,0.9537 z m 24,-19.33334 c 3.42664,-4.96343 9.38667,2.47577 0,0 z m -85.66666,-10 c 2.65048,-2.7694 4.80294,2.55471 0,0 z m -11.6309,-2.10688 C 100.93461,291.47695 93.178968,275.92459 100,281.33333 c -0.371752,6.33149 9.29204,11.07439 13.75569,13.02558 -2.52667,0.72857 -5.395,-0.077 -7.71992,-1.13246 z m 129.29756,-73.89312 c 3.08037,-2.69628 3.58476,2.60958 0,0 z M 65.333333,169.16966 c 7.425642,-6.72765 -3.471477,-21.31274 -1.005682,-23.17298 6.5947,4.60226 8.30294,16.61602 15.005682,6.00332 2.494021,4.6134 -10.843339,13.22246 -14,17.16966 z m 30.486942,-12.62701 c -4.985066,-7.43648 6.698075,6.61238 0,0 z M 206,158.31884 c 2.94616,-5.65301 14.23765,-13.27278 5.33333,-3.65751 -1.75576,-0.0395 -3.67441,5.16849 -5.33333,3.65751 z m -117.978798,-9.2149 c 3.497052,-10.14028 6.909809,1.5665 0,0 z M 234.25907,134.5 c 1.22703,-18.01247 1.95655,-36.119817 4.23096,-54.024076 6.85577,-5.630822 0.23815,12.087905 1.98904,16.477997 -1.37928,12.474739 -2.14751,24.966449 -3.04496,37.512479 0.83471,6.51628 -5.23686,11.66025 -3.24543,1.67411 L 234.2591,134.5 Z m -165.188492,5.46523 c -1.208024,-16.08678 -2.456291,-32.23555 -2.887861,-48.348255 3.626031,11.078625 2.415934,26.022355 3.675012,38.618045 -0.08471,1.79251 0.976817,13.40463 -0.787151,9.73021 z M 217,79.568109 c 5.8703,0.15749 24.71739,-7.373226 22.91695,-3.89339 -7.24031,1.959483 -15.15997,5.069108 -22.91695,3.89339 z M 80.333333,78 c -14.653551,-3.621607 13.812081,1.284576 1.013809,0.451471 z m -7.125,-2.455409 c 3.846899,-0.420421 -1.264531,1.174557 0,0 z M 56.359759,71.101762 c -2.704272,-4.580736 4.555396,3.086355 0,0 z M 159.33333,318 c 6.98881,-1.339 30.00485,1.61995 13.92681,-7.68847 -3.28992,-5.29064 -8.44476,-5.47964 -14.04638,-4.9782 -7.68749,0.69617 -17.02038,-1.89736 -23.40711,2.66667 -5.02052,2.33222 -15.6078,10.88697 -2.92016,9.32375 8.89591,-0.63364 17.62387,2.86657 26.44684,0.67625 z m 29.8856,-8.61556 c 13.20593,-9.84515 -11.43841,-6.99721 -13.61376,-3.30709 3.62532,2.01348 10.03887,8.74075 13.61376,3.30709 z m -26.55226,-7.33004 c -4.00752,-6.43725 -12.2471,-12.82054 -16.69809,-2.86153 -7.35163,6.46718 15.84454,2.37347 16.69809,2.86153 z M 175.33333,302 c 11.38449,-1.41674 22.27831,-2.95466 33.33334,-5.33333 C 220.27075,293.26152 225.95225,280.29662 212,275.33333 205.52138,270.43613 199.46294,264.6923 192.85283,260 c -5.83596,-2.09156 -12.33411,7.49526 -17.58852,11.5087 -6.39846,8.52116 -28.28046,18.28726 -10.34147,27.17791 3.02576,2.58426 6.06504,5.61699 10.41049,3.31339 z M 194,295.33333 c 1.71109,-2.43745 10.83583,-12.11126 9.82111,-6.01413 -1.99747,2.17012 -7.44589,6.74555 -9.82111,6.01413 z M 162,290 c 5.89518,-4.18445 7.59005,1.25159 0,0 z m 8.66667,-6.66667 c 5.26148,-6.07463 12.29699,-11.94957 17.05367,-19.0406 6.47484,4.2453 13.6543,12.77718 19.89871,18.37394 -3.65283,4.65762 -14.19306,-15.59697 -20.95238,-12 -5.55301,3.36999 -10.01553,11.52006 -16,12.66666 z m -13.04856,0.5 c 9.36099,-8.39037 18.37336,-17.29967 27.89105,-25.40691 -0.24867,-10.64976 -16.07073,-16.97544 -22.73157,-25.68059 -6.15702,-10.22089 -14.49493,-8.00795 -20.82087,0.5875 -6.81424,5.65591 -13.50426,11.58416 -19.98702,17.33334 -9.97221,10.15 13.92686,18.19615 18.80921,27.28099 5.62528,2.97846 11.13566,15.41051 16.8392,5.88567 z m -5.46344,-3.16666 c 0.36993,-4.55116 0.36993,4.55114 0,0 z M 170,253.33333 c -9.00961,-7.35322 -17.71339,-23.13697 -27.12665,-7.80417 -2.53411,2.73323 -14.08426,12.64164 -6.21176,3.22829 5.37471,-5.53076 13.52206,-11.60013 16.36876,-17.15567 4.36095,9.1002 20.40328,17.49009 20.80298,24.36749 l -1.73422,-0.75432 z M 83.373629,278.9059 c 2.859056,-12.27629 -10.960756,-20.78717 -13.256963,-30.11992 5.673778,-6.48127 17.244517,-18.23809 9.235767,-26.11931 -11.827261,7.03895 -16.965633,16.99353 -13.557106,30.39655 -1.911312,11.42104 7.110788,17.01246 12.433507,25.28609 1.47505,1.43566 4.586904,4.82198 5.144795,0.55659 z M 73.100442,239.02135 c 0.17003,-4.73977 1.882614,3.27823 0,0 z m 146.721968,38.58482 c 2.67927,-6.41174 -16.72844,-19.99342 -9.37599,-18.90201 5.04101,6.64293 12.66755,11.63557 15.83519,0.28696 10.92209,-6.92587 -4.82827,-29.00461 -11.65276,-13.62621 -1.94717,4.86144 -13.21712,12.24587 -4.6476,3.10274 3.50692,-5.38636 15.31451,-17.30219 11.94152,-21.01765 -6.78505,5.5467 -11.64161,10.98336 -18.30913,16.96488 -6.51457,5.35568 -13.57243,12.10238 -2.81288,17.73871 6.06319,4.55473 12.83754,14.10779 19.02165,15.45258 z M 90,274.66667 c 5.403523,-8.2157 29.64724,-16.32403 16.1134,-25.81287 -7.027974,-5.83332 -15.788948,-18.82817 -22.584234,-19.7163 2.717622,7.83485 8.747017,15.0285 15.000677,21.43989 4.065207,8.4946 -9.623006,16.66065 -12.529843,24.75594 0.765402,1.5613 3.235366,0.22539 4,-0.66666 z m -3.234495,-8 c 3.618194,-5.51995 17.315305,-10.28783 8.901162,-16 -5.518272,-2.38207 -9.982881,-19.38507 -15.5875,-9.56203 -11.30978,7.56301 -0.654087,16.38351 3.875908,24.22869 1.37377,0.53196 1.053296,3.89695 2.81043,1.33334 z m 120.237865,-29.6633 c 6.38137,-7.99876 23.9602,-16.87679 8.74929,-25.28162 -8.04731,-6.88175 -15.58437,-16.37818 -24.62072,-21.02678 -10.46314,5.12852 -17.58373,15.59781 -26.97277,22.49768 -15.78529,9.59492 3.35872,18.99685 10.75259,26.97402 6.94926,6.38033 15.65015,19.41349 22.83437,5.94713 3.11367,-3.00827 6.1953,-6.04957 9.25724,-9.11043 z m -18.3367,7.6633 c 0.3604,-11.65567 23.8341,-19.00923 13.03157,-29.76958 -5.70451,-5.51036 -13.01019,-18.57582 -18.61661,-6.15126 -3.50367,3.73904 -21.27622,19.13771 -10.45112,6.89788 6.2167,-3.20373 14.20992,-20.24161 17.56532,-17.36871 3.62908,8.80105 22.69044,15.97474 17.1375,25.05833 -5.75231,8.68949 -14.04726,14.89296 -17.61752,24.33271 -1.49246,1.32545 -0.58218,-3.56694 -1.04914,-2.99937 z m -74,6.66666 c 9.40897,-5.10629 16.89616,-13.83734 25.36535,-20.6117 9.7873,-4.48145 10.06896,-11.79129 1.30131,-16.72163 -9.42482,-7.48148 -16.58848,-17.31514 -27.00598,-23.30401 -8.58568,3.09829 -14.538359,13.55733 -22.527449,18.82536 -10.960606,5.63634 -10.415596,14.3424 -0.352312,20.6052 7.54738,6.69327 15.152641,17.35893 23.219081,21.20678 z m -0.54775,-4.43959 c -5.05009,-9.50309 -12.76557,-17.09706 -18.004301,-26.44393 4.111831,-8.15827 16.689071,-20.7809 20.258301,-23.86439 4.24461,9.44807 15.67014,15.26326 20.12916,24.61085 -9.82562,-2.86339 -18.63221,-26.78329 -27.9057,-12.44707 -7.41646,5.81638 -12.846599,13.02657 -3.68256,20.19582 4.02345,5.1934 15.34578,12.38372 9.89677,19.85048 z M 67.921803,230.74783 c 7.189749,-6.54361 12.789414,-13.38273 2.744864,-20.71633 -2.599342,-5.35333 -9.265102,-11.39804 -7.114459,-0.7763 1.773285,4.65204 -2.338435,24.17996 4.369595,21.49263 z m 1.41153,-12.80339 c 2.198992,-6.13229 1.97442,6.82046 0,0 z M 156.9244,216.5 c 10.20523,-9.86219 21.53215,-18.7263 31.0756,-29.17346 -10.56167,-11.56141 -22.55241,-21.8444 -34.30914,-32.1913 -10.24716,3.77038 -17.46867,15.79227 -26.93619,22.19417 -9.52115,5.36033 -10.11488,14.4907 -0.0354,19.1508 9.09284,6.90573 17.51464,19.95751 27.44034,22.47704 l 1.31478,-1.10219 z m 9.74227,-20.0854 c 13.62309,-9.05453 -7.49215,-20.01737 -14.87227,-25.57327 -6.84984,3.54633 -15.78993,18.02983 -20.58069,15.55712 7.42407,-5.36115 17.17833,-19.59379 23.45296,-19.06512 4.47614,8.03141 26.60868,16.27536 16.33333,25.69136 -1.40957,1.13615 -2.49606,2.85877 -4.33333,3.38991 z m -75.989641,10.91873 c 5.486794,-7.69047 20.366531,-13.19641 19.252551,-22.79734 -9.78301,-6.77982 -16.937037,-18.01747 -27.537925,-23.0578 0.365421,10.69148 11.793772,17.29528 17.934595,25.41915 -3.994132,5.49257 -9.730621,13.22949 -14.374899,19.50768 -3.590841,7.91666 1.099249,4.91065 4.725678,0.92831 z m 129.989641,2.54734 c -0.14385,-9.43509 -14.93167,-16.72545 -13.37554,-24.19224 6.58472,-7.91735 14.80427,-15.20911 18.70887,-24.3551 -6.99305,-1.71289 -14.11063,10.4457 -20.04158,14.66667 -2.07209,4.02824 -14.70854,8.9455 -9.98362,13.42759 7.72628,7.45913 15.36584,15.54846 24.25772,21.21839 z M 85.333333,203.14546 c 5.063836,-7.1918 17.605327,-15.16505 5.333334,-22.46883 -4.165959,-9.02279 -13.475858,-10.60412 -16.181836,-0.71572 -8.845223,7.36821 7.327956,17.27915 10.848502,23.18455 z m 139.837947,-4.1679 c 5.85222,-6.70804 12.51759,-15.20842 3.66746,-22.0359 -3.29471,-13.69351 -12.83889,4.33084 -17.88081,8.42846 -3.26969,4.90925 10.30852,19.37131 14.21335,13.60744 z M 184.33333,69.003631 c 22.1505,-1.687389 45.21508,-3.184985 65.5819,-12.736343 C 251.50943,48.725613 238.1668,47.922417 232.33333,46 194.87908,38.085838 155.87579,38.278405 117.67326,40.273975 c -19.660988,1.505412 -39.288599,3.213237 -57.830881,9.791001 -6.360502,0.900622 -27.720673,10.217045 -9.853708,9.268357 18.174609,0.247852 35.530071,6.958146 53.694769,7.931604 26.76911,2.794698 53.78544,3.377433 80.64989,1.738694 z M 67.333333,54.231954 c 6.566321,-2.477429 19.41693,-6.059108 23,-5.108553 -7.352764,1.713554 -16.599454,4.634882 -23,5.108553 z"
       id="path1" />
  </g>
</svg>
