<?xml version="1.0" encoding="UTF-8" standalone="no"?>
<!-- Created with Inkscape (http://www.inkscape.org/) -->

<svg
   version="1.1"
   id="svg1"
   width="112.57155"
   height="245.65938"
   viewBox="-66.5439 0 245.659 245.659"
   xmlns="http://www.w3.org/2000/svg"
   xmlns:svg="http://www.w3.org/2000/svg">
  <defs
     id="defs1" />
  <g
     id="g1"
     transform="translate(-48.082199,-13.653246)">
    <g
       id="g2">
      <path
         style="fill:currentColor;fill-opacity:1"
         d="m 70.404524,258.33549 c -0.816792,-0.61831 -1.287264,-1.84582 -1.333334,-3.4788 -0.03915,-1.38785 -0.296188,-2.44836 -0.571188,-2.35669 -0.275,0.0917 -0.8,0.16667 -1.166667,0.16667 -0.366667,0 -0.666667,0.40619 -0.666667,0.90265 0,0.49646 -0.76917,1.7326 -1.709267,2.74698 -1.440324,1.55413 -2.080864,1.78403 -4.070942,1.46108 -2.626098,-0.42615 -4.326625,-2.16399 -3.859369,-3.94405 0.168435,-0.64166 0.476461,-1.76666 0.684503,-2.5 0.263014,-0.9271 0.0599,-1.33333 -0.666666,-1.33333 -0.574709,0 -1.644926,0.6 -2.378259,1.33333 -4.390087,4.39009 -8.707936,-2.50284 -5.435461,-8.67706 1.279003,-2.41312 5.395342,-5.17595 7.850554,-5.26919 1.594059,-0.0605 6.918241,-5.47754 6.918241,-7.03885 0,-0.55819 0.27363,-1.0149 0.608068,-1.0149 0.334437,0 0.810807,-1.2 1.058598,-2.66666 C 65.91446,225.2 66.390829,224 66.725267,224 c 0.334437,0 0.609916,-0.525 0.612175,-1.16667 0.0023,-0.64166 0.452259,-2.02596 1,-3.0762 0.547741,-1.05025 0.997741,-2.25025 1,-2.66667 0.0023,-0.41642 0.386234,-1.50713 0.853278,-2.42379 C 70.657764,213.75 71.621235,211.2 72.331766,209 c 0.710531,-2.2 1.676556,-4.59175 2.146722,-5.315 0.470166,-0.72326 0.854847,-2.46969 0.854847,-3.88096 0,-2.45422 1.157413,-4.47071 2.566078,-4.47071 0.363723,0 0.863427,-0.9202 1.110452,-2.0449 0.247026,-1.1247 0.869014,-2.8497 1.382197,-3.83334 0.513182,-0.98363 0.934907,-2.31342 0.937166,-2.95509 0.0023,-0.64167 0.269159,-1.16667 0.59311,-1.16667 0.323952,0 0.709918,-1.89893 0.857704,-4.21986 0.240331,-3.77432 0.522878,-4.48157 2.676152,-6.69873 1.464426,-1.50787 2.588697,-3.44499 2.870152,-4.94528 0.254486,-1.35652 0.772786,-2.65805 1.151779,-2.89228 0.378993,-0.23423 0.842736,-2.57345 1.030541,-5.19826 0.297603,-4.15939 0.586573,-5.00373 2.249733,-6.57349 1.049548,-0.9906 1.90827,-2.14278 1.90827,-2.56039 0,-0.41762 0.448152,-1.61859 0.995893,-2.66884 0.547741,-1.05024 0.997741,-2.37453 1,-2.94287 0.0023,-0.56833 0.315356,-1.34458 0.695771,-1.72499 0.380415,-0.38042 0.785209,-2.37783 0.899541,-4.4387 0.157327,-2.83583 0.645859,-4.32126 2.008926,-6.10834 0.99058,-1.29871 2.05173,-2.3613 2.3581,-2.3613 0.30637,0 0.75844,-1.34301 1.00459,-2.98446 0.24615,-1.64145 0.73022,-3.15916 1.0757,-3.37268 0.34548,-0.21352 0.62999,-0.89551 0.63225,-1.51554 0.002,-0.62003 0.48126,-2.02732 1.06443,-3.12732 0.58318,-1.1 1.21796,-3.8 1.41062,-6 0.26706,-3.0496 0.76655,-4.4752 2.10223,-6 2.12754,-2.42877 3.41862,-4.66254 3.41862,-5.91475 0,-0.51306 0.44815,-1.79213 0.99589,-2.84238 0.54774,-1.050245 0.99774,-3.288445 1,-4.973778 0.005,-3.530747 1.37799,-6.679814 3.7144,-8.517637 0.89597,-0.704765 1.81643,-2.218399 2.04547,-3.36363 0.22905,-1.14523 0.6777,-2.2437 0.99701,-2.441043 0.31931,-0.197342 0.58056,-1.950642 0.58056,-3.896221 0,-3.229 1.13537,-5.845911 3.3482,-7.717228 0.94996,-0.803355 1.917,-4.663147 2.15856,-8.615563 0.23495,-3.84448 0.47799,-4.462791 2.37747,-6.04855 1.18786,-0.991666 2.11577,-2.402884 2.11577,-3.217771 0,-0.798297 0.27363,-1.451449 0.60807,-1.451449 0.33444,0 0.81054,-1.198428 1.05801,-2.663173 0.24746,-1.464745 0.72383,-2.83245 1.0586,-3.039345 0.33476,-0.206894 0.6105,-0.883466 0.61276,-1.503493 0.002,-0.620027 0.45226,-1.986614 1,-3.03686 1.06817,-2.04813 1.34162,-5.090462 0.45753,-5.090462 -1.1329,0 -3.0602,-5.769405 -3.02212,-9.046758 0.0524,-4.512842 1.97354,-7.61595 6.56048,-10.596999 2.53516,-1.647592 10.74482,-1.867848 12.58813,-0.337725 3.77848,3.136516 5.03395,4.579263 6.00106,6.896231 1.16412,2.788987 1.44488,7.446162 0.48467,8.039607 -0.32605,0.201508 -0.78818,1.144783 -1.02697,2.096165 -0.38084,1.517423 -1.36971,2.656589 -4.92666,5.675459 -0.48388,0.410677 -2.07006,0.906337 -3.52484,1.101465 -2.34336,0.31431 -2.79433,0.682408 -3.95356,3.22709 -0.71967,1.579772 -1.30849,3.14268 -1.30849,3.47313 0,0.33045 -0.51083,1.621909 -1.13517,2.869909 -0.67631,1.351888 -1.08113,3.53473 -1.00149,5.400179 0.14389,3.370402 -1.37778,6.7516 -3.83257,8.516086 C 138.61385,62.519785 138,63.224446 138,63.54642 c 0,0.321974 -0.41231,1.530747 -0.91625,2.686161 -1.61093,3.693489 -2.60913,8.002654 -2.68076,11.572627 -0.0631,3.146055 -0.33555,3.742776 -2.90299,6.358567 -1.55833,1.587682 -2.83333,3.43 -2.83333,4.09404 0,0.66404 -0.42036,2.152685 -0.93412,3.308099 -1.79758,4.042572 -2.28541,6.336598 -1.92265,9.041176 0.24142,1.79993 0.10932,2.72624 -0.38878,2.72624 -0.41495,0 -0.75445,0.4348 -0.75445,0.96621 0,0.53142 -0.84317,1.80642 -1.87371,2.83334 -1.03055,1.02691 -2.42499,3.51712 -3.09876,5.53379 -0.67377,2.01666 -1.44596,3.96666 -1.71597,4.33333 -0.84995,1.15421 -1.59756,5.23877 -1.40757,7.69025 0.14925,1.92574 -0.29306,2.90143 -2.41775,5.33333 -1.43023,1.63703 -2.78001,3.57642 -2.99951,4.30975 -0.2195,0.73334 -0.85565,2.53334 -1.41365,4 -0.55801,1.46667 -1.02772,4.10657 -1.04382,5.86644 -0.0329,3.59604 -1.08697,6.03828 -3.63258,8.41644 -0.95151,0.88891 -1.73001,2.25391 -1.73001,3.03333 0,0.77942 -0.33233,1.74945 -0.7385,2.15563 -0.40618,0.40617 -0.90126,2.79117 -1.10019,5.3 -0.35787,4.51342 -1.24014,6.64032 -3.827981,9.22816 -1.721727,1.72173 -4.459445,9.14698 -4.793151,13 -0.43211,4.98921 -0.78693,5.86276 -3.453819,8.50312 -2.267847,2.2453 -2.60147,2.99357 -2.89092,6.48396 -0.179966,2.17015 -0.672563,4.06085 -1.094661,4.20155 -0.422097,0.1407 -0.769297,0.75582 -0.771556,1.36693 -0.0023,0.61111 -0.452259,1.9704 -1,3.02065 -0.547741,1.05024 -0.995893,2.40849 -0.995893,3.01833 0,0.60983 -0.385627,1.70054 -0.856948,2.42379 -0.471321,0.72325 -1.401708,2.96501 -2.067526,4.98167 -0.665819,2.01667 -1.630192,4.61201 -2.143053,5.76742 -0.51286,1.15542 -0.932473,2.52042 -0.932473,3.03334 0,0.51292 -0.375,1.30734 -0.833334,1.76539 -1.077747,1.07708 -1.155698,12.60679 -0.08985,13.29036 0.408914,0.26226 0.95413,1.15183 1.211592,1.97683 0.257462,0.825 0.747896,1.5 1.089854,1.5 1.003778,0 0.712647,6.27959 -0.393973,8.49786 -1.048575,2.10192 -3.623571,4.18482 -5.127497,4.1476 -0.471234,-0.0117 -1.424754,-0.45115 -2.118933,-0.97664 z m 4.665066,-3.50216 c 0.198592,-0.64166 0.639176,-1.68759 0.979077,-2.32428 0.950013,-1.77954 0.753258,-2.98476 -0.928737,-5.68896 -1.948687,-3.13299 -3.786595,-7.76423 -3.786595,-9.54165 0,-1.55019 1.686872,-7.25243 3.070436,-10.37919 0.51126,-1.15542 0.929564,-2.73042 0.929564,-3.5 0,-0.76959 0.3,-1.39925 0.666667,-1.39925 0.366667,0 0.668515,-0.525 0.670774,-1.16667 0.0023,-0.64166 0.452259,-2.02596 1,-3.0762 0.547741,-1.05025 0.997741,-2.25025 1,-2.66667 0.0023,-0.41642 0.423984,-1.56192 0.937166,-2.54555 0.513183,-0.98364 1.146614,-2.78364 1.407625,-4 0.26101,-1.21637 0.654328,-2.51158 0.874038,-2.87824 0.689249,-1.15026 3.41656,-9.2494 3.190706,-9.47525 -0.118313,-0.11831 -1.503904,0.36189 -3.079092,1.06713 -2.851023,1.27644 -5.256313,4.70637 -5.311929,7.57478 C 76.676848,205.475 76.366669,206 76.000002,206 c -0.366667,0 -0.668515,0.525 -0.670774,1.16667 -0.0023,0.64166 -0.441042,2.00434 -0.975074,3.02816 -0.534032,1.02382 -1.165571,2.89882 -1.40342,4.16666 -0.237849,1.26785 -0.672697,2.30518 -0.966328,2.30518 -0.29363,0 -0.736347,1.19842 -0.983814,2.66317 -0.247467,1.46475 -0.723836,2.83245 -1.058599,3.03934 -0.334762,0.2069 -0.608658,0.83813 -0.608658,1.40275 0,0.98738 -0.906287,3.28305 -3.238774,8.20396 -0.602008,1.27007 -1.994559,3.16411 -3.094559,4.20896 -1.976175,1.87711 -6.849801,4.48182 -8.385858,4.48182 -2.182163,0 -5.514334,6.67078 -4.307544,8.62341 1.046464,1.69321 3.042791,0.66123 4.430071,-2.29008 1.483738,-3.15652 2.516175,-3.65192 4.168092,-2 0.55,0.55 1.429827,1 1.955172,1 1.035608,0 0.811976,3.04539 -0.272868,3.71586 -0.322886,0.19956 -0.587065,1.39512 -0.587065,2.65682 0,2.01006 0.208873,2.29399 1.687589,2.29399 0.998804,0 1.863277,-0.47618 2.118039,-1.16667 0.236748,-0.64167 0.63102,-1.31667 0.876161,-1.5 0.245141,-0.18333 0.867024,-1.2 1.381961,-2.25926 0.514937,-1.05926 1.115141,-1.80926 1.333787,-1.66667 0.218645,0.1426 0.906359,-0.16302 1.528254,-0.67915 1.857191,-1.54133 2.765705,0.0991 2.569167,4.63884 C 71.328392,255.88128 71.373916,256 73.015884,256 c 1.030032,0 1.833978,-0.4567 2.053706,-1.16667 z M 64.000002,243.22401 c 0,-1.59639 2.289781,-5.89068 3.141,-5.89068 0.968229,0 0.660718,2.48698 -0.638851,5.16667 -0.759078,1.56521 -2.502149,2.06957 -2.502149,0.72401 z m 19.333333,-49.07785 c 0,-0.28628 0.897102,-0.85913 1.99356,-1.27299 1.096457,-0.41387 2.277952,-1.5005 2.625544,-2.41474 0.347592,-0.91423 0.950491,-1.85909 1.339775,-2.09968 0.389283,-0.24059 0.709637,-1.24473 0.711895,-2.23143 0.0023,-0.98669 0.423984,-2.59878 0.937167,-3.58241 0.513183,-0.98364 1.149024,-2.78364 1.412981,-4 0.263957,-1.21637 0.780666,-2.40304 1.148244,-2.63704 0.367577,-0.23401 0.462182,-0.75901 0.210234,-1.16667 -0.570011,-0.92229 -2.379399,-0.97897 -2.379399,-0.0745 0,0.36666 -0.404097,0.66666 -0.897994,0.66666 -1.578518,0 -3.573922,2.26232 -4.097338,4.64542 -0.279148,1.27095 -0.754863,2.77067 -1.057143,3.3327 -0.302281,0.56204 -1.039162,2.22188 -1.637513,3.68855 -0.598352,1.46667 -1.493454,3.6111 -1.989116,4.7654 -0.495662,1.15431 -0.720634,2.27931 -0.499939,2.5 0.580614,0.58062 2.179042,0.49315 2.179042,-0.11924 z m 9.851424,-22.8134 c 2.478638,-1.29193 3.979202,-3.633 5.127432,-7.99943 0.467871,-1.77919 1.438582,-4.21681 2.486999,-6.24526 0.36175,-0.69991 0.39125,-1.49763 0.0674,-1.82151 -0.76504,-0.76504 -6.219879,1.96279 -6.663425,3.33221 -0.190236,0.58734 -0.763764,2.01324 -1.274508,3.16865 -0.510743,1.15541 -0.928625,2.54612 -0.928625,3.09046 0,0.54434 -0.448151,1.849 -0.995893,2.89925 -0.938227,1.79897 -1.376221,4.90954 -0.691302,4.90954 0.172042,0 1.464421,-0.60026 2.871952,-1.33391 z m 6.386672,-18.99943 c 0.549999,-0.55 1.464429,-1 2.032059,-1 1.16282,0 3.49214,-4.38832 4.12777,-7.77652 0.23094,-1.23101 0.68588,-2.4026 1.01098,-2.60352 0.3251,-0.20092 0.5911,-0.82727 0.5911,-1.39188 0,-0.56462 0.48927,-2.05764 1.08727,-3.31783 0.598,-1.26019 0.9334,-2.44513 0.74533,-2.6332 -1.16131,-1.16131 -7.16163,2.57709 -7.17004,4.46719 -0.002,0.50733 -0.42399,1.72722 -0.93717,2.71086 -0.51318,0.98363 -1.139611,2.72884 -1.392061,3.87824 -0.25245,1.14939 -0.878877,2.8946 -1.392059,3.87824 -1.061663,2.03492 -1.246954,4.78842 -0.322227,4.78842 0.340477,0 1.069048,-0.45 1.619048,-1 z m 9.017509,-22.06115 c 2.64249,-1.31824 3.60088,-2.77998 5.42368,-8.27218 0.79099,-2.38333 1.86175,-5.27867 2.37945,-6.43409 0.51769,-1.15541 0.94127,-2.55541 0.94127,-3.11111 0,-0.55569 0.375,-1.14786 0.83333,-1.31591 0.6628,-0.24303 0.6594,-0.48973 -0.0166,-1.20553 -0.68083,-0.72088 -1.1102,-0.73746 -2.15762,-0.0833 -0.71921,0.44915 -1.63315,0.81664 -2.03098,0.81664 -0.9603,0 -2.62809,1.70388 -2.62809,2.68496 0,0.42911 -0.40926,1.72554 -0.90946,2.88095 -0.5002,1.15541 -1.3741,3.30075 -1.942,4.76742 -4.21871,10.89533 -4.21257,11.4271 0.10706,9.27218 z M 119.5,105.20047 c 1.00834,-0.71019 1.83334,-1.85313 1.83334,-2.53985 0,-0.68673 0.27389,-1.41787 0.60865,-1.62477 C 122.27676,100.82896 122.75286,99.462824 123,98 c 0.24715,-1.462824 0.68924,-2.807938 0.98244,-2.989143 0.29319,-0.181205 0.73068,-1.382777 0.9722,-2.67016 C 125.19615,91.053314 125.68016,90 126.03021,90 c 0.81907,0 0.83224,-2.466981 0.0159,-2.97153 -0.34133,-0.210954 -0.80904,-0.07866 -1.03935,0.293989 C 124.77642,87.695106 124.11559,88 123.53822,88 c -1.54465,0 -4.14089,3.328324 -4.63187,5.937977 -0.23503,1.249221 -0.83326,3.049221 -1.3294,4 -0.49614,0.950779 -0.90391,2.069393 -0.90617,2.485823 -0.002,0.41642 -0.45226,1.61642 -1,2.66666 -1.52445,2.92299 -1.33067,4.43411 0.49589,3.867 0.825,-0.25615 2.325,-1.04679 3.33333,-1.75699 z m 7.66235,-21.967474 c 2.27368,-1.405213 4.30323,-4.779326 3.74687,-6.229165 -0.15463,-0.402963 0.44158,-2.091919 1.32491,-3.753236 1.2644,-2.378004 3.09921,-8.466043 3.09921,-10.283409 0,-0.165286 -0.48958,-0.300519 -1.08795,-0.300519 -1.57345,0 -5.39246,4.300951 -5.90956,6.655329 -0.24297,1.106236 -0.71793,2.011337 -1.05546,2.011337 -0.33754,0 -0.61555,0.675 -0.61781,1.5 -0.002,0.825 -0.42398,2.304792 -0.93716,3.288427 -0.51319,0.983634 -1.13442,2.705194 -1.38052,3.825688 -0.2461,1.120494 -0.72438,2.208407 -1.06283,2.417585 -1.02905,0.635983 -0.68703,2.301634 0.4726,2.301634 0.59838,0 2.13185,-0.645152 3.4077,-1.433671 z m 7.84126,-22.278488 c 4.31094,-2.925477 6.14005,-5.890826 4.11335,-6.668542 C 137.75463,53.763189 132,56.477597 132,57.642975 c 0,0.56303 -0.3,1.023692 -0.66666,1.023692 -0.74153,0 -0.92013,2.857651 -0.22223,3.555555 0.71132,0.711317 1.2207,0.545423 3.8925,-1.267714 z m 4.61559,-9.866559 C 140.92864,49.852987 142,48.387279 142,47.83082 c 0,-0.556459 0.44816,-1.871036 0.9959,-2.921282 0.54774,-1.050246 0.99774,-2.416833 1,-3.03686 0.002,-0.620027 0.31867,-1.321735 0.70314,-1.559352 C 145.58754,39.764206 144.22955,38 142.91837,38 142.41327,38 142,37.7 142,37.333333 c 0,-1.394171 -1.39441,-0.587536 -2.01678,1.166667 -0.35775,1.008333 -0.95033,2.354263 -1.31684,2.990954 C 138.29987,42.127646 138,43.117544 138,43.690727 c 0,0.573184 -0.4099,1.852255 -0.9109,2.84238 -0.50099,0.990124 -1.11459,2.925226 -1.36354,4.300226 -0.58768,3.245845 0.63709,3.325936 3.89364,0.254616 z m 12.24724,-15.35794 c 4.43498,-2.307514 6.60195,-7.030679 5.48922,-11.96438 -1.31999,-5.852647 -8.3272,-9.371107 -13.82429,-6.94145 -5.01196,2.215232 -7.31402,6.957647 -5.9787,12.31653 1.4954,6.001295 8.89603,9.408151 14.31377,6.5893 z m -9.48548,-4.110961 c -1.41668,-1.41668 -1.3189,-1.811145 0.24188,-0.975837 5.05652,2.706168 10.66237,-1.632196 9.77567,-7.565381 L 151.98835,20.333333 153.31269,22 c 0.72838,0.916667 1.331,2.295575 1.33916,3.064241 0.0208,1.964969 -1.81087,5.404729 -3.51292,6.596889 -1.9165,1.342369 -7.39987,1.316022 -8.75797,-0.04208 z"
         id="path2" />
    </g>
  </g>
</svg>
