<?xml version="1.0" encoding="UTF-8" standalone="no"?>
<svg
   version="1.1"
   viewBox="-45.3333 0 282.667 282.667"
   xmlns="http://www.w3.org/2000/svg">
  <g>
    <path
       fill="currentColor"
       d="m 81.116773,268.26879 c -6.637621,-0.96217 -12.32281,-2.18089 -12.966667,-2.77963 -0.348333,-0.32393 -1.128322,-0.58896 -1.733308,-0.58896 -5.244827,0 -7.91395,-5.12741 -9.023035,-17.33333 -0.483097,-5.31667 -1.358527,-14.46667 -1.9454,-20.33333 -0.586874,-5.86667 -1.343049,-13.81667 -1.680389,-17.66667 -0.33734,-3.85 -0.921863,-9.625 -1.29894,-12.83333 -1.407407,-11.97482 -1.99182,-17.64494 -2.353409,-22.83333 -0.20443,-2.93334 -0.668876,-7.58334 -1.032104,-10.33334 -0.363227,-2.75 -0.958518,-8.45 -1.322867,-12.66666 -0.36435,-4.21667 -1.094369,-11.71667 -1.622264,-16.66667 -3.32571,-31.18473 -3.699701,-29.6837 8.311716,-33.35937 3.460278,-1.058898 3.757223,-1.373508 4.694665,-4.973961 0.381873,-1.466667 0.962089,-3.266667 1.289369,-4 0.32728,-0.733333 2.877148,-8.233333 5.666374,-16.666666 2.789225,-8.433333 5.320783,-15.79318 5.625685,-16.355215 0.304902,-0.562035 0.777155,-2.062035 1.049452,-3.333333 0.272297,-1.271298 0.725802,-2.611451 1.007788,-2.978118 0.281987,-0.366667 0.731987,-1.716667 1,-3 0.268014,-1.283333 0.718014,-2.633333 1,-3 0.281987,-0.366666 0.735492,-1.706819 1.007789,-2.978117 0.272297,-1.271299 0.750778,-2.771299 1.063292,-3.333334 0.312513,-0.562035 2.082658,-5.632097 3.933655,-11.266804 1.850997,-5.634707 3.662259,-10.799517 4.025027,-11.477356 1.87391,-3.501433 14.032724,-3.046842 30.006608,1.12188 4.93,1.286586 10.31363,2.654615 11.96363,3.040065 1.65,0.38545 3.285,0.96921 3.63333,1.297243 0.34834,0.328033 1.053,0.596424 1.56592,0.596424 2.16999,0 14.96154,6.375588 16.87235,8.409546 1.58484,1.686992 1.51173,4.533119 -0.31488,12.25712 -1.16095,4.909227 -2.78428,11.715447 -3.73659,15.666666 -0.7169,2.974452 -2.02772,8.816614 -3.66476,16.333333 -0.59891,2.75 -1.50455,6.8 -2.01252,9 -0.50797,2.2 -1.40826,6.099999 -2.00064,8.666666 -1.9755,8.559421 -2.04595,7.826361 0.92679,9.644341 4.36988,2.6724 4.70719,6.31393 2.37956,25.68899 -0.1762,1.46667 -0.77416,7.46667 -1.3288,13.33333 -0.55464,5.86667 -1.45816,15.16667 -2.00782,20.66667 -0.54967,5.5 -1.2832,13.45 -1.63007,17.66667 -0.34687,4.21666 -0.93756,10.06666 -1.31264,13 -0.37508,2.93333 -1.13819,10.28333 -1.69582,16.33333 -0.55762,6.05 -1.319,13.7 -1.69195,17 -0.37296,3.3 -0.97338,9.6 -1.33429,14 -1.79034,21.82697 -2.25553,22.47525 -18.64717,25.98628 -5.68674,1.21808 -24.953661,1.87712 -30.666667,1.04897 z m 33.333337,-5.87805 c 10.63078,-3.21683 10.23394,-2.5408 11.65951,-19.86221 0.54146,-6.57891 1.44319,-16.46166 2.00385,-21.96166 0.56067,-5.5 1.46627,-14.65 2.01244,-20.33333 0.54618,-5.68333 1.44899,-14.68333 2.00625,-20 0.55726,-5.31667 1.29977,-12.96667 1.65002,-17 0.35026,-4.03333 0.93291,-9.88333 1.29479,-13 0.36188,-3.11667 1.13437,-10.91667 1.71664,-17.33333 0.58226,-6.41667 1.29888,-13.08596 1.59248,-14.82066 0.67701,-4 0.78777,-3.94175 -4.12346,-2.16854 -2.28022,0.82328 -5.49586,1.69656 -7.14586,1.94061 -1.65,0.24406 -4.35,0.73793 -6,1.0975 -16.09408,3.50723 -61.657298,0.84456 -70.89825,-4.14322 -1.943183,-1.04883 -1.994444,-0.50488 -0.869977,9.23166 0.58412,5.05779 1.518913,13.99598 2.077318,19.86265 0.558404,5.86666 1.328804,13.36666 1.711999,16.66666 0.383195,3.3 0.988529,9.15 1.345185,13 0.858202,9.26403 2.405737,25.37458 3.586137,37.33333 0.524786,5.31667 1.27685,13.11667 1.671252,17.33334 0.394402,4.21666 1.015425,10.08223 1.38005,13.0346 0.364626,2.95236 0.662955,7.10702 0.662955,9.23258 0,7.49421 2.769525,10.02612 13.666667,12.49414 7.668661,1.73682 32.536854,1.35161 39.000004,-0.60412 z M 81.783439,260.8759 c -3.483333,-0.26723 -7.383333,-0.84682 -8.666666,-1.28799 -5.090767,-1.75005 -6,-2.21759 -6,-3.08525 0,-0.94573 0.296946,-0.92849 7.333333,0.42567 2.016667,0.38811 5.316667,1.01928 7.333333,1.4026 4.278567,0.81326 25.330261,0.34045 28.333331,-0.63635 7.0396,-2.28973 12.03977,-2.51717 10.34108,-0.47037 -2.80354,3.37806 -20.482148,5.04729 -38.674411,3.65169 z M 67.879168,248.06687 c -0.38976,-3.025 -1.177436,-11.65 -1.750391,-19.16667 -0.572955,-7.51666 -1.347193,-16.51666 -1.72053,-20 -0.373337,-3.48333 -0.982748,-10.53333 -1.354248,-15.66666 -0.823547,-11.37966 -2.223565,-28.61538 -3.628169,-44.66667 -1.809247,-20.67538 -2.093153,-25.31593 -1.585069,-25.90857 1.192934,-1.39147 1.766219,0.7102 2.182667,8.00171 0.245284,4.29463 0.731402,10.53057 1.080263,13.85764 0.34886,3.32707 1.104759,11.74922 1.679776,18.71589 0.575016,6.96667 1.338641,15.66667 1.696944,19.33333 0.358303,3.66667 0.959348,10.41667 1.335655,15 2.072478,25.24226 2.676771,32.2575 3.27332,38 1.421962,13.6881 0.358345,24.6739 -1.210218,12.5 z m 6.975597,4.44547 c -0.605313,-1.57742 -0.469816,-4.47972 0.262008,-5.61214 0.535923,-0.82928 0.649245,-0.77237 0.663795,0.33334 0.0096,0.73333 0.203497,2.45833 0.43077,3.83333 0.416127,2.51756 -0.550101,3.54711 -1.356573,1.44547 z m 44.262005,-1.70325 c 0,-1.51677 0.29217,-5.34177 0.64926,-8.5 0.35709,-3.15822 1.11887,-10.84222 1.69284,-17.07555 0.57396,-6.23334 1.338,-14.48334 1.69785,-18.33334 1.37789,-14.74176 3.5513,-40.81971 4.61163,-55.33333 0.33485,-4.58333 0.91416,-11.03333 1.28737,-14.33333 1.39568,-12.34113 1.40673,-12.92684 0.25596,-13.57084 -0.87824,-0.49149 -0.62678,-0.81135 1.39031,-1.76852 3.26787,-1.55071 3.27118,-0.28042 0.0868,33.33936 -0.59041,6.23333 -1.50537,16.43333 -2.03326,22.66667 -1.35228,15.96778 -2.75714,31.51818 -4.00518,44.33333 -0.5892,6.05 -1.42756,15.2 -1.86302,20.33333 -0.81625,9.62209 -1.16823,11 -2.80991,11 -0.68161,0 -0.96066,-0.80106 -0.96066,-2.75778 z m -11.31519,0.39111 c 0.071,-7.69598 5.69159,-108.57036 6.62869,-118.96666 1.59031,-17.64305 -0.55927,36.25885 -2.95108,74 -0.54607,8.61666 -1.33542,22.41666 -1.75411,30.66666 -0.41869,8.25 -1.02684,15.285 -1.35145,15.63334 -0.35202,0.37775 -0.58287,-0.16031 -0.57205,-1.33334 z M 95.627876,113.56318 c 0.917831,-3.05251 3.30841,-11.03359 6.888104,-22.996304 1.0972,-3.666667 2.24899,-7.566667 2.55953,-8.666667 0.31053,-1.1 1.077,-3.799999 1.70325,-5.999999 0.62626,-2.2 1.53975,-5.5 2.02999,-7.333333 0.85764,-3.207274 1.76636,-6.326414 4.03016,-13.833333 1.22627,-4.066417 2.40129,-8.35797 4.01569,-14.666666 0.89566,-3.500031 1.4231,-4.5 2.37353,-4.5 1.41311,0 1.45046,0.196083 0.56243,2.952668 -1.05038,3.260536 -4.42474,14.98105 -5.6757,19.713998 -0.62994,2.383333 -1.3866,4.933333 -1.68148,5.666666 -0.29487,0.733333 -0.83361,2.533333 -1.19719,4 -0.36359,1.466666 -2.03533,7.466666 -3.71498,13.333333 -1.67965,5.866666 -3.69291,12.916666 -4.47391,15.666666 -0.781,2.75 -1.68487,5.520931 -2.0086,6.157621 -0.32373,0.63669 -0.58859,1.60121 -0.58859,2.14337 0,0.54216 -0.42913,2.27123 -0.953609,3.84238 -0.524482,1.57114 -1.164071,4.01469 -1.421309,5.43009 l -0.467703,2.57346 2.587971,-0.40662 c 1.42339,-0.22364 6.58934,-0.71633 11.47989,-1.09486 16.96433,-1.31306 17.53452,-1.5966 19.39631,-9.64544 0.76333,-3.3 1.67597,-7.050001 2.0281,-8.333335 0.35212,-1.283333 0.94587,-3.833333 1.31943,-5.666666 0.37355,-1.833333 1.45337,-6.483333 2.39959,-10.333333 1.65546,-6.735794 2.18516,-9.040007 4.59764,-19.999999 1.51312,-6.874183 2.75078,-12.214774 4.01692,-17.333333 1.65276,-6.681539 1.76528,-6.312907 -1.98323,-6.497329 -5.48434,-0.269822 -21.6688,-3.337658 -27.33334,-5.181155 -1.46666,-0.47732 -4.46666,-1.393254 -6.66666,-2.03541 -2.2,-0.642155 -4.45,-1.403226 -5,-1.691268 -0.55,-0.288043 -2.95,-1.163531 -5.333337,-1.94553 -2.383334,-0.781999 -5.740298,-2.126563 -7.459922,-2.98792 l -3.126589,-1.566104 -1.660646,4.452358 c -0.913355,2.448797 -4.400095,12.702358 -7.748311,22.785691 -3.348215,10.083333 -6.338586,18.933333 -6.645268,19.666666 -0.306681,0.733333 -1.206402,3.433333 -1.999379,6 -0.792977,2.566667 -1.705871,5.266666 -2.028653,6 -1.750713,3.977463 -10.054581,29.879217 -9.875589,30.804327 0.358497,1.85287 8.255189,2.9838 30.87769,4.42218 5.163714,0.32832 5.21529,0.30414 6.17777,-2.89687 z m 6.353274,-0.66297 c 0.20065,-0.91667 0.81869,-3.31667 1.37343,-5.33333 0.55473,-2.01667 2.25732,-8.316671 3.78353,-14.000004 1.5262,-5.683334 3.18449,-11.833333 3.68507,-13.666667 0.50059,-1.833333 1.35268,-4.983333 1.89354,-6.999999 0.93264,-3.477498 1.69512,-6.100531 4.11807,-14.166666 0.98124,-3.266634 2.2892,-8.344504 3.56318,-13.833333 1.90644,-8.213731 2.25594,-8.57349 6.86217,-7.063645 1.57115,0.514995 5.25663,1.144959 8.18997,1.39992 6.1462,0.534218 7.32783,1.138822 6.23102,3.18822 -0.40752,0.761468 -1.12907,2.904967 -1.60343,4.76333 -2.11011,8.266529 -2.44051,9.45461 -2.97901,10.712174 -0.31401,0.733334 -0.75716,2.383333 -0.98477,3.666667 -0.22762,1.283333 -0.67109,3.083333 -0.9855,4 -0.3144,0.916666 -1.03738,3.316666 -1.6066,5.333333 -2.38123,8.436237 -3.66575,12.252602 -3.70094,10.995598 -0.0206,-0.735754 0.28509,-2.385754 0.67929,-3.666666 0.74921,-2.434496 0.89867,-3.059935 4.85784,-20.328932 1.34502,-5.866666 2.75976,-11.639917 3.14387,-12.829446 0.89123,-2.759977 0.39899,-3.503887 -2.3185,-3.503887 -1.20342,0 -3.66071,-0.446752 -5.46065,-0.992783 -5.61194,-1.70244 -5.94704,-1.5561 -7.23471,3.15945 -0.62579,2.291667 -1.41628,5.066667 -1.75664,6.166667 -2.18989,7.077304 -5.52202,18.413944 -6.07446,20.666665 -0.35968,1.466667 -0.90274,3.266667 -1.20681,4 -0.30408,0.733334 -0.85662,2.533334 -1.22787,4 -0.37125,1.466667 -1.17182,4.316667 -1.77904,6.333333 -0.60721,2.016667 -1.49848,5.166667 -1.98058,7 -1.9279,7.331332 -6.48963,21.373011 -7.14715,22.000001 -0.4825,0.46009 -0.58609,0.15024 -0.33432,-1 z M 90.098525,34.747104 c 0.347352,-3.3976 1.949327,-7.853282 2.817563,-7.836684 1.688121,0.03227 2.443769,1.226859 1.49115,2.357327 -0.526423,0.624702 -1.783768,2.822567 -2.794101,4.884143 l -1.836968,3.748321 z M 54.817457,109.25495 c 1.929767,-4.61858 0.811192,-5.47712 -3.776581,-2.89865 -3.070677,1.72582 -3.218263,2.5127 -0.757437,4.03842 2.658991,1.64859 3.452294,1.44916 4.534018,-1.13977 z m 82.400923,0.90624 c 1.88203,-1.34013 1.92088,-1.46448 0.83292,-2.66666 -1.52196,-1.68175 -2.74948,-1.59218 -3.27583,0.23901 -0.23714,0.825 -0.57757,2.025 -0.75652,2.66667 -0.43611,1.5638 0.79698,1.47168 3.19943,-0.23902 z m 8.56506,-75.918049 c 0,-1.336413 -11.06096,-6.085642 -21,-9.01674 -2.2,-0.648796 -4.6,-1.42721 -5.33333,-1.729808 -0.73334,-0.302598 -2.98334,-0.875866 -5,-1.273929 -2.01667,-0.398062 -5.76667,-1.182774 -8.33334,-1.743803 -6.180773,-1.351011 -15.666664,-1.953928 -15.666664,-0.995762 0,1.550527 3.293177,2.997243 4.884293,2.145704 4.440188,-2.376317 32.434741,5.030415 45.115711,11.936608 2.52745,1.37648 5.33333,1.733036 5.33333,0.67773 z m -19.71281,-3.934929 c 0.20123,-0.325599 -0.45607,-0.755122 -1.46066,-0.954495 -1.00459,-0.199372 -4.82653,-1.132393 -8.4932,-2.073378 -3.66666,-0.940985 -7.26666,-1.676662 -8,-1.634837 l -1.33333,0.07605 1.33333,0.327738 c 0.73334,0.180255 1.63334,0.540611 2,0.80079 0.36667,0.260179 2.31667,0.971127 4.33334,1.579884 2.01666,0.608756 4.56666,1.389916 5.66666,1.73591 2.60762,0.820198 5.49229,0.889164 5.95386,0.142343 z"
       />
  </g>
  <!-- ice-up indicator (cube + slash) tucked into the bottom-right corner. -->
  <g transform="translate(170, 200) scale(0.637)">
    <g transform="translate(-25.999689,-12.024693)">
      <path
         style="fill:currentColor"
         d="M 73.619436,109.93832 C 70.005868,109.27966 57.880676,105.17565 52.333333,102.73363 51.6,102.4108 48.3,101.18263 45,100.00435 39.359795,97.990486 37.480943,97.304005 32.163599,95.314275 30.970244,94.867726 29.095244,93.478898 27.996932,92.227989 L 26,89.953609 V 60.125143 c 0,-32.629158 -0.112442,-31.665182 3.937859,-33.759674 1.885728,-0.975148 14.01858,-5.058753 26.728808,-8.996227 3.85,-1.192684 7.9,-2.462236 9,-2.821228 7.935217,-2.589707 12.80102,-3.136523 16.619334,-1.867671 12.220923,4.061099 20.551839,6.652991 21.384199,6.652991 0.55801,0 1.53549,0.276461 2.17218,0.614358 0.63669,0.337897 4.30762,1.586174 8.15762,2.773948 3.85,1.187775 8.07917,2.694032 9.39816,3.347238 4.75703,2.355834 4.60212,1.219437 4.59935,33.741002 -0.002,27.952277 -0.0587,29.282272 -1.32737,31.363101 -1.48019,2.4277 -4.08513,3.756801 -16.00347,8.165348 -4.21667,1.559731 -8.61201,3.246671 -9.76742,3.748771 -1.155417,0.5021 -2.396125,0.9129 -2.757131,0.9129 -0.361007,0 -1.515669,0.44816 -2.565914,0.9959 -1.050246,0.54774 -2.374538,0.99774 -2.942872,1 -0.568333,0.002 -1.318333,0.25647 -1.666666,0.56491 -0.985383,0.87253 -8.999776,3.27723 -11.966667,3.59056 -1.466667,0.1549 -3.88792,0.059 -5.380564,-0.21305 z m 12.015413,-5.35105 c 3.3175,-1.14367 6.316818,-2.34367 6.665151,-2.66666 0.348333,-0.323 1.052995,-0.58727 1.565914,-0.58727 0.512919,0 1.877919,-0.42333 3.033333,-0.94073 2.205968,-0.987848 7.088083,-2.906661 17.301833,-6.80012 3.37274,-1.285681 6.95725,-3.126079 7.96559,-4.089772 L 124,87.750549 V 59.669362 c 0,-21.474104 -0.19607,-28.322238 -0.83333,-29.105692 -0.96524,-1.18667 -2.03721,-1.596164 -12.83334,-4.902349 -4.4,-1.347448 -8.6,-2.70131 -9.33333,-3.008582 -0.73333,-0.307272 -3.583333,-1.212929 -6.333333,-2.012572 -2.75,-0.799643 -7.241678,-2.170807 -9.981505,-3.047031 -5.791366,-1.852137 -9.166871,-1.992142 -13.733069,-0.569606 -1.806985,0.562941 -4.185426,1.279659 -5.285426,1.592707 -5.14169,1.463267 -12.129034,3.602884 -13.333334,4.082842 C 51.6,22.99134 46.95,24.50562 42,26.064146 c -6.514747,2.051193 -9.506255,3.339885 -10.833333,4.666821 l -1.833334,1.833137 v 27.155023 27.155022 l 1.617063,2.120078 c 0.958141,1.256188 2.927629,2.606611 4.833333,3.314081 C 37.552678,92.96501 39.9,93.888391 41,94.360266 c 1.1,0.471876 8.3,3.162056 16,5.978174 7.7,2.81613 14.6,5.37172 15.333333,5.67911 2.682328,1.12433 7.345841,0.62287 13.301516,-1.43028 z m -9.219378,-2.28028 C 76.186962,101.7115 76,90.665551 76,77.760429 V 54.296571 l 2.044566,-3.940711 c 1.124512,-2.16739 2.549512,-4.325769 3.166667,-4.796398 0.617155,-0.470628 3.8221,-1.746051 7.1221,-2.834273 8.633978,-2.847177 20.555237,-7.040758 21.333567,-7.504583 0.36654,-0.218428 1.71643,-0.617063 2.99977,-0.885855 1.28333,-0.268792 2.63689,-0.731518 3.00792,-1.028279 1.16072,-0.9284 4.50052,-1.025526 4.811,-0.139911 0.37911,1.081375 -2.67977,2.357787 -17.81892,7.435487 C 95.883333,42.87719 89.733333,45.003615 89,45.327436 c -0.733333,0.323821 -2.083333,0.796979 -3,1.051463 -2.535418,0.703879 -5.338605,2.909303 -6.185056,4.866129 -0.49934,1.154375 -0.882762,10.291912 -1.120374,26.700233 -0.255164,17.620403 -0.581816,25.018549 -1.112432,25.194839 -0.413157,0.13728 -0.938157,-0.23763 -1.166667,-0.83311 z m 6.917862,-2.811333 c 0,-0.537419 4.741239,-2.181231 6.156168,-2.134376 0.464108,0.01537 -0.206168,0.602795 -1.489501,1.30539 -2.403286,1.315743 -4.666667,1.717809 -4.666667,0.828986 z M 50,93.11753 c -2.383333,-0.805567 -4.633333,-1.651281 -5,-1.879365 -0.366667,-0.228084 -1.638226,-0.623058 -2.825688,-0.877721 -2.115209,-0.453626 -3.321503,-1.435472 -2.622461,-2.134513 0.37971,-0.37971 12.205962,3.900025 15.051462,5.446888 C 57.147546,95.055907 54.950878,94.790927 50,93.11753 Z m 56.35166,-2.027726 c 0.72325,-0.50061 2.06501,-1.137327 2.98167,-1.414926 4.62868,-1.401727 4.34009,-3.133017 -0.83333,-4.999411 -2.29167,-0.826754 -6.86667,-2.537732 -10.166667,-3.802172 -3.3,-1.264439 -6.834619,-2.618582 -7.854709,-3.009204 -3.885634,-1.487924 -1.070084,-1.18796 3.942802,0.420059 2.884882,0.925405 7.645244,2.421903 10.578574,3.325551 7.03337,2.166712 11.66667,4.259597 11.66667,5.269896 0,0.946234 -3.03527,2.638581 -7.33334,4.08878 -3.73649,1.26072 -4.68336,1.299281 -2.98167,0.121427 z M 36.351852,85.43643 C 37.494266,84.367502 46.463585,80.75879 50.333333,79.811128 51.066667,79.631542 52.266667,79.257981 53,78.980992 c 1.185712,-0.447858 1.222617,-0.392655 0.333333,0.498602 -1.228443,1.231169 -15.374517,7.187076 -17.070265,7.187076 -1.158189,0 -1.153276,-0.06807 0.08878,-1.23024 z m 81.529378,-3.909165 c -0.28265,-1.169589 1.09261,-22.204557 1.49462,-22.860596 0.3846,-0.627621 0.958,18.996514 0.62174,21.278582 -0.36879,2.502869 -1.66047,3.468423 -2.11636,1.582014 z M 83.088148,63.263529 c -0.575794,-6.29104 0.206826,-10.850331 1.979251,-11.530475 1.899278,-0.728821 2.315659,0.324623 0.909082,2.299977 -1.053368,1.47932 -1.497509,3.484728 -1.872143,8.453197 l -0.491154,6.513775 z M 71.166005,66.66667 c -0.234221,-0.55 -0.517499,-3.653526 -0.629508,-6.896723 -0.192629,-5.577565 -0.306778,-5.978952 -2.109002,-7.415996 -2.167237,-1.728094 -1.420813,-2.77795 1.144155,-1.609272 2.737039,1.247078 3.360295,3.784293 2.647108,10.776119 -0.344794,3.38023 -0.818532,5.695872 -1.052753,5.145872 z M 34.497227,56.000002 c -0.726394,-8.413609 -0.609384,-14.287844 0.302773,-15.2 0.794016,-0.794017 3.2,-1.127254 3.2,-0.443211 0,0.196233 -0.493358,1.109747 -1.09635,2.03003 -0.810465,1.236927 -1.203371,3.968797 -1.506769,10.476545 l -0.410419,8.803303 z m 38.836106,-8.668029 c -0.55,-0.275176 -2.8,-1.023208 -5,-1.662295 -6.588595,-1.913947 -10.5888,-3.153948 -12,-3.719812 -0.733333,-0.294052 -3.433333,-1.191532 -6,-1.9944 -12.004059,-3.754937 -17.293089,-5.676202 -17.31236,-6.288798 -0.03035,-0.964847 2.813705,-1.220105 4.875657,-0.437596 0.97352,0.36945 4.020037,1.315212 6.770037,2.101693 2.75,0.786481 5.6,1.691686 6.333333,2.011568 0.733333,0.319881 5.901492,2.022739 11.484796,3.784129 5.583305,1.76139 10.634665,3.555852 11.225244,3.987694 1.356519,0.991911 1.028847,2.921042 -0.376707,2.217817 z m 39.337547,-4.485936 c 0.004,-0.42534 2.94312,-2.48613 4.82912,-3.385405 0.84475,-0.40279 0.55303,1.667674 -0.33333,2.365815 -1.13263,0.892106 -4.50102,1.656017 -4.49579,1.01959 z M 75.5,40.189165 c 1.008333,-0.152749 2.658333,-0.152749 3.666667,0 1.008333,0.15275 0.183333,0.277727 -1.833334,0.277727 -2.016666,0 -2.841666,-0.124977 -1.833333,-0.277727 z m 21.788012,-6.511712 c 2.358407,-0.939216 4.608408,-1.599227 4.999998,-1.466691 1.21276,0.410463 -3.324024,2.397265 -6.384695,2.796062 -2.821212,0.367596 -2.782054,0.330003 1.384697,-1.329371 z M 44.666667,30.044926 c 0,-0.341957 0.525,-0.770882 1.166666,-0.953165 2.445597,-0.69474 15.293767,-4.615167 18.023298,-5.49954 3.810076,-1.234471 5.743909,-1.135252 2.810036,0.144174 -3.396358,1.48111 -20.331084,6.930273 -21.537671,6.930273 -0.254281,0 -0.462329,-0.279784 -0.462329,-0.621742 z M 104.33333,29.341189 C 102.5,28.685316 98.766159,27.441233 96.03591,26.576561 c -2.73025,-0.864672 -4.422595,-1.676414 -3.760766,-1.80387 0.661829,-0.127457 2.445669,0.214252 3.96409,0.759352 1.518421,0.545101 5.221446,1.675202 8.228946,2.511336 3.0075,0.836135 5.3148,1.768429 5.12732,2.071767 -0.46447,0.751538 -1.37051,0.618278 -5.26217,-0.773957 z M 76.42632,22.204099 C 75.675531,21.45331 75.96906,20.666668 77,20.666668 c 0.55,0 1,0.282294 1,0.627322 0,0.840651 -1.041059,1.442729 -1.57368,0.910109 z"
         />
    </g>
    <line
       x1="6" y1="6" x2="96" y2="96"
       stroke="currentColor"
       stroke-width="10"
       stroke-linecap="round" />
  </g>
</svg>
