<svg xmlns="http://www.w3.org/2000/svg" width="1600" height="900" aria-labelledby="title desc"><desc>Black Swizzle wordmark with oversized S and a swizzle stick underline under WIZZLE, transparent background.</desc><g fill="#050505"><text x="235" y="480" font-family="Georgia, 'Times New Roman', serif" font-size="360" font-weight="700" letter-spacing="-10">S</text><text x="455" y="480" font-family="Georgia, 'Times New Roman', serif" font-size="210" font-weight="700" letter-spacing="28">WIZZLE</text><g transform="translate(455 560)"><path d="M20 32c165-4 390-4 575-2 110 1 190-2 250-12l7 29c-82 13-162 11-257 9-190-3-410-2-575 2Z"/><ellipse cx="20" cy="45" rx="15" ry="29" transform="rotate(-4 20 45)"/><ellipse cx="18" cy="45" fill="none" stroke="#fff" stroke-width="2.5" opacity=".9" rx="7" ry="15" transform="rotate(-4 18 45)"/><path d="m830 30 90-54c12-7 24 7 13 18l-59 40 66 5c16 1 16 24 0 26l-66-3 51 51c11 11-6 27-18 14l-77-70Z"/><ellipse cx="928" cy="-13" fill="none" stroke="#fff" stroke-width="2.5" opacity=".85" rx="9" ry="15" transform="rotate(-52 928 -13)"/><ellipse cx="941" cy="52" fill="none" stroke="#fff" stroke-width="2.5" opacity=".85" rx="9" ry="15" transform="rotate(87 941 52)"/><ellipse cx="917" cy="119" fill="none" stroke="#fff" stroke-width="2.5" opacity=".85" rx="9" ry="15" transform="rotate(-43 917 119)"/></g></g></svg>